<?xml version="1.0" encoding="UTF-8" standalone="no"?>
<!DOCTYPE svg PUBLIC "-//W3C//DTD SVG 1.1//EN" "http://www.w3.org/Graphics/SVG/1.1/DTD/svg11.dtd">
<svg width="100%" height="100%" viewBox="0 0 46 46" version="1.1" xmlns="http://www.w3.org/2000/svg" xmlns:xlink="http://www.w3.org/1999/xlink" xml:space="preserve" xmlns:serif="http://www.serif.com/" style="fill-rule:evenodd;clip-rule:evenodd;stroke-linejoin:round;stroke-miterlimit:2;">
    <g transform="matrix(0.250165,0,0,0.250165,7.36419,7.84933)">
        <path d="M47.16,21.221L41.25,20.255C40.904,19.069 40.431,17.929 39.839,16.85L43.289,11.933C43.568,11.536 43.52,10.995 43.177,10.651L39.288,6.764C38.941,6.418 38.395,6.373 37.997,6.66L33.154,10.141C32.065,9.539 30.915,9.061 29.722,8.714L28.691,2.828C28.607,2.35 28.192,2 27.706,2L22.206,2C21.716,2 21.298,2.355 21.219,2.839L20.263,8.693C19.063,9.038 17.911,9.511 16.826,10.105L11.996,6.655C11.597,6.37 11.054,6.416 10.707,6.761L6.82,10.648C6.477,10.991 6.429,11.531 6.708,11.928L10.107,16.791C9.502,17.886 9.02,19.045 8.669,20.251L2.838,21.222C2.356,21.302 2.002,21.72 2.002,22.208L2.002,27.708C2.002,28.193 2.35,28.608 2.827,28.693L8.658,29.727C9.007,30.93 9.489,32.089 10.096,33.187L6.655,38C6.371,38.397 6.416,38.942 6.761,39.289L10.649,43.18C10.992,43.523 11.533,43.571 11.93,43.292L16.8,39.881C17.893,40.482 19.048,40.959 20.245,41.305L21.221,47.166C21.3,47.647 21.717,48 22.206,48L27.706,48C28.191,48 28.606,47.652 28.69,47.175L29.735,41.285C30.934,40.932 32.083,40.452 33.165,39.85L38.07,43.291C38.468,43.572 39.008,43.523 39.352,43.18L43.24,39.289C43.586,38.942 43.631,38.395 43.344,37.997L39.846,33.14C40.439,32.06 40.91,30.918 41.253,29.732L47.171,28.693C47.65,28.609 47.998,28.193 47.998,27.708L47.998,22.208C47.999,21.718 47.644,21.3 47.16,21.221ZM25,32C21.134,32 18,28.866 18,25C18,21.134 21.134,18 25,18C28.866,18 32,21.134 32,25C32,28.866 28.866,32 25,32Z" style="fill:white;fill-rule:nonzero;"/>
    </g>
    <g transform="matrix(0.623622,0,0,0.623622,-2.26975,10.66)">
        <g transform="matrix(32.8422,0,0,32.8422,21.6997,42.3858)">
            <path d="M-0.001,-0L0.316,-0.7L0.415,-0.7L0.733,-0L0.628,-0L0.345,-0.644L0.385,-0.644L0.102,-0L-0.001,-0ZM0.134,-0.175L0.161,-0.255L0.555,-0.255L0.584,-0.175L0.134,-0.175Z" style="fill:white;fill-rule:nonzero;"/>
        </g>
        <g transform="matrix(32.8422,0,0,32.8422,44.2951,42.3858)">
            <path d="M0.42,-0L0.42,-0.112L0.415,-0.133L0.415,-0.324C0.415,-0.365 0.404,-0.396 0.38,-0.419C0.356,-0.441 0.321,-0.452 0.273,-0.452C0.241,-0.452 0.211,-0.447 0.181,-0.437C0.151,-0.426 0.126,-0.413 0.105,-0.395L0.065,-0.467C0.092,-0.489 0.125,-0.506 0.164,-0.518C0.202,-0.529 0.242,-0.535 0.284,-0.535C0.357,-0.535 0.413,-0.517 0.452,-0.482C0.492,-0.447 0.511,-0.392 0.511,-0.32L0.511,-0L0.42,-0ZM0.246,0.006C0.207,0.006 0.172,-0.001 0.142,-0.014C0.113,-0.027 0.09,-0.046 0.074,-0.069C0.058,-0.093 0.05,-0.12 0.05,-0.15C0.05,-0.179 0.057,-0.205 0.07,-0.228C0.084,-0.251 0.106,-0.27 0.137,-0.284C0.169,-0.298 0.21,-0.305 0.263,-0.305L0.431,-0.305L0.431,-0.236L0.267,-0.236C0.219,-0.236 0.187,-0.228 0.17,-0.212C0.153,-0.196 0.145,-0.177 0.145,-0.154C0.145,-0.128 0.155,-0.107 0.176,-0.091C0.197,-0.076 0.226,-0.068 0.262,-0.068C0.298,-0.068 0.33,-0.076 0.357,-0.092C0.384,-0.108 0.403,-0.132 0.415,-0.162L0.434,-0.096C0.421,-0.064 0.399,-0.04 0.367,-0.021C0.335,-0.003 0.295,0.006 0.246,0.006Z" style="fill:white;fill-rule:nonzero;"/>
        </g>
    </g>
    <g transform="matrix(0.274158,0,0,0.274158,16.3872,9.41827)">
        <g transform="matrix(32.8422,0,0,32.8422,21.6997,42.3858)">
            <path d="M0.243,0.006C0.199,0.006 0.157,0 0.118,-0.012C0.078,-0.024 0.047,-0.039 0.024,-0.056L0.064,-0.132C0.087,-0.117 0.115,-0.104 0.148,-0.093C0.181,-0.082 0.215,-0.077 0.25,-0.077C0.295,-0.077 0.327,-0.083 0.347,-0.096C0.366,-0.109 0.376,-0.126 0.376,-0.149C0.376,-0.166 0.37,-0.179 0.358,-0.188C0.346,-0.197 0.33,-0.204 0.311,-0.209C0.291,-0.214 0.269,-0.218 0.245,-0.222C0.221,-0.225 0.197,-0.23 0.173,-0.236C0.149,-0.241 0.127,-0.249 0.107,-0.26C0.087,-0.27 0.071,-0.284 0.059,-0.303C0.047,-0.321 0.041,-0.345 0.041,-0.376C0.041,-0.408 0.05,-0.436 0.068,-0.46C0.086,-0.484 0.112,-0.502 0.145,-0.516C0.178,-0.529 0.217,-0.535 0.262,-0.535C0.297,-0.535 0.332,-0.531 0.368,-0.523C0.403,-0.514 0.432,-0.502 0.455,-0.487L0.414,-0.411C0.39,-0.427 0.365,-0.438 0.339,-0.444C0.313,-0.45 0.287,-0.453 0.261,-0.453C0.219,-0.453 0.188,-0.446 0.167,-0.433C0.146,-0.419 0.136,-0.401 0.136,-0.38C0.136,-0.362 0.142,-0.348 0.155,-0.339C0.167,-0.329 0.183,-0.321 0.203,-0.316C0.222,-0.311 0.244,-0.306 0.268,-0.303C0.292,-0.299 0.316,-0.294 0.34,-0.289C0.364,-0.283 0.386,-0.275 0.406,-0.265C0.425,-0.255 0.441,-0.241 0.454,-0.223C0.466,-0.205 0.472,-0.181 0.472,-0.151C0.472,-0.119 0.463,-0.091 0.444,-0.068C0.425,-0.045 0.399,-0.027 0.365,-0.014C0.331,-0 0.29,0.006 0.243,0.006ZM0.202,-0.607L0.069,-0.737L0.156,-0.737L0.288,-0.628L0.208,-0.628L0.34,-0.737L0.427,-0.737L0.294,-0.607L0.202,-0.607Z" style="fill:white;fill-rule:nonzero;"/>
        </g>
        <g transform="matrix(32.8422,0,0,32.8422,36.9056,42.3858)">
            <path d="M0.243,0.006C0.199,0.006 0.157,-0 0.117,-0.012C0.078,-0.024 0.046,-0.039 0.024,-0.056L0.064,-0.132C0.087,-0.116 0.115,-0.103 0.148,-0.093C0.182,-0.082 0.215,-0.077 0.25,-0.077C0.294,-0.077 0.327,-0.083 0.347,-0.096C0.366,-0.109 0.376,-0.127 0.376,-0.149C0.376,-0.166 0.37,-0.179 0.358,-0.188C0.346,-0.197 0.33,-0.204 0.31,-0.209C0.29,-0.214 0.269,-0.218 0.245,-0.222C0.221,-0.225 0.197,-0.23 0.173,-0.235C0.149,-0.241 0.127,-0.249 0.107,-0.26C0.087,-0.27 0.071,-0.284 0.059,-0.303C0.047,-0.321 0.041,-0.346 0.041,-0.376C0.041,-0.408 0.05,-0.436 0.068,-0.46C0.086,-0.484 0.112,-0.502 0.144,-0.515C0.177,-0.529 0.217,-0.535 0.262,-0.535C0.297,-0.535 0.332,-0.531 0.368,-0.522C0.403,-0.514 0.432,-0.502 0.455,-0.487L0.414,-0.411C0.39,-0.427 0.365,-0.438 0.339,-0.444C0.313,-0.45 0.287,-0.453 0.261,-0.453C0.219,-0.453 0.188,-0.446 0.167,-0.433C0.147,-0.419 0.136,-0.402 0.136,-0.38C0.136,-0.362 0.142,-0.348 0.155,-0.339C0.167,-0.329 0.183,-0.322 0.202,-0.316C0.222,-0.311 0.244,-0.306 0.268,-0.303C0.292,-0.299 0.316,-0.294 0.34,-0.289C0.364,-0.283 0.386,-0.275 0.405,-0.265C0.425,-0.255 0.441,-0.241 0.453,-0.223C0.466,-0.205 0.472,-0.181 0.472,-0.151C0.472,-0.119 0.462,-0.091 0.444,-0.068C0.425,-0.044 0.399,-0.026 0.365,-0.014C0.331,-0.001 0.291,0.006 0.243,0.006Z" style="fill:white;fill-rule:nonzero;"/>
        </g>
        <g transform="matrix(32.8422,0,0,32.8422,52.1115,42.3858)">
            <path d="M0.327,0.006C0.27,0.006 0.221,-0.006 0.178,-0.029C0.134,-0.052 0.101,-0.084 0.078,-0.125C0.054,-0.166 0.042,-0.212 0.042,-0.265C0.042,-0.318 0.054,-0.364 0.077,-0.405C0.099,-0.446 0.131,-0.478 0.172,-0.501C0.212,-0.524 0.257,-0.535 0.308,-0.535C0.359,-0.535 0.405,-0.524 0.444,-0.501C0.483,-0.478 0.514,-0.447 0.537,-0.406C0.559,-0.365 0.57,-0.317 0.57,-0.262C0.57,-0.258 0.57,-0.253 0.57,-0.248C0.569,-0.243 0.569,-0.238 0.568,-0.233L0.117,-0.233L0.117,-0.302L0.518,-0.302L0.479,-0.278C0.48,-0.312 0.473,-0.342 0.458,-0.369C0.443,-0.396 0.423,-0.417 0.398,-0.432C0.372,-0.447 0.342,-0.454 0.308,-0.454C0.275,-0.454 0.245,-0.447 0.219,-0.432C0.193,-0.417 0.173,-0.396 0.158,-0.369C0.143,-0.341 0.136,-0.311 0.136,-0.276L0.136,-0.26C0.136,-0.225 0.144,-0.193 0.161,-0.166C0.177,-0.138 0.2,-0.116 0.229,-0.101C0.258,-0.086 0.292,-0.078 0.33,-0.078C0.361,-0.078 0.39,-0.083 0.416,-0.094C0.441,-0.105 0.464,-0.121 0.483,-0.142L0.536,-0.08C0.512,-0.052 0.482,-0.031 0.447,-0.016C0.411,-0.001 0.371,0.006 0.327,0.006ZM0.261,-0.607L0.128,-0.737L0.215,-0.737L0.347,-0.628L0.267,-0.628L0.399,-0.737L0.486,-0.737L0.353,-0.607L0.261,-0.607Z" style="fill:white;fill-rule:nonzero;"/>
        </g>
        <g transform="matrix(32.8422,0,0,32.8422,71.3899,42.3858)">
            <path d="M0.327,0.006C0.27,0.006 0.221,-0.006 0.178,-0.029C0.135,-0.052 0.102,-0.084 0.078,-0.125C0.054,-0.166 0.042,-0.213 0.042,-0.265C0.042,-0.317 0.054,-0.364 0.077,-0.405C0.099,-0.445 0.131,-0.477 0.171,-0.5C0.212,-0.524 0.257,-0.535 0.308,-0.535C0.359,-0.535 0.404,-0.524 0.444,-0.501C0.483,-0.478 0.514,-0.446 0.537,-0.405C0.559,-0.365 0.57,-0.317 0.57,-0.262C0.57,-0.258 0.57,-0.254 0.57,-0.248C0.569,-0.243 0.569,-0.238 0.568,-0.233L0.117,-0.233L0.117,-0.302L0.518,-0.302L0.479,-0.278C0.48,-0.312 0.473,-0.343 0.458,-0.369C0.443,-0.395 0.423,-0.416 0.397,-0.431C0.372,-0.446 0.342,-0.454 0.308,-0.454C0.275,-0.454 0.245,-0.446 0.219,-0.431C0.193,-0.416 0.173,-0.395 0.158,-0.369C0.144,-0.342 0.136,-0.311 0.136,-0.276L0.136,-0.26C0.136,-0.224 0.144,-0.193 0.161,-0.166C0.177,-0.138 0.199,-0.117 0.229,-0.101C0.258,-0.086 0.292,-0.079 0.33,-0.079C0.361,-0.079 0.39,-0.084 0.416,-0.094C0.442,-0.105 0.464,-0.121 0.483,-0.142L0.536,-0.08C0.512,-0.052 0.482,-0.031 0.447,-0.016C0.411,-0.002 0.371,0.006 0.327,0.006Z" style="fill:white;fill-rule:nonzero;"/>
        </g>
    </g>
</svg>
