<svg viewBox="0 0 358.47715736040607 81.40674" xmlns:xlink="http://www.w3.org/1999/xlink" xmlns="http://www.w3.org/2000/svg" id="b" style="max-height: 500px" width="358.47715736040607" height="81.40674"><defs><style>.f{fill:url(#e);stroke-width:0px;}.g{stroke-width:14.61px;}.g,.h,.i{fill:none;stroke:#000;stroke-linecap:round;stroke-miterlimit:10;}.j{mask:url(#d);}.h{stroke-width:15.11px;}.i{stroke-width:14.72px;}</style><linearGradient gradientUnits="userSpaceOnUse" y2="-28.69" x2="176.29" y1="80.04" x1="176.29" id="e"><stop stop-color="#000" offset="0"/><stop stop-color="#252525" offset=".03"/><stop stop-color="#5e5e5e" offset=".09"/><stop stop-color="#8f8f8f" offset=".14"/><stop stop-color="#b7b7b7" offset=".2"/><stop stop-color="#d6d6d6" offset=".25"/><stop stop-color="#ededed" offset=".3"/><stop stop-color="#fafafa" offset=".35"/><stop stop-color="#fff" offset=".39"/></linearGradient><mask maskUnits="userSpaceOnUse" height="185.79" width="362.09" y="-6.49" x="-4.76" id="d"><rect height="86.53" width="362.09" y="-6.49" x="-4.76" class="f"/></mask></defs><g id="c"><g class="j"><path d="m217.1,83.53c4.35-3.53,15.24-16.23,20.3-38.11,4.15-17.96,3.12-32.24,1.16-38.11" class="g"/><path d="m230.82,113.76c6.73-4.22,28.22-18.91,38.9-48.57,9.25-25.69,7.77-46.85,5.81-55.28" class="i"/><path d="m233.17,146.43c11.14-5.22,36.32-18.92,55.67-48.64,22.28-34.22,23.18-68.75,22.94-81.17" class="i"/><path d="m221.44,171.75c11.59-1.87,54.65-10.35,88.43-52.7,30.56-38.32,34.82-80.92,35.68-94.64" class="h"/><path d="m137.82,83.53c-4.35-3.53-15.69-16.23-20.75-38.11-4.15-17.96-2.67-32.24-.71-38.11" class="g"/><path d="m122.27,113.76c-6.73-4.22-28.22-18.91-38.9-48.57-9.25-25.69-7.77-46.85-5.81-55.28" class="i"/><path d="m119.93,146.43c-11.14-5.22-36.32-18.92-55.67-48.64C41.98,63.57,41.08,29.04,41.32,16.62" class="i"/><path d="m131.66,171.75c-11.59-1.87-54.65-10.35-88.43-52.7C12.67,80.74,8.41,38.14,7.55,24.41" class="h"/></g></g></svg>