<?xml version="1.0" encoding="UTF-8"?><svg id="b" xmlns="http://www.w3.org/2000/svg" xmlns:xlink="http://www.w3.org/1999/xlink" viewBox="0 0 1933.02 1355.9"><defs><style>.l{stroke-width:9px;}.l,.m,.n,.o,.p,.q,.r,.s,.t,.u,.v,.w,.x,.y,.z,.aa{stroke:#000;stroke-miterlimit:10;}.l,.n,.r,.ab,.v,.ac,.z,.aa{fill:none;}.l,.n,.r,.ab,.ac{stroke-linecap:round;}.m{fill:url(#j);}.m,.o,.q,.s,.u,.w,.x,.aa{stroke-width:5.61px;}.n,.y{stroke-width:8.39px;}.o{fill:url(#d);}.p,.v{stroke-width:5px;}.p,.ad,.ae{fill:#893e38;}.af{fill:#ffede1;}.af,.ag,.ah,.ai,.aj,.ak,.al,.am,.an,.ad,.ao,.ap{stroke-width:0px;}.q{fill:url(#e);}.aq{letter-spacing:-.02em;}.r{stroke-width:26.37px;}.ab{stroke-width:11.72px;}.ab,.ac{stroke:#18295d;stroke-linejoin:round;}.ah{fill:#d0bbb4;}.ai{fill:gray;}.s{fill:url(#h);}.aj{fill:#b3b3b3;}.t{fill:url(#k);stroke-width:3.98px;}.ak,.y{fill:#fff;}.al{fill:#dcc8b7;}.am{fill:#273f7e;}.u{fill:url(#f);}.an{fill:#b6a49e;}.w{fill:url(#g);}.ac{stroke-width:6.84px;}.x{fill:url(#i);}.ae{font-family:MontserratRoman-Bold, Montserrat;font-size:55px;font-variation-settings:'wght' 700;font-weight:700;}.ao{fill:#18295d;}.ap{fill:#ead2ca;}.z{stroke-width:.98px;}</style><linearGradient id="d" x1="477.13" y1="896.88" x2="584.71" y2="710.55" gradientUnits="userSpaceOnUse"><stop offset="0" stop-color="#fff"/><stop offset=".09" stop-color="#e0f8fd"/><stop offset=".29" stop-color="#94e7f9"/><stop offset=".33" stop-color="#abecfa"/><stop offset=".41" stop-color="#d8f6fc"/><stop offset=".48" stop-color="#f4fcfe"/><stop offset=".52" stop-color="#fff"/><stop offset=".58" stop-color="#d8f3fc"/><stop offset=".66" stop-color="#b4e9f9"/><stop offset=".7" stop-color="#a6e5f8"/><stop offset=".78" stop-color="#bfecf9"/><stop offset="1" stop-color="#fff"/></linearGradient><linearGradient id="e" x1="322.02" y1="897.35" x2="429.6" y2="711.03" xlink:href="#d"/><linearGradient id="f" x1="159.02" y1="897.35" x2="266.6" y2="711.03" xlink:href="#d"/><linearGradient id="g" x1="1517.08" y1="897.12" x2="1624.65" y2="710.79" xlink:href="#d"/><linearGradient id="h" x1="1361.97" y1="897.59" x2="1469.54" y2="711.27" xlink:href="#d"/><linearGradient id="i" x1="1032.37" y1="481.62" x2="1139.95" y2="295.29" xlink:href="#d"/><linearGradient id="j" x1="667.37" y1="481.62" x2="774.95" y2="295.29" xlink:href="#d"/><linearGradient id="k" x1="834.64" y1="978.29" x2="968.14" y2="747.07" xlink:href="#d"/></defs><g id="c"><rect class="af" x="82.04" y="528.85" width="1639.36" height="487.28"/><polygon class="ad" points="1807.3 542.77 0 542.77 86.43 335.67 1709.4 335.67 1807.3 542.77"/><rect class="af" x="605.57" y="194.5" width="598.34" height="821.16"/><polyline class="ad" points="749.35 197.4 1277.1 197.4 1213.93 .07 751.34 .07 1058.13 0 595.55 0 532.37 197.33 1060.12 197.33"/><rect class="o" x="480.15" y="709" width="101.21" height="190"/><line class="aa" x1="480.08" y1="804.11" x2="581.29" y2="804.11"/><rect class="q" x="325.04" y="709.48" width="101.21" height="190"/><line class="aa" x1="324.97" y1="804.58" x2="426.18" y2="804.58"/><rect class="u" x="162.04" y="709.48" width="101.21" height="190"/><line class="aa" x1="161.97" y1="804.58" x2="263.18" y2="804.58"/><rect class="w" x="1520.1" y="709.24" width="101.21" height="190"/><line class="aa" x1="1520.03" y1="804.35" x2="1621.24" y2="804.35"/><rect class="s" x="1364.99" y="709.72" width="101.21" height="190"/><line class="aa" x1="1364.92" y1="804.82" x2="1466.13" y2="804.82"/><circle class="y" cx="903.3" cy="389" r="65"/><line class="l" x1="904.3" y1="394" x2="926.3" y2="351"/><line class="l" x1="904.3" y1="394" x2="878.3" y2="383"/><line class="n" x1="902.88" y1="324" x2="902.88" y2="337.42"/><line class="n" x1="968.3" y1="388.58" x2="955.72" y2="388.58"/><line class="n" x1="902.88" y1="454" x2="902.88" y2="440.58"/><line class="n" x1="838.3" y1="388.58" x2="852.56" y2="388.58"/><rect class="x" x="1035.39" y="293.74" width="101.21" height="190"/><line class="aa" x1="1035.32" y1="388.84" x2="1136.53" y2="388.84"/><rect class="m" x="670.39" y="293.74" width="101.21" height="190"/><line class="aa" x1="670.32" y1="388.84" x2="771.53" y2="388.84"/><rect class="p" x="787.72" y="736.5" width="228" height="228"/><rect class="t" x="809.07" y="762.07" width="184.23" height="201.93"/><line class="v" x1="902.3" y1="761.5" x2="902.3" y2="968.5"/><rect class="aj" x="726.3" y="961" width="350" height="46"/><rect class="ai" x="44.3" y="984" width="1717" height="40"/><polygon class="al" points="902.63 577 693.97 692 1111.3 692 902.63 577"/><text class="ae" transform="translate(828.52 682.81)"><tspan x="0" y="0">Š</tspan><tspan class="aq" x="35.09" y="0">k</tspan><tspan x="70.12" y="0">ola</tspan></text><polygon class="ad" points="922.05 580.39 905.34 571.7 888 580.72 672.72 693.83 680.1 708.03 905.34 589.73 1133.19 708.16 1140.57 693.97 922.05 580.39"/><line class="v" x1="886.8" y1="864.5" x2="902.8" y2="864.5"/><rect class="al" x="726.3" y="686" width="22" height="275"/><rect class="al" x="1054.3" y="686" width="22" height="275"/><path class="r" d="m1629.35,1020.47c27.98-55.19,86.11-84.84,139.77-74.09,58.5,11.71,84.87,66.04,87.81,72.35"/><path class="r" d="m1618.74,1097.22c33.49-52.04,94.34-75.57,146.63-59.38,56.99,17.64,77.66,74.38,79.93,80.96"/><path class="ap" d="m1730,1303.8c45.94-71.7,149.36-181.68,193.45-209.42,16.64-17.43,10.46-55.06-9.96-71.09-20.42-16.03-69.46-19.95-83.69,1.66-47.83,107.88-186.06,213.88-186.06,213.88,0,0,22.46-18.56,52.37-8.97,38.95,12.48,41,63.15,33.89,73.95Z"/><polygon class="ag" points="1756.09 1043.99 1751.07 1048.8 1792.43 1055.08 1778.47 1059.9 1790.31 1066.05 1741.83 1067.32 1769.02 1074.9 1697.56 1071.22 1742.84 1081.61 1728.93 1084.15 1758.1 1093.93 1719.36 1091.39 1755.28 1103.6 1757.05 1109.16 1777.91 1119.69 1782.42 1126.6 1755.46 1124.51 1701.53 1112.99 1732.83 1127.74 1780.51 1149.58 1689.58 1121.7 1672.61 1119.28 1746.99 1154.09 1728.83 1151.78 1716.36 1151.38 1756.65 1175.8 1702.89 1154.94 1704.93 1161 1740.37 1185.53 1750.06 1197.13 1663.77 1152.25 1667.67 1159.12 1658.85 1158.09 1680.33 1177 1723.4 1212.17 1681.34 1188.28 1698.97 1207 1652.42 1176.94 1714.07 1231.67 1688.57 1217.29 1686.49 1221.86 1702.58 1242.85 1680.06 1229.12 1657.6 1214.19 1681.99 1244.77 1632.39 1200.67 1668.21 1244.84 1638.05 1218.61 1619.07 1203.12 1675.36 1276.27 1650.16 1253.63 1610.71 1210.75 1669.44 1295.36 1627.51 1246.89 1632.11 1261.31 1603.76 1227.45 1624.81 1267.43 1620.48 1269.44 1602.13 1247.83 1600.24 1253.05 1615.4 1289.7 1582.58 1237.84 1573.42 1228.28 1595.32 1282.47 1586.41 1274.34 1591.32 1296.91 1560.29 1234.94 1586.18 1310.74 1567.53 1275.4 1571.36 1299.48 1578.11 1335.12 1560.26 1296.39 1567.64 1338.34 1545.8 1279.33 1555.34 1334.48 1550.81 1338.58 1547 1346.53 1524.8 1262.84 1526.49 1294.82 1516.14 1259.08 1516.43 1288.66 1516.03 1321.21 1512.11 1331.56 1501.45 1269.44 1499.6 1300.71 1492.57 1254.74 1491.36 1327.92 1486.53 1341.75 1481.22 1278.89 1477.15 1271.21 1473.64 1255.25 1466.97 1309.85 1460.45 1334.79 1458.05 1302.83 1449.56 1338.85 1442.34 1353.97 1440.76 1325.53 1431.49 1351.22 1427.65 1341.09 1437.5 1263.54 1426.2 1296.87 1418.65 1308.79 1415.48 1301.55 1409.23 1306.38 1409.7 1287.53 1410.79 1268.86 1400.85 1285.43 1391.52 1298.22 1382.82 1307.79 1364.88 1339.62 1362.73 1329.98 1392.4 1248.09 1352.59 1325.56 1343.95 1330.8 1381.81 1242.64 1345.08 1304.19 1360.9 1264.35 1330.05 1309.37 1320.05 1315.52 1341.74 1269.78 1343.9 1257.68 1328.62 1272.35 1355.66 1224.89 1334.82 1247.02 1327.73 1249.03 1296.15 1282.18 1309.17 1257.47 1286.05 1277.48 1317.99 1232.37 1302.75 1242.67 1321.34 1215.72 1322.66 1208.31 1325.65 1199.55 1315.46 1203.92 1278.58 1232.65 1325.18 1184.13 1263.21 1232.9 1257.28 1231.15 1302.34 1188.1 1285.16 1196.27 1286.89 1189.44 1302.13 1173.08 1232.68 1216.59 1244.2 1202.37 1264.6 1183.19 1294.71 1159.14 1235.97 1189.52 1267.05 1165.92 1246.94 1171.91 1285.3 1146.42 1261.14 1154.13 1203.28 1176.99 1261.77 1144.19 1253.39 1143.15 1215.84 1153.92 1251.68 1134.29 1276.47 1120.35 1236.37 1130.37 1189.67 1141.02 1236.23 1120.7 1223.48 1119.67 1206.94 1119.22 1278 1095.9 1230.27 1103.3 1210.35 1102.9 1169.53 1105.93 1242.1 1087.16 1184.88 1091.97 1182.05 1086.96 1177.24 1082.12 1188.37 1075.44 1238.07 1065.77 1241.97 1061.13 1207.12 1058.67 1235.6 1052.77 1194.26 1049.1 1238.78 1043.99 1247.41 1039.8 1271.49 1036.46 1199.95 1028.92 1201.46 1023.99 1213.72 1020.05 1258.01 1019.94 1257.31 1015.81 1192.94 1002.56 1274.41 1010.4 1189.94 991.46 1273.39 1002.58 1259.43 995.69 1275.64 995.35 1238.17 981.93 1228.93 974.76 1199.09 961.15 1230.31 965.41 1204.71 951.95 1209.73 948.2 1261.22 961.92 1209.11 936.9 1283.08 961.93 1237.6 937.93 1255.97 941.12 1231.39 924.44 1246.74 926.61 1232.69 913.96 1298.69 944.37 1227.59 899.52 1224.58 891.67 1225.32 885.86 1273.65 910.6 1268.01 901.52 1252.59 885.22 1263.15 886.72 1264.37 881.64 1300 903.23 1233.93 844.65 1297.9 890.79 1319.11 903.53 1326.53 905.05 1320.27 894.14 1311.4 880.11 1326.81 889.56 1286.23 841.9 1329.39 880.89 1309.9 853.24 1335.09 875.31 1348.64 885.28 1300.2 819.36 1289.79 797.59 1333.54 846.67 1303.04 796.93 1324.93 818.88 1342.55 836.41 1344.2 830.74 1320.46 783.78 1345.33 814.94 1340.98 797.72 1329.81 766.77 1366.38 824.39 1343.93 769.77 1375.94 823.89 1350.86 758.59 1367.2 782.05 1371.45 778.97 1404.11 847.96 1404.04 837.02 1388.87 782.2 1393.11 779.23 1391.95 758.86 1416.92 825.05 1406.35 771 1422.4 813.59 1409.56 740.56 1428.4 801.23 1423.88 755.56 1435.32 789.61 1440.56 793.11 1446.27 801.09 1453.17 821.01 1458.17 830.17 1460.96 818.07 1464.13 805.41 1470.14 838.16 1470.3 737.49 1476.92 803.3 1481.22 764.39 1485.77 789.79 1491.92 744.01 1497.9 732.26 1500.87 769.18 1506.1 765.93 1509.47 781.34 1509.3 820.93 1526.38 729.49 1530.69 738.46 1523.28 811.11 1528.6 805.99 1530.54 817.46 1547.43 763.79 1540.6 811.48 1564.92 738.83 1555.87 789.8 1550.85 821.69 1567.31 785.37 1554.24 837.04 1572.45 799.43 1568.52 822.12 1599.9 757.56 1572.28 834.77 1591.52 802.5 1610.41 774.06 1611.15 784.5 1616.7 785.07 1605.2 816.94 1600.44 834.6 1598.41 846.43 1640.64 786 1606.56 848.92 1657.93 779.62 1604.81 865.92 1606.28 870.5 1638.9 833.37 1618.75 866.92 1677.2 800.86 1681.41 804.51 1683.83 810.22 1685.17 816.97 1630.55 883.6 1681.5 836.45 1688.87 836.35 1695.27 837.46 1663.52 874.28 1688.59 857.72 1722.04 835.3 1715.68 848.03 1654.2 904.63 1653.45 910.25 1736.49 852.86 1694.82 889.98 1684.12 903.14 1670.29 917.71 1691.08 909.15 1725.32 893.19 1693.72 917.93 1663.94 940.01 1690.99 929.48 1693.11 933.18 1680.6 944.23 1690.09 944.09 1760.91 916.24 1684.27 955.63 1762.47 927.48 1773.46 928.99 1694.92 964.29 1776.79 939.72 1746.19 955.8 1772.12 952.92 1755.03 963.6 1711.88 980.7 1772.5 969.67 1762.92 977.44 1759.55 983.46 1750.95 990.34 1749.21 995.64 1726.34 1004.24 1693.4 1013.42 1756.69 1009.4 1784.32 1011.45 1719.53 1022.63 1738.79 1025.56 1700.59 1032.19 1797.93 1032.71 1742.31 1039.32 1756.09 1043.99"/><polygon class="z" points="1756.09 1043.99 1751.07 1048.8 1792.43 1055.08 1778.47 1059.9 1790.31 1066.05 1741.83 1067.32 1769.02 1074.9 1697.56 1071.22 1742.84 1081.61 1728.93 1084.15 1758.1 1093.93 1719.36 1091.39 1755.28 1103.6 1757.05 1109.16 1777.91 1119.69 1782.42 1126.6 1755.46 1124.51 1701.53 1112.99 1732.83 1127.74 1780.51 1149.58 1689.58 1121.7 1672.61 1119.28 1746.99 1154.09 1728.83 1151.78 1716.36 1151.38 1756.65 1175.8 1702.89 1154.94 1704.93 1161 1740.37 1185.53 1750.06 1197.13 1663.77 1152.25 1667.67 1159.12 1658.85 1158.09 1680.33 1177 1723.4 1212.17 1681.34 1188.28 1698.97 1207 1652.42 1176.94 1714.07 1231.67 1688.57 1217.29 1686.49 1221.86 1702.58 1242.85 1680.06 1229.12 1657.6 1214.19 1681.99 1244.77 1632.39 1200.67 1668.21 1244.84 1638.05 1218.61 1619.07 1203.12 1675.36 1276.27 1650.16 1253.63 1610.71 1210.75 1669.44 1295.36 1627.51 1246.89 1632.11 1261.31 1603.76 1227.45 1624.81 1267.43 1620.48 1269.44 1602.13 1247.83 1600.24 1253.05 1615.4 1289.7 1582.58 1237.84 1573.42 1228.28 1595.32 1282.47 1586.41 1274.34 1591.32 1296.91 1560.29 1234.94 1586.18 1310.74 1567.53 1275.4 1571.36 1299.48 1578.11 1335.12 1560.26 1296.39 1567.64 1338.34 1545.8 1279.33 1555.34 1334.48 1550.81 1338.58 1547 1346.53 1524.8 1262.84 1526.49 1294.82 1516.14 1259.08 1516.43 1288.66 1516.03 1321.21 1512.11 1331.56 1501.45 1269.44 1499.6 1300.71 1492.57 1254.74 1491.36 1327.92 1486.53 1341.75 1481.22 1278.89 1477.15 1271.21 1473.64 1255.25 1466.97 1309.85 1460.45 1334.79 1458.05 1302.83 1449.56 1338.85 1442.34 1353.97 1440.76 1325.53 1431.49 1351.22 1427.65 1341.09 1437.5 1263.54 1426.2 1296.87 1418.65 1308.79 1415.48 1301.55 1409.23 1306.38 1409.7 1287.53 1410.79 1268.86 1400.85 1285.43 1391.52 1298.22 1382.82 1307.79 1364.88 1339.62 1362.73 1329.98 1392.4 1248.09 1352.59 1325.56 1343.95 1330.8 1381.81 1242.64 1345.08 1304.19 1360.9 1264.35 1330.05 1309.37 1320.05 1315.52 1341.74 1269.78 1343.9 1257.68 1328.62 1272.35 1355.66 1224.89 1334.82 1247.02 1327.73 1249.03 1296.15 1282.18 1309.17 1257.47 1286.05 1277.48 1317.99 1232.37 1302.75 1242.67 1321.34 1215.72 1322.66 1208.31 1325.65 1199.55 1315.46 1203.92 1278.58 1232.65 1325.18 1184.13 1263.21 1232.9 1257.28 1231.15 1302.34 1188.1 1285.16 1196.27 1286.89 1189.44 1302.13 1173.08 1232.68 1216.59 1244.2 1202.37 1264.6 1183.19 1294.71 1159.14 1235.97 1189.52 1267.05 1165.92 1246.94 1171.91 1285.3 1146.42 1261.14 1154.13 1203.28 1176.99 1261.77 1144.19 1253.39 1143.15 1215.84 1153.92 1251.68 1134.29 1276.47 1120.35 1236.37 1130.37 1189.67 1141.02 1236.23 1120.7 1223.48 1119.67 1206.94 1119.22 1278 1095.9 1230.27 1103.3 1210.35 1102.9 1169.53 1105.93 1242.1 1087.16 1184.88 1091.97 1182.05 1086.96 1177.24 1082.12 1188.37 1075.44 1238.07 1065.77 1241.97 1061.13 1207.12 1058.67 1235.6 1052.77 1194.26 1049.1 1238.78 1043.99 1247.41 1039.8 1271.49 1036.46 1199.95 1028.92 1201.46 1023.99 1213.72 1020.05 1258.01 1019.94 1257.31 1015.81 1192.94 1002.56 1274.41 1010.4 1189.94 991.46 1273.39 1002.58 1259.43 995.69 1275.64 995.35 1238.17 981.93 1228.93 974.76 1199.09 961.15 1230.31 965.41 1204.71 951.95 1209.73 948.2 1261.22 961.92 1209.11 936.9 1283.08 961.93 1237.6 937.93 1255.97 941.12 1231.39 924.44 1246.74 926.61 1232.69 913.96 1298.69 944.37 1227.59 899.52 1224.58 891.67 1225.32 885.86 1273.65 910.6 1268.01 901.52 1252.59 885.22 1263.15 886.72 1264.37 881.64 1300 903.23 1233.93 844.65 1297.9 890.79 1319.11 903.53 1326.53 905.05 1320.27 894.14 1311.4 880.11 1326.81 889.56 1286.23 841.9 1329.39 880.89 1309.9 853.24 1335.09 875.31 1348.64 885.28 1300.2 819.36 1289.79 797.59 1333.54 846.67 1303.04 796.93 1324.93 818.88 1342.55 836.41 1344.2 830.74 1320.46 783.78 1345.33 814.94 1340.98 797.72 1329.81 766.77 1366.38 824.39 1343.93 769.77 1375.94 823.89 1350.86 758.59 1367.2 782.05 1371.45 778.97 1404.11 847.96 1404.04 837.02 1388.87 782.2 1393.11 779.23 1391.95 758.86 1416.92 825.05 1406.35 771 1422.4 813.59 1409.56 740.56 1428.4 801.23 1423.88 755.56 1435.32 789.61 1440.56 793.11 1446.27 801.09 1453.17 821.01 1458.17 830.17 1460.96 818.07 1464.13 805.41 1470.14 838.16 1470.3 737.49 1476.92 803.3 1481.22 764.39 1485.77 789.79 1491.92 744.01 1497.9 732.26 1500.87 769.18 1506.1 765.93 1509.47 781.34 1509.3 820.93 1526.38 729.49 1530.69 738.46 1523.28 811.11 1528.6 805.99 1530.54 817.46 1547.43 763.79 1540.6 811.48 1564.92 738.83 1555.87 789.8 1550.85 821.69 1567.31 785.37 1554.24 837.04 1572.45 799.43 1568.52 822.12 1599.9 757.56 1572.28 834.77 1591.52 802.5 1610.41 774.06 1611.15 784.5 1616.7 785.07 1605.2 816.94 1600.44 834.6 1598.41 846.43 1640.64 786 1606.56 848.92 1657.93 779.62 1604.81 865.92 1606.28 870.5 1638.9 833.37 1618.75 866.92 1677.2 800.86 1681.41 804.51 1683.83 810.22 1685.17 816.97 1630.55 883.6 1681.5 836.45 1688.87 836.35 1695.27 837.46 1663.52 874.28 1688.59 857.72 1722.04 835.3 1715.68 848.03 1654.2 904.63 1653.45 910.25 1736.49 852.86 1694.82 889.98 1684.12 903.14 1670.29 917.71 1691.08 909.15 1725.32 893.19 1693.72 917.93 1663.94 940.01 1690.99 929.48 1693.11 933.18 1680.6 944.23 1690.09 944.09 1760.91 916.24 1684.27 955.63 1762.47 927.48 1773.46 928.99 1694.92 964.29 1776.79 939.72 1746.19 955.8 1772.12 952.92 1755.03 963.6 1711.88 980.7 1772.5 969.67 1762.92 977.44 1759.55 983.46 1750.95 990.34 1749.21 995.64 1726.34 1004.24 1693.4 1013.42 1756.69 1009.4 1784.32 1011.45 1719.53 1022.63 1738.79 1025.56 1700.59 1032.19 1797.93 1032.71 1742.31 1039.32 1756.09 1043.99"/><path class="am" d="m1742.37,1145.07s21.96-21.66,56.41,1.41c19.77,13.24,24.06,41.13,13.91,52.3l25.31-25.23c.71-.76,1.17-1.72,1.32-2.75,1.13-7.84,14.39-32.57-15.89-55.85-20.39-15.67-46.09-5.37-50-3.83-.35.14-.66.36-.91.63l-30.13,33.3Z"/><path class="an" d="m1654.74,1263.26s-27.74,31.55,10.84,52.71c38.59,21.15,64.41-12.17,64.41-12.17l30.83-46.8-93.95-5.91-12.14,12.17Z"/><path class="ah" d="m1696.14,1290.53l43.74-37.01-29.67-45.89-55.47,55.63s21.43-16.86,38.25-3.2c14.82,12.04,3.16,30.47,3.16,30.47Z"/><path class="r" d="m1333.76,953.16c-23.09-57.41-78.42-91.99-132.82-85.94-59.29,6.59-90.28,58.42-93.75,64.46"/><path class="r" d="m1333.88,1029.39c-27.98-55.19-86.11-84.84-139.77-74.09-58.5,11.71-84.87,66.04-87.81,72.35"/><path class="r" d="m1344.49,1106.14c-33.49-52.04-94.34-75.57-146.63-59.38-56.99,17.64-77.66,74.38-79.93,80.96"/><path class="r" d="m1379.74,1183.39c-37.66-49.11-100.24-67.56-151.02-47.12-55.34,22.27-71.28,80.52-73,87.26"/><path class="r" d="m1629.48,944.24c23.09-57.41,78.42-91.99,132.82-85.94,59.29,6.59,90.28,58.42,93.75,64.46"/><path class="r" d="m1583.5,1174.47c37.66-49.11,107.61-64,158.39-43.56,55.34,22.27,56.87,70.41,58.6,77.15"/><path class="ao" d="m1626.01,802.76l-12.52,162.32c1.06,12.46-43.14-.22-55.15,3.28-46.21,13.47-5.99,36.86-140.05,22.71-12.22-1.29-80.28,17.2-81.75,5l-55.72-164.23"/><line class="ac" x1="1190.33" y1="1001.02" x2="1210.31" y2="993.34"/><path class="ag" d="m1641.13,1006.41c.09.9,25.21-.63,25.28.27s-5.95,2.09-5.91,2.99,14.33,1.51,14.34,2.41-28,1.59-28.02,2.49,47.75,3.51,47.7,4.41-25.24.75-25.31,1.65-17.71.08-17.81.98,40,6.78,39.88,7.68-32.11-2.62-32.26-1.72-2.44,1.23-2.61,2.11,8.92,3.61,8.72,4.49-17.03-2.32-17.25-1.45,5.59,3.01,5.35,3.88,4.29,2.96,4.02,3.82,30.78,12.14,30.49,13-3.24,1.54-3.55,2.39-4.53.88-4.86,1.72-4.28.76-4.64,1.59-51.28-20.71-51.65-19.89,64.39,32.06,64,32.87-47.62-21.38-48.03-20.57,39.79,23.13,39.36,23.93-34.47-16.82-34.91-16.03,26.99,18.07,26.53,18.85-21.9-11.07-22.38-10.31-4.87-1.08-5.37-.33-11.68-6.03-12.2-5.28,15.57,12.99,15.04,13.72-15.77-9.58-16.31-8.85-6.7-3.39-7.26-2.68,36.58,31.56,36.01,32.26-11.16-6.5-11.74-5.81,6.56,8.45,5.96,9.13-34.58-28.6-35.19-27.93,1.13,2.98.51,3.64,29.67,31.1,29.04,31.75-20.25-17.42-20.89-16.78,3.16,5.83,2.5,6.45,3.55,6.56,2.88,7.17,13.31,17.86,12.64,18.46-34.35-36.22-35.04-35.63,23.28,30.18,22.58,30.76,6.85,11.79,6.14,12.36-26.7-30.23-27.41-29.67-6.67-5.95-7.39-5.41,3.68,7.62,2.95,8.16,6.03,11.32,5.3,11.85-8.01-8.23-8.75-7.71,18.92,31.12,18.17,31.63-37.39-53.08-38.15-52.58,10.98,19.77,10.22,20.25,10.09,19.49,9.32,19.97-13.08-18.11-13.86-17.65,7.79,16.69,7,17.14-4.85-4.79-5.64-4.34,6.83,16.25,6.03,16.69-16.5-26.86-17.3-26.44-2.76-1.83-3.56-1.41,11.75,27.17,10.94,27.57,2.26,9.18,1.45,9.57-12.76-22.44-13.58-22.05,5.05,15.4,4.23,15.77-3.79-3.81-4.62-3.45-15.24-31.12-16.08-30.77-4.1-6.11-4.94-5.77,15.76,43.49,14.92,43.82.02,5.45-.82,5.77-7.48-14.49-8.33-14.18,2.99,13.7,2.13,14-6.47-12.76-7.32-12.46-4.87-8.97-5.73-8.68-.79,3.05-1.65,3.33,10.26,39.17,9.39,39.44-4.5-7.59-5.37-7.34-8.12-21.06-8.99-20.82-8.16-23.07-9.03-22.83,11.43,50.07,10.55,50.3-2.54-1.46-3.41-1.24-14.54-52.17-15.42-51.96,11.8,58.96,10.92,59.16-15.99-64.1-16.87-63.91,6.4,38.58,5.52,38.76-.19,8.82-1.08,9-1.93.28-2.82.44-1.4,3.37-2.29,3.52-8.39-39.62-9.28-39.47-1.01,3.79-1.9,3.92,5.16,48.36,4.26,48.49-2.37-1.93-3.26-1.81-4.07-16.63-4.97-16.52-3.46-14.26-4.36-14.16,1.97,37.83,1.07,37.92-4.6-27.8-5.5-27.72-2.59-9.36-3.49-9.29.25,29.65-.65,29.71-3.87-31.35-4.77-31.3-1.14,12.61-2.04,12.65-1.71,4.24-2.61,4.28-2.85-35.7-3.75-35.67-.68,53.4-1.58,53.42-2.13-7.51-3.04-7.5-1.78-47.2-2.69-47.21-1.75,15.32-2.65,15.31-1.21-18.12-2.11-18.15-3.2,46.84-4.1,46.8-.13-39.25-1.03-39.29-3.65,35.74-4.55,35.69-.16-26.03-1.06-26.09-4.45,34.63-5.35,34.56.28-25.67-.62-25.75-1.54-2.32-2.44-2.41-2.51,6.65-3.41,6.55-1.92.64-2.81.53,2.63-32.9,1.74-33.03-2.5,6.93-3.39,6.8-1.92,2.25-2.81,2.11-9.11,43.91-10,43.76,1.86-21.72.98-21.88-5.08,16.44-5.96,16.27-4.13,9.9-5.01,9.72-1.17-4.74-2.05-4.93,3-22.22,2.13-22.43-2.43,2.18-3.31,1.96-3.85,7.4-4.72,7.18-7.36,19.55-8.23,19.31,1.89-14.8,1.03-15.05,8.6-35.97,7.74-36.23-14.88,42.25-15.74,41.98.87-9.62.01-9.9-1.49-1.95-2.35-2.24-1.39-2.13-2.24-2.44,3.05-13.98,2.21-14.3,5.29-18.71,4.45-19.03-5.69,9.97-6.53,9.63,8.13-23.81,7.3-24.16-10.95,21.73-11.77,21.37-12.32,23.09-13.14,22.72,12.51-31.44,11.69-31.82,6.36-16.6,5.55-17-17.77,32.12-18.57,31.71,14.64-31.77,13.84-32.19-2.4,1.65-3.19,1.21,2.09-6.43,1.31-6.87-29.87,48.29-30.65,47.84,4.61-11.68,3.85-12.15,21.02-36.81,20.26-37.29-2.71,1.86-3.46,1.37-10.62,13.28-11.36,12.77-3.71,2.52-4.45,2-17.18,20.59-17.91,20.05-9.54,8.98-10.25,8.44-1.79-1.56-2.49-2.12.94-4.87.25-5.44.48-4.09-.21-4.67,23.36-29.51,22.69-30.11-24.22,23.84-24.88,23.23,16.61-20.28,15.97-20.91,7.99-10.22,7.35-10.86-2.5.49-3.12-.17-10.14,7.3-10.74,6.63-18.2,13.58-18.79,12.9,22.36-21.37,21.79-22.06-26.49,19.06-27.05,18.35,40.28-33.12,39.74-33.84-3.77,1.48-4.29.75-29.94,19.05-30.45,18.3-8.3,3.03-8.78,2.27,29.59-20.52,29.12-21.29,9.26-6.74,8.81-7.52-16.8,8-17.23,7.21-6.16,1.53-6.56.73-14.27,4.99-14.65,4.17,29.98-15.31,29.62-16.13,7.97-4.37,7.63-5.2-5.64,1.27-5.96.42-57.17,18.54-57.46,17.69,30.77-12.31,30.51-13.17-19.23,3.6-19.47,2.73-8.71-.17-8.93-1.04,50.62-13.57,50.43-14.46-30.69,4.75-30.85,3.86,25.11-5.86,24.97-6.75,2.26-1.44,2.15-2.33-30.34,1.92-30.43,1.02,14.44-2.96,14.38-3.86-46.01.33-46.04-.57,5.65-2.92,5.64-3.82,1-2.67,1.02-3.58-6.12-2.95-6.07-3.85,26.49-.84,26.56-1.74-12.73-3.42-12.64-4.31,25.21.91,25.33.01-10.7-3.48-10.56-4.38,6.99-.73,7.16-1.62-18.29-5.92-18.1-6.8,49.21,9.83,49.43,8.95-40.03-12.18-39.79-13.05,35.54,8.69,35.81,7.83,10.28,2.23,10.56,1.37-63.58-24.17-63.27-25.02,26.46,7.59,26.79,6.75,26.32,9.03,26.67,8.2-26.92-13.56-26.54-14.39,25.84,10.24,26.24,9.42-38.25-21.05-37.84-21.86,13.38,4.56,13.81,3.76,10.96,3.92,11.41,3.14-3.62-4.23-3.15-5,30.2,16.82,30.69,16.05-3.19-3.48-2.7-4.23-51.25-36.94-50.74-37.68,14.19,7.09,14.72,6.36-5.18-6.68-4.64-7.41,20.75,13.25,21.3,12.54-2.84-4.76-2.27-5.46,32.34,24.81,32.92,24.12-39.46-36.37-38.87-37.05,19.49,14.8,20.1,14.13-23.95-25.1-23.33-25.76,2.55-.83,3.18-1.48,35.09,32.25,35.74,31.62,10.34,8.62,10.99,8-23.9-27.86-23.23-28.47-16.17-21.01-15.5-21.61,28.15,28.99,28.83,28.4,6.37,4.96,7.06,4.38-6.17-10.12-5.47-10.69,5.83,4.57,6.54,4.02-15.55-23.14-14.83-23.68,34.1,42.67,34.82,42.13-21.88-32.69-21.14-33.22-1.22-4.97-.48-5.49,18.25,23.65,19,23.15-20.95-34.73-20.2-35.22-.55-4.68.21-5.17,21.51,30.9,22.28,30.42-2.92-7.99-2.14-8.46-11.15-22.62-10.37-23.08,3.43,1.94,4.22,1.49-7.26-17.46-6.47-17.89,18.86,30.86,19.66,30.44,12.19,19.87,12.99,19.46-4.9-13.17-4.09-13.57-4.19-12.5-3.38-12.89,4.48,5.29,5.3,4.91-10.23-26.8-9.41-27.18,21.84,44.66,22.67,44.29.26-3.19,1.09-3.54-7.08-21.25-6.24-21.6,3.76,4.64,4.6,4.31,10.98,23.82,11.82,23.5-14.56-43.39-13.71-43.7,12.23,28.46,13.09,28.16,6.31,13.44,7.17,13.15-20.16-65.21-19.3-65.49,15,39.7,15.86,39.42,9.52,25.11,10.38,24.84-5.69-24.27-4.82-24.52-3.32-17.94-2.45-18.19,3.15,4.36,4.02,4.12,2.62,2.76,3.5,2.53,7.8,23.86,8.68,23.65-1.42-12.61-.54-12.82-3.4-22.59-2.52-22.79,1.62-1.58,2.5-1.77,4.72,13.49,5.61,13.31,5.54,19.29,6.43,19.11-3.89-30.06-3-30.22,2.84,5.37,3.73,5.22,3.53,10.41,4.42,10.27-4.1-38.72-3.2-38.85,2.5,2.61,3.39,2.49,5.86,29,6.75,28.89,2.88,9.14,3.78,9.03-1.53-29.62-.63-29.71,3.51,15.4,4.41,15.31,1.97,1.6,2.87,1.52,3.72,24.35,4.61,24.28,1.83,3.91,2.73,3.85,1.52.03,2.42-.02-.16-35.54.74-35.58,1.62-7.07,2.52-7.11,3.26,49.23,4.16,49.2.32-69.75,1.22-69.77,2.47,53.94,3.37,53.94,1.57,7.03,2.47,7.04,2.4-56.66,3.3-56.65,1.91,8.48,2.81,8.5.69,36.66,1.59,36.7,1.37,5.77,2.27,5.82,1.58.03,2.48.08,2.45-12.52,3.35-12.46,2.57-10.52,3.47-10.45-1.54,37.18-.65,37.26,2.7-12.38,3.6-12.28.78,7.03,1.67,7.13,6.35-38.92,7.25-38.81,2.32-2.8,3.22-2.68-3.5,37.08-2.61,37.21.03,9.59.92,9.73,3.98-14.81,4.87-14.65,9.54-43.21,10.43-43.05,2.94-4.03,3.83-3.85-3.06,25.4-2.17,25.58,6.37-20.22,7.24-20.03-10.58,54.85-9.7,55.05,4.25-11.22,5.12-11-1.81,13.36-.94,13.59,17.7-59.71,18.57-59.47-13.53,55.45-12.66,55.7,12.37-36.2,13.23-35.95,2.17-.36,3.03-.09-7.37,28.91-6.52,29.19-3.93,16.42-3.07,16.71,20.8-54.29,21.65-53.99-1.03,8.92-.19,9.23-16.9,49.28-16.06,49.61,10.25-21.91,11.08-21.58-6.73,20.31-5.9,20.66,20.28-43.17,21.11-42.81,8.73-14.39,9.55-14.02-23.03,54.24-22.22,54.62,10.2-17.68,11.01-17.28,10.28-16.49,11.08-16.09,7.63-10.22,8.43-9.8-18.28,38-17.49,38.43,12.59-19.08,13.37-18.64.87,2.25,1.65,2.7,8.12-9.7,8.89-9.23-7.08,15.05-6.32,15.53-6.39,12.99-5.64,13.49,10.8-13.06,11.54-12.55-18.24,28.93-17.51,29.45,32.29-41.78,33.01-41.25-24.04,35.05-23.33,35.59,32.2-38.29,32.91-37.73-24.68,33.58-23.99,34.15,14.84-14.91,15.52-14.32-22.54,28.17-21.87,28.77,18.34-17.91,19-17.29,23.13-21.36,23.78-20.73-15.76,18.98-15.13,19.61,1.88.82,2.5,1.48-18.07,18.98-17.47,19.65,20.34-15.89,20.93-15.21,24.6-17.91,25.17-17.22-18.22,17.73-17.66,18.43,14.21-8.16,14.75-7.44-3.96,5.81-3.44,6.55,9.76-3.88,10.26-3.14-10.65,9.86-10.16,10.62-30.9,21.34-30.43,22.11,23.49-12.07,23.94-11.28-25.02,15.64-24.59,16.44,20.42-9.06,20.83-8.26-17.98,10.37-17.6,11.18,42.87-17.56,43.23-16.73.67,2.33,1.01,3.17-17.15,8.98-16.83,9.83-32.24,12.99-31.94,13.85,22.35-6.01,22.62-5.15,29.26-6.56,29.51-5.7-36.44,11.51-36.22,12.39,51.89-9.96,52.08-9.08-10.41,4.83-10.25,5.71-57.16,11.53-57.02,12.42,62.92-7.23,63.03-6.33-52.34,7.82-52.25,8.72Z"/><path class="am" d="m1394.32,654.65l-223.5,119.2c-15.16,8.08-12.09,30.66,4.67,34.41l291.1,65.13c13.63,3.05,27.91,1.05,40.18-5.64l220.05-119.94c15.07-8.21,11.83-30.73-4.94-34.36l-293.55-63.54c-11.53-2.5-23.58-.82-33.99,4.73Z"/><path class="ab" d="m1448.59,761.85l-237.42,50.9c-7.54,1.62-14.25,5.92-18.75,12.18-13.07,18.19-29.11,64.57,7.81,172.37l-5.1,59.65,8.44-55.11-1.55,13.5,5.23,50.18-3.68-63.68,13.16,54.39-14.07-57.22,20.22,43.38-15.16-23.81"/><circle class="ak" cx="1372.58" cy="1084.27" r="89.6"/><circle class="ag" cx="1358.97" cy="1075.63" r="72.83"/><ellipse class="ak" cx="1403.95" cy="1050.35" rx="13.57" ry="31.41" transform="translate(-337.08 842.69) rotate(-30)"/><ellipse class="ak" cx="1403.95" cy="1050.35" rx="13.57" ry="31.41" transform="translate(-337.08 842.69) rotate(-30)"/><ellipse class="ak" cx="1416.4" cy="1091.61" rx="7.32" ry="4.88" transform="translate(-371.78 1077.53) rotate(-37.17)"/><path class="ap" d="m1730,1303.8c12.47-19.46,29.17-41.73,47.76-64.42-10.16-.45-6.04-10.16-12.37-23.91-7.71-16.75.66-40.49-6.41-53.8-2.67-5.03-13.96-12.73-15.63-14.65-51.91,51.91-99.61,91.8-99.61,91.8,0,0,24.42-16.6,52.37-8.97,39.46,10.77,41,63.15,33.89,73.95Z"/><circle class="ak" cx="1579.56" cy="1085.63" r="89.03"/><circle class="ag" cx="1565.75" cy="1075.63" r="72.36"/><ellipse class="ak" cx="1610.44" cy="1051.51" rx="13.48" ry="31.21" transform="translate(-310 946.09) rotate(-30)"/><ellipse class="ak" cx="1610.44" cy="1051.51" rx="13.48" ry="31.21" transform="translate(-310 946.09) rotate(-30)"/><ellipse class="ak" cx="1623.48" cy="1091.35" rx="7.32" ry="4.88" transform="translate(-329.56 1202.59) rotate(-37.17)"/><rect class="al" x="737.3" y="692" width="328" height="16"/></g></svg>