<?xml version="1.0" encoding="UTF-8" standalone="no"?><!DOCTYPE svg PUBLIC "-//W3C//DTD SVG 1.1//EN" "http://www.w3.org/Graphics/SVG/1.1/DTD/svg11.dtd"><svg width="100%" height="100%" viewBox="0 0 1066 672" version="1.1" xmlns="http://www.w3.org/2000/svg" xmlns:xlink="http://www.w3.org/1999/xlink" xml:space="preserve" xmlns:serif="http://www.serif.com/" style="fill-rule:evenodd;clip-rule:evenodd;stroke-miterlimit:10;"><path d="M772.211,339.348l57.462,5.298l-74.285,2.697l-3.924,3.792l89.54,10.248l10.293,6.449l-14.267,4.228l-75.854,-3.924l64.261,13.317l7.842,6.615l-14.777,2.88l0.976,5.485l-56.527,-6.894l16.998,8.324l-23.31,-1.25l5.514,5.786l-21.661,-1.924l76.072,27.846l-36.818,-6.645l-7.766,2.192l30.103,16.07l-23.99,-3.924l-48.045,-14.825l85.131,41.268l-59.542,-21.181l-31.632,-10.308l16.856,12.689l31.114,21.004l-51.218,-22.527l59.647,38.447l-52.092,-25.049l56.974,40.051l-10.484,-0.442l20.609,19.987l-48.346,-26.756l28.948,26.666l-35.145,-19.654l5.188,9.925l-46.079,-30.976l66.669,60.793l2.7,9.55l-13.05,-4.212l15.175,21.472l-36.818,-27.441l-9.357,-2.266l28.278,36.312l-53.883,-49.519l40.641,51.777l-15.838,-9.794l-53.761,-56.109l-6.719,-2.188l34.092,49.933l-21.281,-20.348l25.636,42.842l-46.237,-57.39l5.492,15.173l20.319,39.231l6.737,20.269l7.172,22.452l-11.07,-7.861l-28.01,-39.736l26.453,60.452l-24.69,-36.266l2.601,17.07l-27.619,-47.573l11.961,38.314l2.047,18.15l-28.66,-58.115l8.283,34.251l-12.639,-21.273l-11.853,-21.676l22.791,86.15l-1.321,15.286l-35.269,-106.792l2.785,26.367l8.934,56.603l-5.51,-0.404l-18.324,-65.467l1.892,33.531l-0.288,27.51l-14.85,-67.791l-0.688,26.071l-4.024,3.402l-2.255,24.603l-1.59,46.333l-10.518,-91.935l-3.945,2.385l-4.194,-7.039l-3.947,35.82l-5.369,45.427l-4.743,-18.023l-2.19,-54.495l-10.027,83.944l-6.363,8.48l-1.511,-40.219l-3.968,-8.974l-3.25,-11.881l-6.946,13.64l2.35,-41.169l-13.573,46.878l-5.078,-0.593l-11.064,24.749l13.701,-76.434l-2.693,-5.997l-25.566,72.666l-4.111,-5.189l11.651,-52.136l-25.957,60.204l-4.947,-2.825l0.297,-16.05l-0.412,-12.929l-6.996,3.234l-1.013,-10.341l3.521,-19.054l7.105,-24.703l7.401,-23.318l-30.035,46.886l-26.487,36.662l18.562,-42.245l24.599,-48.886l-12.18,11.814l-1.455,-5.265l-18.871,19.993l5.926,-15.989l-13.727,11.197l0.202,-7.703l-35.446,36.827l25.058,-38.31l-32.736,30.793l50.499,-64.179l-31.57,28.167l23.891,-31.445l-2.278,-3.312l-67.798,59.957l19.983,-26.185l-36.08,25.753l42.27,-44.262l-44.95,31.523l21.37,-24.481l-14.638,4.97l-15.011,4.6l24.532,-24.611l45.784,-37.906l-37.468,20.366l30.235,-25.031l-13.287,3.545l-0.193,-4.787l-45.509,21.166l-17.082,3.573l50.877,-32.72l-16.385,3.426l38.732,-23.633l-70.095,27.925l6.301,-8.324l-35.499,9.363l14.794,-11.845l-1.372,-5.119l71.814,-30.918l-73.088,20.244l-27.646,3.174l90.455,-32.473l0.85,-4.368l-52.259,9.221l-6.723,-3.455l-41.481,3.861l93.949,-24.442l-42.393,3.528l-45.276,2.454l79.985,-17.029l-84.389,6.349l97.237,-15.988l-102.143,5.142l65.503,-10.315l-34.372,-2.704l-25.565,-4.219l13.368,-5.794l22.011,-5.32l-36.004,-5.564l90.448,-2.397l-71.607,-7.76l68.023,-0.462l-56.953,-9.092l64.479,1.763l-28.018,-7.432l-49.845,-11.577l45.662,1.937l9.512,-2.891l17.168,-1.054l-28.745,-10.384l25.008,1.154l15.782,-0.281l-20.545,-9.657l-47.021,-18.259l45.369,8.75l2.626,-3.729l27.883,5.231l-2.487,-5.025l-63.897,-29.368l51.785,15.876l-77.931,-38.558l34.955,9.653l-28.068,-19.13l93.107,40.301l-85.203,-49.07l16.751,2.712l69.831,33.664l-4.829,-7.515l-70.228,-48.337l63.21,33.984l-5.008,-8.62l-1.76,-6.748l-20.853,-20.775l-17.516,-19.565l31.231,17.199l-24.15,-25.879l16.479,6.49l1.092,-6.065l21.844,12.438l20.79,12.649l-50.804,-55.279l21.138,12.908l67.494,62.171l-43.02,-51.716l-17.796,-27.216l-1.583,-10.262l2.107,-6.337l10.833,4.279l48.617,53.439l11.86,8.679l-33.294,-52.979l41.509,50.671l-33.682,-57.465l-1.549,-11.941l-1.667,-12.869l16.254,16.446l36.74,53.966l-7.958,-22.88l5.209,0.402l6.845,3.887l-13.547,-38.118l-11.288,-36.648l31.209,57.437l13.758,21.456l-22.273,-67.59l34.061,76.081l-28.862,-93.29l32.344,79.57l-5.803,-32.05l10.929,20.889l-13.788,-66.261l19.202,53.524l-3.526,-34.133l-3.933,-41.79l7.333,7.452l4.135,-8.609l12.404,41.07l5.22,1.447l12.826,63.238l3.312,-4.577l-5.35,-104.321l9.017,46.762l5.692,15.506l4.106,-13.771l4.068,-43.406l5.585,21.792l4.11,62.478l4.939,-23.655l7.693,-59.953l-1.612,102.306l10.679,-77.932l0.284,46.239l12.897,-68.433l-4.633,72.126l0.927,21.342l18.638,-81.714l-10.201,79.523l11.409,-33.828l2.873,7.984l0.459,16.433l25.359,-76.682l6.136,-0.801l-13.787,63.182l25.122,-61.102l-21.842,79.133l26.498,-58.829l-13.693,49.547l29.495,-59.388l-3.061,21.242l-1.391,15.802l-22.284,58.15l5.647,-2.501l35.407,-58.905l-8.184,25.871l-3.7,16.091l32.266,-45.498l6.208,0.366l8.44,-2.905l9.902,-4.64l-47.525,78.494l17.007,-16.404l18.579,-17.121l23.396,-21.874l-17.508,30.608l-19.752,31.362l23.024,-19.95l1.808,5.255l-1.524,8.692l37.943,-32.577l-16.085,23.945l-40.097,45.724l40.162,-31.967l-27.203,31.02l-14.22,17.838l29.925,-20.131l26.405,-15.654l-39.014,36.602l83.984,-57.981l-74.317,60.835l15.211,-5.593l-23.359,20.899l36.753,-19.125l7.528,0.695l52.043,-25.522l-80.659,52.579l91.526,-45.551l-84.542,50.857l34.486,-12.781l-20.341,14.948l-9.566,9.042l-0.209,4.474l72.748,-25.855l8.135,2.564l-13.236,10.793l3.017,4.442l-27.173,14.539l27.87,-3.825l-59.516,22.834l8.165,1.938l54.505,-9.582l35.382,-3.04l-106.065,28.878l34.268,-2.899l25.246,-0.035l14.776,2.55l21.399,2.119l-73.077,14.619l-19.048,6.211l30.219,1.159l79.831,-1.27l-93.389,10.695l86.619,1.063l-39.889,6.324l-35.862,4.92Z" style="fill-rule:nonzero;"/><path d="M772.211,339.348l57.462,5.298l-74.285,2.697l-3.924,3.792l89.54,10.248l10.293,6.449l-14.267,4.228l-75.854,-3.924l64.261,13.317l7.842,6.615l-14.777,2.88l0.976,5.485l-56.527,-6.894l16.998,8.324l-23.31,-1.25l5.514,5.786l-21.661,-1.924l76.072,27.846l-36.818,-6.645l-7.766,2.192l30.103,16.07l-23.99,-3.924l-48.045,-14.825l85.131,41.268l-59.542,-21.181l-31.632,-10.308l16.856,12.689l31.114,21.004l-51.218,-22.527l59.647,38.447l-52.092,-25.049l56.974,40.051l-10.484,-0.442l20.609,19.987l-48.346,-26.756l28.948,26.666l-35.145,-19.654l5.188,9.925l-46.079,-30.976l66.669,60.793l2.7,9.55l-13.05,-4.212l15.175,21.472l-36.818,-27.441l-9.357,-2.266l28.278,36.312l-53.883,-49.519l40.641,51.777l-15.838,-9.794l-53.761,-56.109l-6.719,-2.188l34.092,49.933l-21.281,-20.348l25.636,42.842l-46.237,-57.39l5.492,15.173l20.319,39.231l6.737,20.269l7.172,22.452l-11.07,-7.861l-28.01,-39.736l26.453,60.452l-24.69,-36.266l2.601,17.07l-27.619,-47.573l11.961,38.314l2.047,18.15l-28.66,-58.115l8.283,34.251l-12.639,-21.273l-11.853,-21.676l22.791,86.15l-1.321,15.286l-35.269,-106.792l2.785,26.367l8.934,56.603l-5.51,-0.404l-18.324,-65.467l1.892,33.531l-0.288,27.51l-14.85,-67.791l-0.688,26.071l-4.024,3.402l-2.255,24.603l-1.59,46.333l-10.518,-91.935l-3.945,2.385l-4.194,-7.039l-3.947,35.82l-5.369,45.427l-4.743,-18.023l-2.19,-54.495l-10.027,83.944l-6.363,8.48l-1.511,-40.219l-3.968,-8.974l-3.25,-11.881l-6.946,13.64l2.35,-41.169l-13.573,46.878l-5.078,-0.593l-11.064,24.749l13.701,-76.434l-2.693,-5.997l-25.566,72.666l-4.111,-5.189l11.651,-52.136l-25.957,60.204l-4.947,-2.825l0.297,-16.05l-0.412,-12.929l-6.996,3.234l-1.013,-10.341l3.521,-19.054l7.105,-24.703l7.401,-23.318l-30.035,46.886l-26.487,36.662l18.562,-42.245l24.599,-48.886l-12.18,11.814l-1.455,-5.265l-18.871,19.993l5.926,-15.989l-13.727,11.197l0.202,-7.703l-35.446,36.827l25.058,-38.31l-32.736,30.793l50.499,-64.179l-31.57,28.167l23.891,-31.445l-2.278,-3.312l-67.798,59.957l19.983,-26.185l-36.08,25.753l42.27,-44.262l-44.95,31.523l21.37,-24.481l-14.638,4.97l-15.011,4.6l24.532,-24.611l45.784,-37.906l-37.468,20.366l30.235,-25.031l-13.287,3.545l-0.193,-4.787l-45.509,21.166l-17.082,3.573l50.877,-32.72l-16.385,3.426l38.732,-23.633l-70.095,27.925l6.301,-8.324l-35.499,9.363l14.794,-11.845l-1.372,-5.119l71.814,-30.918l-73.088,20.244l-27.646,3.174l90.455,-32.473l0.85,-4.368l-52.259,9.221l-6.723,-3.455l-41.481,3.861l93.949,-24.442l-42.393,3.528l-45.276,2.454l79.985,-17.029l-84.389,6.349l97.237,-15.988l-102.143,5.142l65.503,-10.315l-34.372,-2.704l-25.565,-4.219l13.368,-5.794l22.011,-5.32l-36.004,-5.564l90.448,-2.397l-71.607,-7.76l68.023,-0.462l-56.953,-9.092l64.479,1.763l-28.018,-7.432l-49.845,-11.577l45.662,1.937l9.512,-2.891l17.168,-1.054l-28.745,-10.384l25.008,1.154l15.782,-0.281l-20.545,-9.657l-47.021,-18.259l45.369,8.75l2.626,-3.729l27.883,5.231l-2.487,-5.025l-63.897,-29.368l51.785,15.876l-77.931,-38.558l34.955,9.653l-28.068,-19.13l93.107,40.301l-85.203,-49.07l16.751,2.712l69.831,33.664l-4.829,-7.515l-70.228,-48.337l63.21,33.984l-5.008,-8.62l-1.76,-6.748l-20.853,-20.775l-17.516,-19.565l31.231,17.199l-24.15,-25.879l16.479,6.49l1.092,-6.065l21.844,12.438l20.79,12.649l-50.804,-55.279l21.138,12.908l67.494,62.171l-43.02,-51.716l-17.796,-27.216l-1.583,-10.262l2.107,-6.337l10.833,4.279l48.617,53.439l11.86,8.679l-33.294,-52.979l41.509,50.671l-33.682,-57.465l-1.549,-11.941l-1.667,-12.869l16.254,16.446l36.74,53.966l-7.958,-22.88l5.209,0.402l6.845,3.887l-13.547,-38.118l-11.288,-36.648l31.209,57.437l13.758,21.456l-22.273,-67.59l34.061,76.081l-28.862,-93.29l32.344,79.57l-5.803,-32.05l10.929,20.889l-13.788,-66.261l19.202,53.524l-3.526,-34.133l-3.933,-41.79l7.333,7.452l4.135,-8.609l12.404,41.07l5.22,1.447l12.826,63.238l3.312,-4.577l-5.35,-104.321l9.017,46.762l5.692,15.506l4.106,-13.771l4.068,-43.406l5.585,21.792l4.11,62.478l4.939,-23.655l7.693,-59.953l-1.612,102.306l10.679,-77.932l0.284,46.239l12.897,-68.433l-4.633,72.126l0.927,21.342l18.638,-81.714l-10.201,79.523l11.409,-33.828l2.873,7.984l0.459,16.433l25.359,-76.682l6.136,-0.801l-13.787,63.182l25.122,-61.102l-21.842,79.133l26.498,-58.829l-13.693,49.547l29.495,-59.388l-3.061,21.242l-1.391,15.802l-22.284,58.15l5.647,-2.501l35.407,-58.905l-8.184,25.871l-3.7,16.091l32.266,-45.498l6.208,0.366l8.44,-2.905l9.902,-4.64l-47.525,78.494l17.007,-16.404l18.579,-17.121l23.396,-21.874l-17.508,30.608l-19.752,31.362l23.024,-19.95l1.808,5.255l-1.524,8.692l37.943,-32.577l-16.085,23.945l-40.097,45.724l40.162,-31.967l-27.203,31.02l-14.22,17.838l29.925,-20.131l26.405,-15.654l-39.014,36.602l83.984,-57.981l-74.317,60.835l15.211,-5.593l-23.359,20.899l36.753,-19.125l7.528,0.695l52.043,-25.522l-80.659,52.579l91.526,-45.551l-84.542,50.857l34.486,-12.781l-20.341,14.948l-9.566,9.042l-0.209,4.474l72.748,-25.855l8.135,2.564l-13.236,10.793l3.017,4.442l-27.173,14.539l27.87,-3.825l-59.516,22.834l8.165,1.938l54.505,-9.582l35.382,-3.04l-106.065,28.878l34.268,-2.899l25.246,-0.035l14.776,2.55l21.399,2.119l-73.077,14.619l-19.048,6.211l30.219,1.159l79.831,-1.27l-93.389,10.695l86.619,1.063l-39.889,6.324l-35.862,4.92Z" style="fill:none;fill-rule:nonzero;stroke:#000;stroke-width:1px;"/><path d="M381.427,246.348c-23.642,-58.789 -80.298,-94.194 -136,-88c-60.711,6.751 -92.441,59.822 -96,66m232.128,100.053c-28.653,-56.516 -88.168,-86.872 -143.122,-75.868c-59.896,11.993 -86.902,67.617 -89.911,74.081m243.9,80.374c-34.292,-53.284 -96.603,-77.383 -150.142,-60.807c-58.353,18.066 -79.518,76.164 -81.849,82.902m268.08,57.01c-38.559,-50.283 -102.64,-69.175 -154.634,-48.252c-56.669,22.804 -72.984,82.446 -74.754,89.353m485.111,-285.984c23.642,-58.789 80.298,-94.194 136,-88c60.711,6.751 92.441,59.822 96,66m-232.128,100.053c28.653,-56.516 88.168,-86.872 143.122,-75.868c59.896,11.993 86.902,67.617 89.911,74.081m-243.9,80.375c34.292,-53.284 96.603,-77.383 150.142,-60.807c58.353,18.066 79.518,76.164 81.849,82.902m-268.08,57.009c38.559,-50.283 102.64,-69.175 154.634,-48.252c56.669,22.804 72.984,82.446 74.754,89.353" style="fill:none;fill-rule:nonzero;stroke:#000;stroke-width:27px;stroke-linecap:round;"/><circle cx="421.177" cy="380.598" r="91.75" style="fill:#fff;"/><circle cx="431.122" cy="381.985" r="74.57"/><path d="M461.096,328.25c6.639,-3.833 19.236,5.538 28.113,20.913c8.876,15.375 10.693,30.969 4.054,34.802c-6.639,3.833 -19.236,-5.537 -28.112,-20.912c-8.877,-15.375 -10.694,-30.97 -4.055,-34.803Z" style="fill:#fff;"/><path d="M461.096,328.25c6.639,-3.833 19.236,5.538 28.113,20.913c8.876,15.375 10.693,30.969 4.054,34.802c-6.639,3.833 -19.236,-5.537 -28.112,-20.912c-8.877,-15.375 -10.694,-30.97 -4.055,-34.803Z" style="fill:#fff;"/><circle cx="633.117" cy="381.985" r="91.158" style="fill:#fff;"/><circle cx="622.854" cy="381.985" r="74.088"/><path d="M652.635,329.611c6.596,-3.808 19.112,5.502 27.932,20.778c8.819,15.276 10.624,30.77 4.028,34.579c-6.597,3.808 -19.113,-5.502 -27.932,-20.778c-8.82,-15.276 -10.625,-30.77 -4.028,-34.579Z" style="fill:#fff;"/><path d="M652.635,329.611c6.596,-3.808 19.112,5.502 27.932,20.778c8.819,15.276 10.624,30.77 4.028,34.579c-6.597,3.808 -19.113,-5.502 -27.932,-20.778c-8.82,-15.276 -10.625,-30.77 -4.028,-34.579Z" style="fill:#fff;"/><path d="M486.906,394.364c3.299,-2.501 7.33,-2.746 8.997,-0.547c1.668,2.199 0.343,6.014 -2.955,8.515c-3.299,2.501 -7.33,2.746 -8.997,0.547c-1.668,-2.199 -0.343,-6.014 2.955,-8.515Z" style="fill:#fff;"/><path d="M678.95,394.102c3.298,-2.501 7.33,-2.746 8.997,-0.547c1.667,2.199 0.343,6.015 -2.955,8.516c-3.299,2.501 -7.33,2.746 -8.998,0.547c-1.667,-2.199 -0.343,-6.015 2.956,-8.516Z" style="fill:#fff;"/></svg>