<svg xmlns="http://www.w3.org/2000/svg" xmlns:xlink="http://www.w3.org/1999/xlink" xmlns:serif="http://www.serif.com/" version="1.1" xml:space="preserve" style="fill-rule:evenodd;clip-rule:evenodd;" viewBox="0 5.61 261.74 202.19"><path d="M0,32.657l0,-23.186c0,-0.512 0.069,-1.005 0.206,-1.479c0.137,-0.473 0.332,-0.891 0.585,-1.253c0.254,-0.363 0.546,-0.642 0.877,-0.838c0.331,-0.196 0.676,-0.294 1.034,-0.294l122.661,-0c0.358,-0 0.703,0.098 1.034,0.294c0.331,0.196 0.623,0.475 0.876,0.838c0.254,0.362 0.449,0.78 0.586,1.253c0.137,0.474 0.206,0.967 0.206,1.479l-0,23.186c-0,0.512 -0.069,1.005 -0.206,1.478c-0.137,0.474 -0.332,0.892 -0.586,1.254c-0.253,0.362 -0.545,0.642 -0.876,0.838c-0.331,0.196 -0.676,0.294 -1.034,0.294l-122.661,-0c-0.358,-0 -0.703,-0.098 -1.034,-0.294c-0.331,-0.196 -0.623,-0.476 -0.877,-0.838c-0.253,-0.362 -0.448,-0.78 -0.585,-1.254c-0.137,-0.473 -0.206,-0.966 -0.206,-1.478" style="fill:#3f3351;fill-rule:nonzero;"/><path d="M115.67,19.518l3.091,3.091l3.864,-3.091" style="fill:none;fill-rule:nonzero;stroke:#fff;stroke-width:1.55px;"/><path d="M11.782,25.773c-0.651,-0 -1.253,-0.109 -1.806,-0.328c-0.552,-0.218 -1.032,-0.525 -1.44,-0.921c-0.408,-0.396 -0.723,-0.859 -0.946,-1.391c-0.223,-0.532 -0.334,-1.115 -0.334,-1.75c-0,-0.635 0.111,-1.218 0.334,-1.75c0.223,-0.531 0.54,-0.995 0.952,-1.391c0.413,-0.395 0.893,-0.702 1.441,-0.921c0.548,-0.219 1.152,-0.328 1.811,-0.328c0.627,-0 1.208,0.099 1.744,0.297c0.536,0.198 0.993,0.495 1.372,0.891l-0.395,0.42c-0.38,-0.371 -0.794,-0.635 -1.243,-0.792c-0.45,-0.156 -0.938,-0.235 -1.466,-0.235c-0.56,-0 -1.079,0.095 -1.557,0.285c-0.478,0.189 -0.895,0.457 -1.249,0.804c-0.355,0.346 -0.629,0.75 -0.823,1.211c-0.193,0.462 -0.29,0.965 -0.29,1.509c-0,0.544 0.097,1.047 0.29,1.508c0.194,0.462 0.468,0.866 0.823,1.213c0.354,0.346 0.771,0.614 1.249,0.803c0.478,0.19 0.997,0.284 1.557,0.284c0.512,-0 0.996,-0.078 1.454,-0.234c0.457,-0.157 0.875,-0.417 1.255,-0.779l0.358,0.482c-0.387,0.371 -0.851,0.649 -1.391,0.835c-0.54,0.185 -1.106,0.278 -1.7,0.278Zm2.485,-1.175l-0,-3.178l0.606,-0l-0,3.24l-0.606,-0.062" style="fill:#fff;fill-rule:nonzero;"/><path d="M20.108,25.761c-0.651,-0 -1.226,-0.141 -1.725,-0.421c-0.498,-0.28 -0.89,-0.668 -1.175,-1.162c-0.284,-0.495 -0.426,-1.06 -0.426,-1.694c-0,-0.643 0.134,-1.21 0.402,-1.701c0.268,-0.49 0.637,-0.876 1.106,-1.156c0.47,-0.28 0.998,-0.42 1.583,-0.42c0.585,-0 1.111,0.136 1.577,0.408c0.466,0.272 0.833,0.653 1.101,1.144c0.267,0.49 0.401,1.057 0.401,1.7c-0,0.025 -0.002,0.051 -0.006,0.08c-0.004,0.029 -0.006,0.06 -0.006,0.093l-5.701,-0l-0,-0.482l5.367,-0l-0.247,0.235c0.008,-0.503 -0.097,-0.954 -0.315,-1.354c-0.219,-0.4 -0.514,-0.713 -0.885,-0.94c-0.37,-0.227 -0.799,-0.34 -1.286,-0.34c-0.478,-0 -0.904,0.113 -1.279,0.34c-0.375,0.227 -0.67,0.54 -0.885,0.94c-0.214,0.4 -0.321,0.855 -0.321,1.366l-0,0.111c-0,0.528 0.117,0.996 0.352,1.404c0.235,0.408 0.559,0.725 0.971,0.952c0.412,0.227 0.882,0.34 1.41,0.34c0.412,-0 0.797,-0.074 1.156,-0.223c0.358,-0.148 0.662,-0.375 0.909,-0.68l0.358,0.408c-0.28,0.347 -0.632,0.608 -1.057,0.786c-0.425,0.177 -0.884,0.266 -1.379,0.266" style="fill:#fff;fill-rule:nonzero;"/><path d="M27.94,19.207c0.527,-0 0.987,0.101 1.379,0.303c0.391,0.202 0.696,0.506 0.915,0.915c0.218,0.408 0.328,0.913 0.328,1.515l-0,3.771l-0.619,-0l-0,-3.722c-0,-0.726 -0.183,-1.278 -0.55,-1.657c-0.367,-0.379 -0.88,-0.569 -1.54,-0.569c-0.502,-0 -0.939,0.103 -1.31,0.309c-0.371,0.207 -0.654,0.495 -0.847,0.866c-0.194,0.371 -0.291,0.816 -0.291,1.335l-0,3.438l-0.618,-0l-0,-6.455l0.593,-0l-0,1.793l-0.086,-0.198c0.198,-0.511 0.523,-0.913 0.977,-1.205c0.453,-0.293 1.009,-0.439 1.669,-0.439" style="fill:#fff;fill-rule:nonzero;"/><path d="M35.808,25.761c-0.651,-0 -1.226,-0.141 -1.725,-0.421c-0.498,-0.28 -0.89,-0.668 -1.175,-1.162c-0.284,-0.495 -0.426,-1.06 -0.426,-1.694c-0,-0.643 0.134,-1.21 0.402,-1.701c0.268,-0.49 0.637,-0.876 1.106,-1.156c0.47,-0.28 0.998,-0.42 1.583,-0.42c0.585,-0 1.111,0.136 1.577,0.408c0.466,0.272 0.833,0.653 1.101,1.144c0.267,0.49 0.401,1.057 0.401,1.7c-0,0.025 -0.002,0.051 -0.006,0.08c-0.004,0.029 -0.006,0.06 -0.006,0.093l-5.701,-0l-0,-0.482l5.367,-0l-0.247,0.235c0.008,-0.503 -0.097,-0.954 -0.315,-1.354c-0.219,-0.4 -0.514,-0.713 -0.885,-0.94c-0.37,-0.227 -0.799,-0.34 -1.286,-0.34c-0.478,-0 -0.904,0.113 -1.279,0.34c-0.375,0.227 -0.67,0.54 -0.885,0.94c-0.214,0.4 -0.321,0.855 -0.321,1.366l-0,0.111c-0,0.528 0.117,0.996 0.352,1.404c0.235,0.408 0.559,0.725 0.971,0.952c0.412,0.227 0.882,0.34 1.41,0.34c0.412,-0 0.797,-0.074 1.156,-0.223c0.358,-0.148 0.662,-0.375 0.909,-0.68l0.358,0.408c-0.28,0.347 -0.632,0.608 -1.057,0.786c-0.425,0.177 -0.884,0.266 -1.379,0.266" style="fill:#fff;fill-rule:nonzero;"/><path d="M40.487,25.711l-0,-6.455l0.593,-0l-0,1.768l-0.061,-0.197c0.181,-0.52 0.486,-0.92 0.914,-1.2c0.429,-0.28 0.965,-0.42 1.608,-0.42l-0,0.606c-0.025,-0 -0.049,-0.002 -0.074,-0.007c-0.025,-0.004 -0.05,-0.006 -0.074,-0.006c-0.717,-0 -1.278,0.225 -1.682,0.674c-0.404,0.449 -0.606,1.074 -0.606,1.874l-0,3.363l-0.618,-0" style="fill:#fff;fill-rule:nonzero;"/><path d="M47.709,25.761c-0.618,-0 -1.168,-0.141 -1.651,-0.421c-0.482,-0.28 -0.863,-0.668 -1.143,-1.162c-0.28,-0.495 -0.421,-1.06 -0.421,-1.694c-0.008,-0.643 0.13,-1.21 0.414,-1.701c0.285,-0.49 0.668,-0.876 1.15,-1.156c0.483,-0.28 1.033,-0.42 1.651,-0.42c0.619,-0 1.171,0.14 1.657,0.42c0.487,0.28 0.868,0.666 1.144,1.156c0.276,0.491 0.414,1.058 0.414,1.701c0.009,0.634 -0.127,1.199 -0.408,1.694c-0.28,0.494 -0.665,0.882 -1.156,1.162c-0.49,0.28 -1.041,0.421 -1.651,0.421Zm-0,-0.557c0.495,-0 0.94,-0.113 1.336,-0.34c0.395,-0.227 0.705,-0.546 0.927,-0.958c0.223,-0.413 0.338,-0.886 0.347,-1.422c-0.009,-0.544 -0.124,-1.021 -0.347,-1.428c-0.222,-0.409 -0.532,-0.726 -0.927,-0.953c-0.396,-0.226 -0.841,-0.344 -1.336,-0.352c-0.494,0.008 -0.937,0.126 -1.329,0.352c-0.391,0.227 -0.7,0.544 -0.927,0.953c-0.227,0.407 -0.345,0.884 -0.353,1.428c0.008,0.536 0.126,1.009 0.353,1.422c0.227,0.412 0.534,0.733 0.921,0.964c0.387,0.231 0.832,0.342 1.335,0.334" style="fill:#fff;fill-rule:nonzero;"/><path d="M54.319,25.711l-2.906,-6.455l0.656,-0l2.72,6.109l-0.297,-0l2.745,-6.109l0.631,-0l-2.918,6.455l-0.631,-0" style="fill:#fff;fill-rule:nonzero;"/><path d="M63.155,25.711l-0,-1.471l-0.025,-0.223l-0,-2.424c-0,-0.602 -0.163,-1.059 -0.488,-1.372c-0.326,-0.314 -0.802,-0.47 -1.428,-0.47c-0.445,-0 -0.86,0.076 -1.243,0.229c-0.383,0.152 -0.711,0.348 -0.983,0.587l-0.309,-0.445c0.321,-0.289 0.709,-0.513 1.162,-0.674c0.453,-0.161 0.928,-0.241 1.422,-0.241c0.8,-0 1.414,0.202 1.843,0.606c0.428,0.403 0.643,1.005 0.643,1.805l-0,4.093l-0.594,-0Zm-2.325,0.05c-0.478,-0 -0.892,-0.077 -1.242,-0.229c-0.351,-0.153 -0.619,-0.369 -0.804,-0.65c-0.186,-0.28 -0.278,-0.601 -0.278,-0.964c-0,-0.33 0.076,-0.628 0.228,-0.896c0.153,-0.268 0.406,-0.487 0.761,-0.656c0.354,-0.169 0.828,-0.253 1.422,-0.253l2.374,-0l-0,0.482l-2.362,-0c-0.667,-0 -1.135,0.123 -1.403,0.371c-0.268,0.247 -0.402,0.556 -0.402,0.927c-0,0.413 0.157,0.742 0.47,0.989c0.313,0.248 0.754,0.372 1.323,0.372c0.544,-0 1.004,-0.124 1.379,-0.372c0.375,-0.247 0.653,-0.605 0.834,-1.075l0.173,0.42c-0.173,0.47 -0.467,0.843 -0.884,1.119c-0.416,0.276 -0.946,0.415 -1.589,0.415" style="fill:#fff;fill-rule:nonzero;"/><path d="M68.166,25.761c-0.569,-0 -1.003,-0.157 -1.304,-0.47c-0.301,-0.314 -0.452,-0.743 -0.452,-1.287l-0,-6.157l0.619,-0l-0,6.096c-0,0.412 0.103,0.729 0.309,0.952c0.206,0.222 0.503,0.334 0.89,0.334c0.404,-0 0.738,-0.12 1.002,-0.359l0.259,0.433c-0.165,0.156 -0.364,0.272 -0.599,0.346c-0.235,0.074 -0.476,0.112 -0.724,0.112Zm-2.943,-5.973l-0,-0.532l3.858,-0l-0,0.532l-3.858,-0" style="fill:#fff;fill-rule:nonzero;"/><path d="M76.266,25.761c-0.569,-0 -1.003,-0.157 -1.304,-0.47c-0.301,-0.314 -0.452,-0.743 -0.452,-1.287l-0,-6.157l0.619,-0l-0,6.096c-0,0.412 0.103,0.729 0.309,0.952c0.206,0.222 0.503,0.334 0.89,0.334c0.404,-0 0.738,-0.12 1.002,-0.359l0.259,0.433c-0.165,0.156 -0.364,0.272 -0.599,0.346c-0.235,0.074 -0.476,0.112 -0.724,0.112Zm-2.943,-5.973l-0,-0.532l3.858,-0l-0,0.532l-3.858,-0" style="fill:#fff;fill-rule:nonzero;"/><path d="M81.608,25.761c-0.651,-0 -1.226,-0.141 -1.725,-0.421c-0.498,-0.28 -0.89,-0.668 -1.175,-1.162c-0.284,-0.495 -0.426,-1.06 -0.426,-1.694c-0,-0.643 0.134,-1.21 0.402,-1.701c0.268,-0.49 0.637,-0.876 1.106,-1.156c0.47,-0.28 0.998,-0.42 1.583,-0.42c0.585,-0 1.111,0.136 1.577,0.408c0.466,0.272 0.833,0.653 1.101,1.144c0.267,0.49 0.401,1.057 0.401,1.7c-0,0.025 -0.002,0.051 -0.006,0.08c-0.004,0.029 -0.006,0.06 -0.006,0.093l-5.701,-0l-0,-0.482l5.367,-0l-0.247,0.235c0.008,-0.503 -0.097,-0.954 -0.315,-1.354c-0.219,-0.4 -0.514,-0.713 -0.885,-0.94c-0.37,-0.227 -0.799,-0.34 -1.286,-0.34c-0.478,-0 -0.904,0.113 -1.279,0.34c-0.375,0.227 -0.67,0.54 -0.885,0.94c-0.214,0.4 -0.321,0.855 -0.321,1.366l-0,0.111c-0,0.528 0.117,0.996 0.352,1.404c0.235,0.408 0.559,0.725 0.971,0.952c0.412,0.227 0.882,0.34 1.41,0.34c0.412,-0 0.797,-0.074 1.156,-0.223c0.358,-0.148 0.662,-0.375 0.909,-0.68l0.358,0.408c-0.28,0.347 -0.632,0.608 -1.057,0.786c-0.425,0.177 -0.884,0.266 -1.379,0.266" style="fill:#fff;fill-rule:nonzero;"/><path d="M85.16,25.711l2.684,-3.487l-0.013,0.297l-2.535,-3.265l0.705,-0l2.214,2.857l-0.26,-0l2.201,-2.857l0.693,-0l-2.56,3.302l0.012,-0.334l2.721,3.487l-0.73,-0l-2.337,-3.042l0.235,0.025l-2.325,3.017l-0.705,-0" style="fill:#fff;fill-rule:nonzero;"/><path d="M94.566,25.761c-0.569,-0 -1.003,-0.157 -1.304,-0.47c-0.301,-0.314 -0.452,-0.743 -0.452,-1.287l-0,-6.157l0.619,-0l-0,6.096c-0,0.412 0.103,0.729 0.309,0.952c0.206,0.222 0.503,0.334 0.89,0.334c0.404,-0 0.738,-0.12 1.002,-0.359l0.259,0.433c-0.165,0.156 -0.364,0.272 -0.599,0.346c-0.235,0.074 -0.476,0.112 -0.724,0.112Zm-2.943,-5.973l-0,-0.532l3.858,-0l-0,0.532l-3.858,-0" style="fill:#fff;fill-rule:nonzero;"/><g opacity="0.7"><path d="M132.672,32.657l0,-23.186c0,-0.512 0.098,-1.005 0.294,-1.479c0.196,-0.473 0.476,-0.891 0.838,-1.253c0.362,-0.363 0.78,-0.642 1.254,-0.838c0.473,-0.196 0.966,-0.294 1.478,-0.294l85.786,-0c0.513,-0 1.005,0.098 1.479,0.294c0.473,0.196 0.891,0.475 1.253,0.838c0.363,0.362 0.642,0.78 0.838,1.253c0.196,0.474 0.294,0.967 0.294,1.479l0,23.186c0,0.512 -0.098,1.005 -0.294,1.478c-0.196,0.474 -0.475,0.892 -0.838,1.254c-0.362,0.362 -0.78,0.642 -1.253,0.838c-0.474,0.196 -0.966,0.294 -1.479,0.294l-85.786,-0c-0.512,-0 -1.005,-0.098 -1.478,-0.294c-0.474,-0.196 -0.892,-0.476 -1.254,-0.838c-0.362,-0.362 -0.642,-0.78 -0.838,-1.254c-0.196,-0.473 -0.294,-0.966 -0.294,-1.478" style="fill:#3f3351;fill-rule:nonzero;"/><path d="M213.821,19.518l3.091,3.091l3.864,-3.091" style="fill:none;fill-rule:nonzero;stroke:#fff;stroke-width:1.55px;"/></g><g opacity="0.7"><g><path d="M230.823,32.657l0,-23.186c0,-0.512 0.098,-1.005 0.294,-1.479c0.196,-0.473 0.476,-0.891 0.838,-1.253c0.362,-0.363 0.78,-0.642 1.254,-0.838c0.473,-0.196 0.966,-0.294 1.479,-0.294l23.185,-0c0.512,-0 1.005,0.098 1.479,0.294c0.473,0.196 0.891,0.475 1.253,0.838c0.363,0.362 0.642,0.78 0.838,1.253c0.196,0.474 0.294,0.967 0.294,1.479l0,23.186c0,0.512 -0.098,1.005 -0.294,1.478c-0.196,0.474 -0.475,0.892 -0.838,1.254c-0.362,0.362 -0.78,0.642 -1.253,0.838c-0.474,0.196 -0.967,0.294 -1.479,0.294l-23.185,-0c-0.513,-0 -1.006,-0.098 -1.479,-0.294c-0.474,-0.196 -0.892,-0.476 -1.254,-0.838c-0.362,-0.362 -0.642,-0.78 -0.838,-1.254c-0.196,-0.473 -0.294,-0.966 -0.294,-1.478" style="fill:#3f3351;fill-rule:nonzero;"/><g><clipPath id="_clip1"><rect x="236.233" y="11.79" width="19.321" height="19.321"/></clipPath><g clip-path="url(#_clip1)"><path d="M245.894,13.092l0,16.716" style="fill:none;fill-rule:nonzero;stroke:#fff;stroke-width:2.61px;stroke-linecap:round;stroke-miterlimit:10;"/><path d="M254.252,21.45l-16.716,-0" style="fill:none;fill-rule:nonzero;stroke:#fff;stroke-width:2.61px;stroke-linecap:round;stroke-miterlimit:10;"/></g></g></g></g><g><path d="M9.844,206.623c-0.659,-0 -1.245,-0.177 -1.755,-0.532c-0.512,-0.354 -0.911,-0.859 -1.2,-1.515c-0.289,-0.655 -0.433,-1.436 -0.433,-2.343c-0,-0.907 0.144,-1.688 0.433,-2.343c0.289,-0.656 0.688,-1.161 1.2,-1.515c0.51,-0.355 1.096,-0.532 1.755,-0.532c0.668,0 1.255,0.177 1.762,0.532c0.508,0.354 0.905,0.859 1.193,1.515c0.289,0.655 0.433,1.436 0.433,2.343c-0,0.907 -0.144,1.688 -0.433,2.343c-0.288,0.656 -0.685,1.161 -1.193,1.515c-0.507,0.355 -1.094,0.532 -1.762,0.532Zm-0,-0.582c0.553,0 1.035,-0.15 1.447,-0.451c0.412,-0.301 0.734,-0.735 0.965,-1.305c0.231,-0.568 0.346,-1.252 0.346,-2.052c-0,-0.808 -0.115,-1.494 -0.346,-2.059c-0.231,-0.565 -0.553,-0.998 -0.965,-1.298c-0.412,-0.301 -0.894,-0.451 -1.447,-0.451c-0.544,-0 -1.024,0.15 -1.44,0.451c-0.417,0.3 -0.74,0.733 -0.971,1.298c-0.231,0.565 -0.346,1.251 -0.346,2.059c-0,0.8 0.115,1.484 0.346,2.052c0.231,0.57 0.554,1.004 0.971,1.305c0.416,0.301 0.896,0.451 1.44,0.451" style="fill:#f0f0f0;fill-rule:nonzero;"/><path d="M17.62,206.561l-0,-0.42l4.415,-5.713l0.161,0.21l-4.514,-0l-0,-0.532l4.996,0l-0,0.42l-4.427,5.713l-0.186,-0.21l4.687,0l-0,0.532l-5.132,-0" style="fill:#f0f0f0;fill-rule:nonzero;"/><path d="M27.84,200.057c0.527,-0 0.987,0.101 1.379,0.303c0.391,0.202 0.696,0.507 0.915,0.915c0.218,0.408 0.328,0.912 0.328,1.514l-0,3.772l-0.619,-0l-0,-3.722c-0,-0.726 -0.183,-1.278 -0.55,-1.657c-0.367,-0.379 -0.88,-0.569 -1.54,-0.569c-0.502,0 -0.939,0.103 -1.31,0.309c-0.371,0.206 -0.654,0.495 -0.847,0.866c-0.194,0.371 -0.291,0.816 -0.291,1.335l-0,3.438l-0.618,-0l-0,-6.455l0.593,0l-0,1.793l-0.086,-0.198c0.198,-0.511 0.523,-0.913 0.977,-1.205c0.453,-0.293 1.009,-0.439 1.669,-0.439" style="fill:#f0f0f0;fill-rule:nonzero;"/><path d="M37.055,206.561l-0,-1.472l-0.025,-0.222l-0,-2.424c-0,-0.602 -0.163,-1.059 -0.488,-1.372c-0.326,-0.314 -0.802,-0.47 -1.428,-0.47c-0.445,-0 -0.86,0.076 -1.243,0.229c-0.383,0.152 -0.711,0.348 -0.983,0.587l-0.309,-0.445c0.321,-0.289 0.709,-0.513 1.162,-0.674c0.453,-0.161 0.928,-0.241 1.422,-0.241c0.8,-0 1.414,0.202 1.843,0.605c0.428,0.404 0.643,1.006 0.643,1.806l-0,4.093l-0.594,-0Zm-2.325,0.049c-0.478,0 -0.892,-0.076 -1.242,-0.228c-0.351,-0.153 -0.619,-0.369 -0.804,-0.65c-0.186,-0.28 -0.278,-0.602 -0.278,-0.964c-0,-0.33 0.076,-0.629 0.228,-0.897c0.153,-0.268 0.406,-0.486 0.761,-0.655c0.354,-0.169 0.828,-0.254 1.422,-0.254l2.374,0l-0,0.483l-2.362,-0c-0.667,-0 -1.135,0.123 -1.403,0.371c-0.268,0.247 -0.402,0.556 -0.402,0.927c-0,0.412 0.157,0.742 0.47,0.989c0.313,0.248 0.754,0.371 1.323,0.371c0.544,0 1.004,-0.123 1.379,-0.371c0.375,-0.247 0.653,-0.606 0.834,-1.075l0.173,0.42c-0.173,0.47 -0.467,0.843 -0.884,1.119c-0.416,0.276 -0.946,0.414 -1.589,0.414" style="fill:#f0f0f0;fill-rule:nonzero;"/><path d="M40.656,204.78l0.013,-0.779l4.266,-3.895l0.791,0l-2.831,2.659l-0.371,0.309l-1.868,1.706Zm-0.469,1.781l-0,-9.176l0.618,0l-0,9.176l-0.618,-0Zm5.045,-0l-2.819,-3.537l0.42,-0.457l3.166,3.994l-0.767,-0" style="fill:#f0f0f0;fill-rule:nonzero;"/><path d="M49.908,206.61c-0.552,0 -1.03,-0.101 -1.434,-0.303c-0.404,-0.202 -0.715,-0.507 -0.934,-0.915c-0.218,-0.408 -0.327,-0.913 -0.327,-1.514l-0,-3.772l0.618,0l-0,3.722c-0,0.725 0.185,1.278 0.556,1.657c0.371,0.379 0.895,0.569 1.571,0.569c0.486,-0 0.907,-0.103 1.261,-0.309c0.355,-0.206 0.627,-0.497 0.816,-0.872c0.19,-0.375 0.284,-0.818 0.284,-1.329l-0,-3.438l0.619,0l-0,6.455l-0.594,-0l-0,-1.793l0.087,0.21c-0.19,0.503 -0.505,0.901 -0.946,1.193c-0.441,0.293 -0.967,0.439 -1.577,0.439Zm0.161,-7.419c-0.239,-0 -0.449,-0.054 -0.63,-0.161c-0.182,-0.107 -0.326,-0.253 -0.433,-0.439c-0.108,-0.185 -0.161,-0.385 -0.161,-0.599c-0,-0.215 0.053,-0.417 0.161,-0.607c0.107,-0.189 0.255,-0.339 0.445,-0.451c0.189,-0.111 0.395,-0.167 0.618,-0.167c0.239,-0.008 0.452,0.046 0.637,0.161c0.185,0.116 0.332,0.268 0.439,0.457c0.107,0.19 0.161,0.392 0.161,0.607c-0,0.214 -0.054,0.412 -0.161,0.593c-0.107,0.181 -0.256,0.328 -0.445,0.439c-0.19,0.111 -0.4,0.167 -0.631,0.167Zm-0,-0.346c0.255,-0 0.464,-0.083 0.625,-0.247c0.16,-0.165 0.245,-0.363 0.253,-0.594c-0.008,-0.247 -0.093,-0.458 -0.253,-0.631c-0.161,-0.173 -0.37,-0.259 -0.625,-0.259c-0.247,-0 -0.451,0.084 -0.612,0.253c-0.161,0.169 -0.245,0.377 -0.254,0.625c0.009,0.239 0.091,0.441 0.248,0.606c0.156,0.164 0.363,0.247 0.618,0.247" style="fill:#f0f0f0;fill-rule:nonzero;"/><path d="M57.192,207.798l4.08,-11.649l0.569,0l-4.081,11.649l-0.568,-0" style="fill:#f0f0f0;fill-rule:nonzero;"/><path d="M68.644,206.623c-0.659,-0 -1.245,-0.177 -1.755,-0.532c-0.512,-0.354 -0.911,-0.859 -1.2,-1.515c-0.289,-0.655 -0.433,-1.436 -0.433,-2.343c-0,-0.907 0.144,-1.688 0.433,-2.343c0.289,-0.656 0.688,-1.161 1.2,-1.515c0.51,-0.355 1.096,-0.532 1.755,-0.532c0.668,0 1.255,0.177 1.762,0.532c0.508,0.354 0.905,0.859 1.193,1.515c0.289,0.655 0.433,1.436 0.433,2.343c-0,0.907 -0.144,1.688 -0.433,2.343c-0.288,0.656 -0.685,1.161 -1.193,1.515c-0.507,0.355 -1.094,0.532 -1.762,0.532Zm-0,-0.582c0.553,0 1.035,-0.15 1.447,-0.451c0.412,-0.301 0.734,-0.735 0.965,-1.305c0.231,-0.568 0.346,-1.252 0.346,-2.052c-0,-0.808 -0.115,-1.494 -0.346,-2.059c-0.231,-0.565 -0.553,-0.998 -0.965,-1.298c-0.412,-0.301 -0.894,-0.451 -1.447,-0.451c-0.544,-0 -1.024,0.15 -1.44,0.451c-0.417,0.3 -0.74,0.733 -0.971,1.298c-0.231,0.565 -0.346,1.251 -0.346,2.059c-0,0.8 0.115,1.484 0.346,2.052c0.231,0.57 0.554,1.004 0.971,1.305c0.416,0.301 0.896,0.451 1.44,0.451" style="fill:#f0f0f0;fill-rule:nonzero;"/><path d="M78.819,206.61c-0.536,0 -1.037,-0.078 -1.502,-0.235c-0.466,-0.156 -0.827,-0.354 -1.082,-0.593l0.284,-0.495c0.247,0.214 0.577,0.398 0.989,0.55c0.413,0.153 0.857,0.229 1.336,0.229c0.676,0 1.162,-0.111 1.459,-0.334c0.297,-0.222 0.445,-0.515 0.445,-0.877c-0,-0.264 -0.076,-0.473 -0.229,-0.625c-0.152,-0.153 -0.356,-0.27 -0.612,-0.352c-0.255,-0.083 -0.536,-0.151 -0.841,-0.205c-0.305,-0.053 -0.61,-0.113 -0.915,-0.179c-0.305,-0.066 -0.585,-0.16 -0.841,-0.284c-0.255,-0.124 -0.459,-0.295 -0.612,-0.513c-0.152,-0.219 -0.228,-0.51 -0.228,-0.872c-0,-0.33 0.09,-0.627 0.272,-0.89c0.181,-0.264 0.453,-0.476 0.816,-0.637c0.363,-0.161 0.816,-0.241 1.36,-0.241c0.404,-0 0.81,0.057 1.218,0.173c0.408,0.115 0.74,0.268 0.995,0.457l-0.284,0.495c-0.272,-0.206 -0.577,-0.355 -0.915,-0.445c-0.338,-0.091 -0.68,-0.136 -1.026,-0.136c-0.627,-0 -1.087,0.115 -1.379,0.346c-0.293,0.231 -0.439,0.519 -0.439,0.865c-0,0.273 0.076,0.489 0.229,0.65c0.152,0.161 0.356,0.284 0.612,0.371c0.255,0.086 0.536,0.156 0.84,0.21c0.305,0.053 0.611,0.113 0.916,0.179c0.305,0.066 0.585,0.159 0.841,0.278c0.255,0.12 0.459,0.285 0.612,0.495c0.152,0.21 0.228,0.492 0.228,0.847c-0,0.354 -0.097,0.664 -0.29,0.927c-0.194,0.264 -0.48,0.47 -0.86,0.619c-0.379,0.148 -0.845,0.222 -1.397,0.222" style="fill:#f0f0f0;fill-rule:nonzero;"/><rect x="83.087" y="197.385" width="0.618" height="9.175" style="fill:#f0f0f0;"/><path d="M88.909,206.61c-0.618,0 -1.168,-0.14 -1.651,-0.42c-0.482,-0.28 -0.863,-0.668 -1.143,-1.162c-0.28,-0.495 -0.421,-1.06 -0.421,-1.694c-0.008,-0.643 0.13,-1.21 0.414,-1.701c0.285,-0.49 0.668,-0.876 1.15,-1.156c0.483,-0.28 1.033,-0.42 1.651,-0.42c0.619,-0 1.171,0.14 1.657,0.42c0.487,0.28 0.868,0.666 1.144,1.156c0.276,0.491 0.414,1.058 0.414,1.701c0.009,0.634 -0.127,1.199 -0.408,1.694c-0.28,0.494 -0.665,0.882 -1.156,1.162c-0.49,0.28 -1.041,0.42 -1.651,0.42Zm-0,-0.556c0.495,-0 0.94,-0.113 1.336,-0.34c0.395,-0.227 0.705,-0.547 0.927,-0.959c0.223,-0.412 0.338,-0.886 0.347,-1.421c-0.009,-0.545 -0.124,-1.021 -0.347,-1.429c-0.222,-0.408 -0.532,-0.725 -0.927,-0.952c-0.396,-0.227 -0.841,-0.344 -1.336,-0.352c-0.494,0.008 -0.937,0.125 -1.329,0.352c-0.391,0.227 -0.7,0.544 -0.927,0.952c-0.227,0.408 -0.345,0.884 -0.353,1.429c0.008,0.535 0.126,1.009 0.353,1.421c0.227,0.412 0.534,0.734 0.921,0.965c0.387,0.231 0.832,0.342 1.335,0.334" style="fill:#f0f0f0;fill-rule:nonzero;"/><path d="M95.519,206.561l-2.906,-6.455l0.656,0l2.72,6.109l-0.297,-0l2.745,-6.109l0.631,0l-2.918,6.455l-0.631,-0" style="fill:#f0f0f0;fill-rule:nonzero;"/></g><g><path d="M186.634,203.123c-0.297,0 -0.552,-0.064 -0.766,-0.191c-0.215,-0.128 -0.411,-0.279 -0.588,-0.452c-0.177,-0.173 -0.355,-0.325 -0.531,-0.457c-0.178,-0.132 -0.382,-0.198 -0.613,-0.198c-0.313,-0 -0.56,0.113 -0.742,0.34c-0.181,0.227 -0.28,0.529 -0.296,0.909l-0.433,-0c0.016,-0.569 0.16,-1.002 0.433,-1.299c0.272,-0.296 0.614,-0.445 1.026,-0.445c0.297,0 0.55,0.066 0.76,0.198c0.211,0.132 0.404,0.284 0.582,0.457c0.177,0.174 0.356,0.324 0.538,0.452c0.181,0.128 0.387,0.191 0.618,0.191c0.313,0 0.56,-0.111 0.742,-0.333c0.181,-0.223 0.276,-0.524 0.284,-0.903l0.445,0c-0.025,0.561 -0.169,0.989 -0.432,1.286c-0.264,0.297 -0.607,0.445 -1.027,0.445" style="fill:#f0f0f0;fill-rule:nonzero;"/><path d="M195.35,197.843c0.759,0 1.395,0.173 1.911,0.519c0.515,0.347 0.904,0.843 1.168,1.491c0.264,0.647 0.396,1.423 0.396,2.331c-0,0.972 -0.161,1.788 -0.482,2.448c-0.322,0.659 -0.771,1.156 -1.348,1.49c-0.577,0.334 -1.249,0.501 -2.016,0.501c-0.371,-0 -0.723,-0.033 -1.057,-0.099c-0.334,-0.066 -0.637,-0.182 -0.909,-0.346l0.26,-0.507c0.222,0.14 0.482,0.241 0.779,0.302c0.297,0.062 0.606,0.093 0.927,0.093c0.973,0 1.752,-0.315 2.337,-0.946c0.586,-0.63 0.878,-1.576 0.878,-2.838c-0,-0.197 -0.012,-0.441 -0.037,-0.729c-0.025,-0.289 -0.078,-0.573 -0.16,-0.853l0.222,0.061c-0.058,0.478 -0.219,0.885 -0.482,1.219c-0.264,0.333 -0.6,0.591 -1.008,0.772c-0.408,0.182 -0.864,0.272 -1.366,0.272c-0.577,0 -1.082,-0.105 -1.515,-0.315c-0.433,-0.21 -0.771,-0.509 -1.014,-0.897c-0.243,-0.387 -0.365,-0.84 -0.365,-1.36c-0,-0.527 0.126,-0.987 0.377,-1.379c0.252,-0.391 0.594,-0.694 1.027,-0.908c0.433,-0.215 0.925,-0.322 1.477,-0.322Zm0.025,0.544c-0.453,0 -0.849,0.085 -1.187,0.254c-0.338,0.169 -0.604,0.406 -0.798,0.711c-0.193,0.305 -0.29,0.667 -0.29,1.088c-0,0.618 0.21,1.113 0.631,1.484c0.42,0.371 0.993,0.556 1.718,0.556c0.47,0 0.886,-0.091 1.249,-0.272c0.363,-0.181 0.645,-0.428 0.847,-0.742c0.202,-0.313 0.303,-0.663 0.303,-1.051c-0,-0.338 -0.095,-0.661 -0.284,-0.971c-0.19,-0.309 -0.466,-0.562 -0.829,-0.76c-0.363,-0.198 -0.816,-0.297 -1.36,-0.297" style="fill:#f0f0f0;fill-rule:nonzero;"/><path d="M203.629,206.623c-0.659,-0 -1.245,-0.177 -1.755,-0.532c-0.512,-0.354 -0.911,-0.859 -1.2,-1.515c-0.289,-0.655 -0.433,-1.436 -0.433,-2.343c-0,-0.907 0.144,-1.688 0.433,-2.343c0.289,-0.656 0.688,-1.161 1.2,-1.515c0.51,-0.355 1.096,-0.532 1.755,-0.532c0.668,0 1.255,0.177 1.762,0.532c0.508,0.354 0.905,0.859 1.193,1.515c0.289,0.655 0.433,1.436 0.433,2.343c-0,0.907 -0.144,1.688 -0.433,2.343c-0.288,0.656 -0.685,1.161 -1.193,1.515c-0.507,0.355 -1.094,0.532 -1.762,0.532Zm-0,-0.582c0.553,0 1.035,-0.15 1.447,-0.451c0.412,-0.301 0.734,-0.735 0.965,-1.305c0.231,-0.568 0.346,-1.252 0.346,-2.052c-0,-0.808 -0.115,-1.494 -0.346,-2.059c-0.231,-0.565 -0.553,-0.998 -0.965,-1.298c-0.412,-0.301 -0.894,-0.451 -1.447,-0.451c-0.544,-0 -1.024,0.15 -1.44,0.451c-0.417,0.3 -0.74,0.733 -0.971,1.298c-0.231,0.565 -0.346,1.251 -0.346,2.059c-0,0.8 0.115,1.484 0.346,2.052c0.231,0.57 0.554,1.004 0.971,1.305c0.416,0.301 0.896,0.451 1.44,0.451" style="fill:#f0f0f0;fill-rule:nonzero;"/><path d="M211.729,206.623c-0.659,-0 -1.245,-0.177 -1.755,-0.532c-0.512,-0.354 -0.911,-0.859 -1.2,-1.515c-0.289,-0.655 -0.433,-1.436 -0.433,-2.343c-0,-0.907 0.144,-1.688 0.433,-2.343c0.289,-0.656 0.688,-1.161 1.2,-1.515c0.51,-0.355 1.096,-0.532 1.755,-0.532c0.668,0 1.255,0.177 1.762,0.532c0.508,0.354 0.905,0.859 1.193,1.515c0.289,0.655 0.433,1.436 0.433,2.343c-0,0.907 -0.144,1.688 -0.433,2.343c-0.288,0.656 -0.685,1.161 -1.193,1.515c-0.507,0.355 -1.094,0.532 -1.762,0.532Zm-0,-0.582c0.553,0 1.035,-0.15 1.447,-0.451c0.412,-0.301 0.734,-0.735 0.965,-1.305c0.231,-0.568 0.346,-1.252 0.346,-2.052c-0,-0.808 -0.115,-1.494 -0.346,-2.059c-0.231,-0.565 -0.553,-0.998 -0.965,-1.298c-0.412,-0.301 -0.894,-0.451 -1.447,-0.451c-0.544,-0 -1.024,0.15 -1.44,0.451c-0.417,0.3 -0.74,0.733 -0.971,1.298c-0.231,0.565 -0.346,1.251 -0.346,2.059c-0,0.8 0.115,1.484 0.346,2.052c0.231,0.57 0.554,1.004 0.971,1.305c0.416,0.301 0.896,0.451 1.44,0.451" style="fill:#f0f0f0;fill-rule:nonzero;"/><path d="M219.505,206.561l-0,-0.42l4.415,-5.713l0.161,0.21l-4.514,-0l-0,-0.532l4.996,0l-0,0.42l-4.427,5.713l-0.186,-0.21l4.687,0l-0,0.532l-5.132,-0" style="fill:#f0f0f0;fill-rule:nonzero;"/><path d="M229.725,200.057c0.527,-0 0.987,0.101 1.379,0.303c0.391,0.202 0.696,0.507 0.915,0.915c0.218,0.408 0.328,0.912 0.328,1.514l-0,3.772l-0.619,-0l-0,-3.722c-0,-0.726 -0.183,-1.278 -0.55,-1.657c-0.367,-0.379 -0.88,-0.569 -1.54,-0.569c-0.502,0 -0.939,0.103 -1.31,0.309c-0.371,0.206 -0.654,0.495 -0.847,0.866c-0.194,0.371 -0.291,0.816 -0.291,1.335l-0,3.438l-0.618,-0l-0,-6.455l0.593,0l-0,1.793l-0.086,-0.198c0.198,-0.511 0.523,-0.913 0.977,-1.205c0.453,-0.293 1.009,-0.439 1.669,-0.439" style="fill:#f0f0f0;fill-rule:nonzero;"/><path d="M238.94,206.561l-0,-1.472l-0.025,-0.222l-0,-2.424c-0,-0.602 -0.163,-1.059 -0.488,-1.372c-0.326,-0.314 -0.802,-0.47 -1.428,-0.47c-0.445,-0 -0.86,0.076 -1.243,0.229c-0.383,0.152 -0.711,0.348 -0.983,0.587l-0.309,-0.445c0.321,-0.289 0.709,-0.513 1.162,-0.674c0.453,-0.161 0.928,-0.241 1.422,-0.241c0.8,-0 1.414,0.202 1.843,0.605c0.428,0.404 0.643,1.006 0.643,1.806l-0,4.093l-0.594,-0Zm-2.325,0.049c-0.478,0 -0.892,-0.076 -1.242,-0.228c-0.351,-0.153 -0.619,-0.369 -0.804,-0.65c-0.186,-0.28 -0.278,-0.602 -0.278,-0.964c-0,-0.33 0.076,-0.629 0.228,-0.897c0.153,-0.268 0.406,-0.486 0.761,-0.655c0.354,-0.169 0.828,-0.254 1.422,-0.254l2.374,0l-0,0.483l-2.362,-0c-0.667,-0 -1.135,0.123 -1.403,0.371c-0.268,0.247 -0.402,0.556 -0.402,0.927c-0,0.412 0.157,0.742 0.47,0.989c0.313,0.248 0.754,0.371 1.323,0.371c0.544,0 1.004,-0.123 1.379,-0.371c0.375,-0.247 0.653,-0.606 0.834,-1.075l0.173,0.42c-0.173,0.47 -0.467,0.843 -0.884,1.119c-0.416,0.276 -0.946,0.414 -1.589,0.414" style="fill:#f0f0f0;fill-rule:nonzero;"/><path d="M242.541,204.78l0.013,-0.779l4.266,-3.895l0.791,0l-2.831,2.659l-0.371,0.309l-1.868,1.706Zm-0.469,1.781l-0,-9.176l0.618,0l-0,9.176l-0.618,-0Zm5.045,-0l-2.819,-3.537l0.42,-0.457l3.166,3.994l-0.767,-0" style="fill:#f0f0f0;fill-rule:nonzero;"/><path d="M251.793,206.61c-0.552,0 -1.03,-0.101 -1.434,-0.303c-0.404,-0.202 -0.715,-0.507 -0.934,-0.915c-0.218,-0.408 -0.327,-0.913 -0.327,-1.514l-0,-3.772l0.618,0l-0,3.722c-0,0.725 0.185,1.278 0.556,1.657c0.371,0.379 0.895,0.569 1.571,0.569c0.486,-0 0.907,-0.103 1.261,-0.309c0.355,-0.206 0.627,-0.497 0.816,-0.872c0.19,-0.375 0.284,-0.818 0.284,-1.329l-0,-3.438l0.619,0l-0,6.455l-0.594,-0l-0,-1.793l0.087,0.21c-0.19,0.503 -0.505,0.901 -0.946,1.193c-0.441,0.293 -0.967,0.439 -1.577,0.439Zm0.161,-7.419c-0.239,-0 -0.449,-0.054 -0.63,-0.161c-0.182,-0.107 -0.326,-0.253 -0.433,-0.439c-0.108,-0.185 -0.161,-0.385 -0.161,-0.599c-0,-0.215 0.053,-0.417 0.161,-0.607c0.107,-0.189 0.255,-0.339 0.445,-0.451c0.189,-0.111 0.395,-0.167 0.618,-0.167c0.239,-0.008 0.452,0.046 0.637,0.161c0.185,0.116 0.332,0.268 0.439,0.457c0.107,0.19 0.161,0.392 0.161,0.607c-0,0.214 -0.054,0.412 -0.161,0.593c-0.107,0.181 -0.256,0.328 -0.445,0.439c-0.19,0.111 -0.4,0.167 -0.631,0.167Zm-0,-0.346c0.255,-0 0.464,-0.083 0.625,-0.247c0.16,-0.165 0.245,-0.363 0.253,-0.594c-0.008,-0.247 -0.093,-0.458 -0.253,-0.631c-0.161,-0.173 -0.37,-0.259 -0.625,-0.259c-0.247,-0 -0.451,0.084 -0.612,0.253c-0.161,0.169 -0.245,0.377 -0.254,0.625c0.009,0.239 0.091,0.441 0.248,0.606c0.156,0.164 0.363,0.247 0.618,0.247" style="fill:#f0f0f0;fill-rule:nonzero;"/></g><g><path d="M257.521,42.521c1.061,-0 2.078,0.421 2.828,1.171c0.75,0.75 1.172,1.768 1.172,2.829l-0,139.628c-0,1.061 -0.422,2.078 -1.172,2.829c-0.75,0.75 -1.767,1.171 -2.828,1.171l-253.521,0c-1.061,0 -2.078,-0.421 -2.828,-1.171c-0.751,-0.751 -1.172,-1.768 -1.172,-2.829l0,-139.628c-0,-1.061 0.421,-2.079 1.172,-2.829c0.75,-0.75 1.767,-1.171 2.828,-1.171l253.521,-0Z" style="fill:#3f3351;"/><path d="M10.764,61.819l-0,-8.075l-2.968,-0l-0,-0.581l6.579,-0l-0,0.581l-2.968,-0l-0,8.075l-0.643,-0" style="fill:#afafaf;fill-rule:nonzero;"/><path d="M18.622,61.942c-0.536,-0 -1.029,-0.136 -1.478,-0.407c-0.449,-0.273 -0.808,-0.641 -1.076,-1.107c-0.268,-0.466 -0.402,-0.991 -0.402,-1.577c-0,-0.585 0.126,-1.109 0.378,-1.57c0.251,-0.462 0.591,-0.829 1.02,-1.101c0.428,-0.272 0.91,-0.408 1.446,-0.408c0.536,-0 1.018,0.132 1.447,0.396c0.429,0.264 0.769,0.618 1.02,1.063c0.252,0.445 0.378,0.944 0.378,1.497l-0,0.234l-5.07,-0c0.024,0.462 0.146,0.874 0.364,1.237c0.219,0.363 0.503,0.649 0.854,0.859c0.35,0.211 0.731,0.316 1.143,0.316c0.371,-0 0.724,-0.072 1.058,-0.217c0.334,-0.144 0.612,-0.344 0.835,-0.599l0.432,0.395c-0.297,0.314 -0.647,0.557 -1.051,0.73c-0.404,0.173 -0.837,0.259 -1.298,0.259Zm-2.313,-3.486l4.415,-0c-0.041,-0.404 -0.163,-0.765 -0.365,-1.082c-0.202,-0.318 -0.462,-0.569 -0.779,-0.755c-0.317,-0.185 -0.674,-0.278 -1.07,-0.278c-0.379,-0 -0.725,0.091 -1.038,0.272c-0.314,0.181 -0.571,0.431 -0.773,0.748c-0.202,0.318 -0.332,0.682 -0.39,1.095" style="fill:#afafaf;fill-rule:nonzero;"/><path d="M23.029,61.819l2.461,-3.091l-2.3,-2.857l0.754,-0l1.942,2.448l1.978,-2.448l0.717,-0l-2.312,2.844l2.473,3.104l-0.742,-0l-2.127,-2.696l-2.139,2.696l-0.705,-0" style="fill:#afafaf;fill-rule:nonzero;"/><path d="M34.213,61.942c-0.626,-0 -1.105,-0.133 -1.434,-0.401c-0.33,-0.268 -0.495,-0.654 -0.495,-1.156l-0,-3.982l-2.114,-0l-0,-0.532l2.114,-0l-0,-1.62l0.618,-0.161l-0,1.781l2.881,-0l-0,0.532l-2.881,-0l-0,3.907c-0,0.371 0.11,0.641 0.328,0.81c0.219,0.169 0.517,0.254 0.896,0.254c0.248,-0 0.51,-0.029 0.786,-0.087c0.276,-0.057 0.566,-0.148 0.871,-0.272l-0,0.594c-0.28,0.107 -0.546,0.189 -0.797,0.247c-0.251,0.058 -0.509,0.086 -0.773,0.086" style="fill:#afafaf;fill-rule:nonzero;"/><path d="M46.046,61.819l-0,-8.965l0.619,-0.148l-0,5.972l3.45,-2.807l0.841,-0l-3.574,2.894l3.697,3.054l-0.915,-0l-3.499,-2.943l-0,2.943l-0.619,-0" style="fill:#afafaf;fill-rule:nonzero;"/><path d="M56.513,61.942c-0.626,-0 -1.105,-0.133 -1.434,-0.401c-0.33,-0.268 -0.495,-0.654 -0.495,-1.156l-0,-3.982l-2.114,-0l-0,-0.532l2.114,-0l-0,-1.62l0.618,-0.161l-0,1.781l2.881,-0l-0,0.532l-2.881,-0l-0,3.907c-0,0.371 0.11,0.641 0.328,0.81c0.219,0.169 0.517,0.254 0.896,0.254c0.248,-0 0.51,-0.029 0.786,-0.087c0.276,-0.057 0.566,-0.148 0.871,-0.272l-0,0.594c-0.28,0.107 -0.546,0.189 -0.797,0.247c-0.251,0.058 -0.509,0.086 -0.773,0.086" style="fill:#afafaf;fill-rule:nonzero;"/><path d="M63.122,61.942c-0.536,-0 -1.029,-0.136 -1.478,-0.407c-0.449,-0.273 -0.808,-0.641 -1.076,-1.107c-0.268,-0.466 -0.402,-0.991 -0.402,-1.577c-0,-0.585 0.126,-1.109 0.378,-1.57c0.251,-0.462 0.591,-0.829 1.02,-1.101c0.428,-0.272 0.91,-0.408 1.446,-0.408c0.536,-0 1.018,0.132 1.447,0.396c0.429,0.264 0.769,0.618 1.02,1.063c0.252,0.445 0.378,0.944 0.378,1.497l-0,0.234l-5.07,-0c0.024,0.462 0.146,0.874 0.364,1.237c0.219,0.363 0.503,0.649 0.854,0.859c0.35,0.211 0.731,0.316 1.143,0.316c0.371,-0 0.724,-0.072 1.058,-0.217c0.334,-0.144 0.612,-0.344 0.835,-0.599l0.432,0.395c-0.297,0.314 -0.647,0.557 -1.051,0.73c-0.404,0.173 -0.837,0.259 -1.298,0.259Zm-2.313,-3.486l4.415,-0c-0.041,-0.404 -0.163,-0.765 -0.365,-1.082c-0.202,-0.318 -0.462,-0.569 -0.779,-0.755c-0.317,-0.185 -0.674,-0.278 -1.07,-0.278c-0.379,-0 -0.725,0.091 -1.038,0.272c-0.314,0.181 -0.571,0.431 -0.773,0.748c-0.202,0.318 -0.332,0.682 -0.39,1.095" style="fill:#afafaf;fill-rule:nonzero;"/><path d="M67.937,61.819l-0,-0.532l1.732,-0l-0,-4.884l-1.732,-0l-0,-0.532l2.35,-0l-0,1.261c0.181,-0.428 0.453,-0.762 0.816,-1.001c0.362,-0.239 0.783,-0.359 1.261,-0.359c0.19,-0 0.365,0.015 0.526,0.043c0.161,0.029 0.348,0.081 0.562,0.155l-0,0.581c-0.214,-0.066 -0.412,-0.117 -0.593,-0.154c-0.181,-0.037 -0.359,-0.056 -0.532,-0.056c-0.453,-0 -0.862,0.124 -1.224,0.371c-0.363,0.247 -0.635,0.602 -0.816,1.064l-0,3.511l1.83,-0l-0,0.532l-4.18,-0" style="fill:#afafaf;fill-rule:nonzero;"/><path d="M75.671,64.527c-0.115,-0 -0.239,-0.008 -0.371,-0.025c-0.132,-0.016 -0.255,-0.049 -0.371,-0.099l-0,-0.618c0.108,0.05 0.229,0.091 0.365,0.124c0.136,0.033 0.278,0.049 0.427,0.049c0.247,-0 0.455,-0.066 0.624,-0.198c0.169,-0.132 0.32,-0.35 0.451,-0.655l0.557,-1.286l-2.473,-5.948l0.692,-0l2.127,5.268l2.201,-5.268l0.68,-0l-3.252,7.494c-0.123,0.28 -0.259,0.505 -0.408,0.674c-0.148,0.169 -0.321,0.292 -0.519,0.371c-0.198,0.078 -0.441,0.117 -0.73,0.117Zm1.682,-9.868l1.298,-1.434l0.928,-0l-1.633,1.434l-0.593,-0" style="fill:#afafaf;fill-rule:nonzero;"/><path d="M90.2,61.819l-0,-8.965l0.619,-0.148l-0,3.981c0.247,-0.297 0.541,-0.519 0.884,-0.668c0.342,-0.148 0.711,-0.222 1.106,-0.222c0.536,-0 1.019,0.136 1.447,0.408c0.429,0.272 0.769,0.637 1.02,1.094c0.252,0.458 0.377,0.975 0.377,1.552c-0,0.577 -0.123,1.097 -0.371,1.558c-0.247,0.462 -0.583,0.829 -1.007,1.101c-0.425,0.272 -0.905,0.408 -1.441,0.408c-0.42,-0 -0.802,-0.081 -1.144,-0.241c-0.342,-0.161 -0.637,-0.394 -0.884,-0.699l-0,0.841l-0.606,-0Zm2.51,-0.47c0.437,-0 0.831,-0.109 1.181,-0.328c0.351,-0.218 0.629,-0.517 0.835,-0.896c0.206,-0.379 0.309,-0.804 0.309,-1.274c-0,-0.478 -0.103,-0.902 -0.309,-1.273c-0.206,-0.372 -0.484,-0.666 -0.835,-0.884c-0.35,-0.219 -0.744,-0.328 -1.181,-0.328c-0.379,-0 -0.738,0.08 -1.075,0.241c-0.338,0.161 -0.611,0.385 -0.816,0.674l-0,3.104c0.197,0.305 0.461,0.541 0.791,0.711c0.33,0.169 0.696,0.253 1.1,0.253" style="fill:#afafaf;fill-rule:nonzero;"/><path d="M99.925,61.918c-0.437,-0 -0.822,-0.095 -1.156,-0.285c-0.334,-0.189 -0.594,-0.453 -0.779,-0.791c-0.186,-0.338 -0.278,-0.725 -0.278,-1.162l-0,-3.809l0.618,-0l-0,3.635c-0,0.569 0.16,1.023 0.482,1.361c0.321,0.338 0.75,0.507 1.286,0.507c0.371,-0 0.707,-0.091 1.008,-0.272c0.301,-0.181 0.542,-0.429 0.723,-0.742l-0,-4.489l0.618,-0l-0,5.948l-0.618,-0l-0,-0.94c-0.47,0.693 -1.105,1.039 -1.904,1.039" style="fill:#afafaf;fill-rule:nonzero;"/><path d="M107.362,61.918c-0.536,-0 -1.018,-0.136 -1.447,-0.408c-0.428,-0.272 -0.768,-0.639 -1.02,-1.101c-0.251,-0.461 -0.377,-0.981 -0.377,-1.558c-0,-0.577 0.124,-1.094 0.371,-1.552c0.247,-0.457 0.585,-0.822 1.014,-1.094c0.428,-0.272 0.907,-0.408 1.434,-0.408c0.412,-0 0.79,0.078 1.132,0.235c0.342,0.157 0.637,0.387 0.884,0.692l-0,-3.87l0.618,-0.148l-0,9.113l-0.618,-0l-0,-0.791c-0.247,0.296 -0.542,0.519 -0.884,0.667c-0.342,0.149 -0.711,0.223 -1.107,0.223Zm0.099,-0.569c0.387,-0 0.748,-0.08 1.082,-0.241c0.334,-0.161 0.604,-0.385 0.81,-0.674l-0,-3.104c-0.198,-0.305 -0.462,-0.542 -0.791,-0.711c-0.33,-0.169 -0.697,-0.253 -1.101,-0.253c-0.437,-0 -0.831,0.109 -1.181,0.328c-0.35,0.218 -0.629,0.515 -0.834,0.89c-0.207,0.375 -0.31,0.801 -0.31,1.28c-0,0.469 0.103,0.892 0.31,1.267c0.205,0.375 0.484,0.672 0.834,0.89c0.35,0.219 0.744,0.328 1.181,0.328" style="fill:#afafaf;fill-rule:nonzero;"/><path d="M114.886,61.942c-0.536,-0 -1.019,-0.136 -1.447,-0.407c-0.429,-0.273 -0.769,-0.641 -1.02,-1.107c-0.252,-0.466 -0.377,-0.991 -0.377,-1.577c-0,-0.585 0.125,-1.109 0.377,-1.57c0.251,-0.462 0.591,-0.829 1.02,-1.101c0.428,-0.272 0.911,-0.408 1.447,-0.408c0.536,-0 1.018,0.136 1.446,0.408c0.429,0.272 0.769,0.639 1.021,1.101c0.251,0.461 0.377,0.985 0.377,1.57c-0,0.586 -0.126,1.111 -0.377,1.577c-0.252,0.466 -0.592,0.834 -1.021,1.107c-0.428,0.271 -0.91,0.407 -1.446,0.407Zm-0,-0.568c0.428,-0 0.81,-0.109 1.144,-0.328c0.334,-0.218 0.597,-0.519 0.791,-0.902c0.194,-0.384 0.291,-0.814 0.291,-1.293c-0,-0.478 -0.097,-0.907 -0.291,-1.286c-0.194,-0.379 -0.457,-0.678 -0.791,-0.896c-0.334,-0.219 -0.716,-0.328 -1.144,-0.328c-0.421,-0 -0.8,0.109 -1.138,0.328c-0.338,0.218 -0.604,0.517 -0.797,0.896c-0.194,0.379 -0.291,0.808 -0.291,1.286c-0,0.479 0.097,0.909 0.291,1.293c0.193,0.383 0.459,0.684 0.797,0.902c0.338,0.219 0.717,0.328 1.138,0.328" style="fill:#afafaf;fill-rule:nonzero;"/><path d="M122.225,61.918c-0.437,-0 -0.822,-0.095 -1.156,-0.285c-0.334,-0.189 -0.594,-0.453 -0.779,-0.791c-0.186,-0.338 -0.278,-0.725 -0.278,-1.162l-0,-3.809l0.618,-0l-0,3.635c-0,0.569 0.16,1.023 0.482,1.361c0.321,0.338 0.75,0.507 1.286,0.507c0.371,-0 0.707,-0.091 1.008,-0.272c0.301,-0.181 0.542,-0.429 0.723,-0.742l-0,-4.489l0.618,-0l-0,5.948l-0.618,-0l-0,-0.94c-0.47,0.693 -1.105,1.039 -1.904,1.039" style="fill:#afafaf;fill-rule:nonzero;"/><path d="M134.7,61.819l-0,-0.532l4.019,-4.847l-3.982,-0l-0,-0.569l4.773,-0l-0,0.532l-4.018,4.847l4.055,-0l-0,0.569l-4.847,-0Zm2.016,-7.135l-1.36,-1.496l0.544,-0l1.174,1.101l1.175,-1.101l0.544,-0l-1.36,1.496l-0.717,-0" style="fill:#afafaf;fill-rule:nonzero;"/><path d="M144.14,61.942c-0.444,-0 -0.836,-0.078 -1.174,-0.234c-0.338,-0.157 -0.604,-0.373 -0.798,-0.65c-0.194,-0.276 -0.29,-0.591 -0.29,-0.946c-0,-0.354 0.096,-0.663 0.29,-0.927c0.194,-0.264 0.464,-0.472 0.81,-0.624c0.346,-0.153 0.742,-0.229 1.187,-0.229c0.404,-0 0.775,0.041 1.113,0.124c0.338,0.082 0.639,0.218 0.903,0.408l-0,-0.767c-0,-0.602 -0.146,-1.053 -0.439,-1.354c-0.293,-0.301 -0.72,-0.451 -1.28,-0.451c-0.346,-0 -0.674,0.049 -0.983,0.148c-0.309,0.099 -0.641,0.256 -0.996,0.47l-0.271,-0.495c0.387,-0.214 0.766,-0.375 1.137,-0.482c0.371,-0.107 0.75,-0.161 1.138,-0.161c0.734,-0 1.3,0.192 1.7,0.575c0.4,0.384 0.6,0.93 0.6,1.639l-0,3.833l-0.606,-0l-0,-0.742c-0.272,0.28 -0.581,0.495 -0.928,0.643c-0.346,0.149 -0.717,0.222 -1.113,0.222Zm-1.657,-1.854c-0,0.404 0.161,0.727 0.483,0.97c0.321,0.244 0.738,0.365 1.249,0.365c0.387,-0 0.741,-0.066 1.063,-0.198c0.322,-0.131 0.623,-0.338 0.903,-0.618l-0,-1.236c-0.28,-0.19 -0.577,-0.324 -0.891,-0.402c-0.313,-0.079 -0.667,-0.118 -1.063,-0.118c-0.519,-0 -0.94,0.116 -1.261,0.347c-0.322,0.23 -0.483,0.527 -0.483,0.89Zm1.583,-5.429l1.299,-1.434l0.927,-0l-1.632,1.434l-0.594,-0" style="fill:#afafaf;fill-rule:nonzero;"/><path d="M152.047,61.942c-0.552,-0 -1.048,-0.136 -1.489,-0.407c-0.442,-0.273 -0.79,-0.641 -1.045,-1.107c-0.256,-0.466 -0.384,-0.988 -0.384,-1.564c-0,-0.586 0.128,-1.111 0.384,-1.577c0.255,-0.466 0.603,-0.835 1.045,-1.107c0.441,-0.272 0.937,-0.408 1.489,-0.408c0.528,-0 1.008,0.12 1.441,0.359c0.433,0.239 0.777,0.565 1.033,0.977l-0.52,0.284c-0.206,-0.321 -0.48,-0.577 -0.822,-0.766c-0.342,-0.19 -0.719,-0.285 -1.132,-0.285c-0.436,-0 -0.828,0.109 -1.174,0.328c-0.347,0.218 -0.618,0.515 -0.817,0.89c-0.197,0.375 -0.296,0.806 -0.296,1.292c-0,0.479 0.099,0.909 0.296,1.293c0.199,0.383 0.47,0.684 0.817,0.902c0.346,0.219 0.738,0.328 1.174,0.328c0.413,-0 0.79,-0.095 1.132,-0.285c0.342,-0.189 0.616,-0.445 0.822,-0.766l0.52,0.284c-0.256,0.404 -0.6,0.728 -1.033,0.971c-0.433,0.243 -0.913,0.364 -1.441,0.364" style="fill:#afafaf;fill-rule:nonzero;"/><path d="M159.374,54.375c-0.181,-0 -0.335,-0.068 -0.463,-0.204c-0.128,-0.136 -0.192,-0.295 -0.192,-0.476c-0,-0.19 0.064,-0.351 0.192,-0.482c0.128,-0.132 0.282,-0.198 0.463,-0.198c0.19,-0 0.347,0.066 0.47,0.198c0.124,0.131 0.186,0.292 0.186,0.482c-0,0.181 -0.062,0.34 -0.186,0.476c-0.123,0.136 -0.28,0.204 -0.47,0.204Zm1.484,7.567c-0.561,-0 -0.999,-0.139 -1.317,-0.42c-0.317,-0.28 -0.476,-0.672 -0.476,-1.174l-0,-3.945l-2.238,-0l-0,-0.532l2.856,-0l-0,4.452c-0,0.354 0.102,0.62 0.304,0.797c0.202,0.178 0.492,0.266 0.871,0.266c0.165,-0 0.336,-0.012 0.513,-0.037c0.178,-0.025 0.394,-0.074 0.65,-0.148l-0,0.556c-0.231,0.066 -0.437,0.114 -0.619,0.142c-0.181,0.029 -0.362,0.043 -0.544,0.043" style="fill:#afafaf;fill-rule:nonzero;"/><path d="M171.8,64.403l-0,-8.532l0.606,-0l-0,0.828c0.247,-0.296 0.544,-0.521 0.89,-0.673c0.347,-0.153 0.718,-0.229 1.113,-0.229c0.536,-0 1.019,0.136 1.447,0.408c0.429,0.272 0.769,0.639 1.02,1.101c0.252,0.461 0.377,0.981 0.377,1.558c-0,0.568 -0.123,1.084 -0.371,1.545c-0.247,0.462 -0.583,0.829 -1.007,1.101c-0.425,0.272 -0.905,0.408 -1.441,0.408c-0.412,-0 -0.789,-0.078 -1.131,-0.235c-0.343,-0.157 -0.637,-0.387 -0.884,-0.693l-0,3.413l-0.619,-0Zm2.51,-3.054c0.437,-0 0.831,-0.109 1.181,-0.328c0.351,-0.218 0.629,-0.517 0.835,-0.896c0.206,-0.379 0.309,-0.804 0.309,-1.274c-0,-0.478 -0.103,-0.902 -0.309,-1.273c-0.206,-0.372 -0.484,-0.666 -0.835,-0.884c-0.35,-0.219 -0.744,-0.328 -1.181,-0.328c-0.379,-0 -0.738,0.078 -1.075,0.235c-0.338,0.156 -0.611,0.379 -0.816,0.668l-0,3.128c0.189,0.297 0.451,0.529 0.785,0.699c0.334,0.169 0.702,0.253 1.106,0.253" style="fill:#afafaf;fill-rule:nonzero;"/><path d="M181.661,61.942c-0.552,-0 -1.043,-0.076 -1.472,-0.228c-0.428,-0.153 -0.783,-0.377 -1.063,-0.674l0.371,-0.445c0.338,0.263 0.68,0.46 1.026,0.587c0.346,0.128 0.717,0.192 1.113,0.192c0.536,-0 0.981,-0.109 1.336,-0.328c0.354,-0.218 0.531,-0.517 0.531,-0.897c-0,-0.255 -0.076,-0.451 -0.228,-0.587c-0.153,-0.136 -0.357,-0.235 -0.612,-0.297c-0.256,-0.061 -0.534,-0.111 -0.835,-0.148c-0.301,-0.037 -0.604,-0.078 -0.909,-0.123c-0.305,-0.046 -0.585,-0.12 -0.841,-0.223c-0.256,-0.103 -0.459,-0.254 -0.612,-0.452c-0.152,-0.197 -0.229,-0.47 -0.229,-0.816c-0,-0.362 0.099,-0.673 0.297,-0.933c0.198,-0.26 0.474,-0.458 0.829,-0.594c0.354,-0.136 0.758,-0.204 1.211,-0.204c0.445,-0 0.856,0.056 1.231,0.167c0.375,0.112 0.748,0.299 1.119,0.563l-0.322,0.482c-0.313,-0.214 -0.638,-0.375 -0.976,-0.482c-0.339,-0.107 -0.697,-0.161 -1.076,-0.161c-0.536,-0 -0.956,0.103 -1.261,0.309c-0.306,0.206 -0.458,0.478 -0.458,0.816c-0,0.256 0.076,0.454 0.229,0.594c0.152,0.14 0.356,0.241 0.612,0.303c0.255,0.061 0.536,0.111 0.841,0.148c0.304,0.037 0.608,0.079 0.908,0.124c0.301,0.045 0.58,0.117 0.835,0.216c0.256,0.099 0.46,0.248 0.612,0.445c0.153,0.198 0.229,0.47 0.229,0.816c-0,0.371 -0.105,0.695 -0.316,0.971c-0.21,0.276 -0.498,0.489 -0.865,0.637c-0.367,0.149 -0.785,0.222 -1.255,0.222" style="fill:#afafaf;fill-rule:nonzero;"/><path d="M188.64,61.942c-0.444,-0 -0.836,-0.078 -1.174,-0.234c-0.338,-0.157 -0.604,-0.373 -0.798,-0.65c-0.194,-0.276 -0.29,-0.591 -0.29,-0.946c-0,-0.354 0.096,-0.663 0.29,-0.927c0.194,-0.264 0.464,-0.472 0.81,-0.624c0.346,-0.153 0.742,-0.229 1.187,-0.229c0.404,-0 0.775,0.041 1.113,0.124c0.338,0.082 0.639,0.218 0.903,0.408l-0,-0.767c-0,-0.602 -0.146,-1.053 -0.439,-1.354c-0.293,-0.301 -0.72,-0.451 -1.28,-0.451c-0.346,-0 -0.674,0.049 -0.983,0.148c-0.309,0.099 -0.641,0.256 -0.996,0.47l-0.271,-0.495c0.387,-0.214 0.766,-0.375 1.137,-0.482c0.371,-0.107 0.75,-0.161 1.138,-0.161c0.734,-0 1.3,0.192 1.7,0.575c0.4,0.384 0.6,0.93 0.6,1.639l-0,3.833l-0.606,-0l-0,-0.742c-0.272,0.28 -0.581,0.495 -0.928,0.643c-0.346,0.149 -0.717,0.222 -1.113,0.222Zm-1.657,-1.854c-0,0.404 0.161,0.727 0.483,0.97c0.321,0.244 0.738,0.365 1.249,0.365c0.387,-0 0.741,-0.066 1.063,-0.198c0.322,-0.131 0.623,-0.338 0.903,-0.618l-0,-1.236c-0.28,-0.19 -0.577,-0.324 -0.891,-0.402c-0.313,-0.079 -0.667,-0.118 -1.063,-0.118c-0.519,-0 -0.94,0.116 -1.261,0.347c-0.322,0.23 -0.483,0.527 -0.483,0.89Zm1.583,-5.429l1.299,-1.434l0.927,-0l-1.632,1.434l-0.594,-0" style="fill:#afafaf;fill-rule:nonzero;"/><path d="M197.413,61.942c-0.626,-0 -1.105,-0.133 -1.434,-0.401c-0.33,-0.268 -0.495,-0.654 -0.495,-1.156l-0,-3.982l-2.114,-0l-0,-0.532l2.114,-0l-0,-1.62l0.618,-0.161l-0,1.781l2.881,-0l-0,0.532l-2.881,-0l-0,3.907c-0,0.371 0.11,0.641 0.328,0.81c0.219,0.169 0.517,0.254 0.896,0.254c0.248,-0 0.51,-0.029 0.786,-0.087c0.276,-0.057 0.566,-0.148 0.871,-0.272l-0,0.594c-0.28,0.107 -0.546,0.189 -0.797,0.247c-0.251,0.058 -0.509,0.086 -0.773,0.086" style="fill:#afafaf;fill-rule:nonzero;"/><path d="M203.986,61.918c-0.182,-0 -0.336,-0.066 -0.464,-0.198c-0.128,-0.132 -0.192,-0.289 -0.192,-0.47c-0,-0.19 0.064,-0.348 0.192,-0.476c0.128,-0.128 0.282,-0.192 0.464,-0.192c0.181,-0 0.336,0.064 0.463,0.192c0.128,0.128 0.192,0.286 0.192,0.476c-0,0.181 -0.064,0.338 -0.192,0.47c-0.127,0.132 -0.282,0.198 -0.463,0.198" style="fill:#afafaf;fill-rule:nonzero;"/><path d="M211.386,61.918c-0.182,-0 -0.336,-0.066 -0.464,-0.198c-0.128,-0.132 -0.192,-0.289 -0.192,-0.47c-0,-0.19 0.064,-0.348 0.192,-0.476c0.128,-0.128 0.282,-0.192 0.464,-0.192c0.181,-0 0.336,0.064 0.463,0.192c0.128,0.128 0.192,0.286 0.192,0.476c-0,0.181 -0.064,0.338 -0.192,0.47c-0.127,0.132 -0.282,0.198 -0.463,0.198" style="fill:#afafaf;fill-rule:nonzero;"/><path d="M218.786,61.918c-0.182,-0 -0.336,-0.066 -0.464,-0.198c-0.128,-0.132 -0.192,-0.289 -0.192,-0.47c-0,-0.19 0.064,-0.348 0.192,-0.476c0.128,-0.128 0.282,-0.192 0.464,-0.192c0.181,-0 0.336,0.064 0.463,0.192c0.128,0.128 0.192,0.286 0.192,0.476c-0,0.181 -0.064,0.338 -0.192,0.47c-0.127,0.132 -0.282,0.198 -0.463,0.198" style="fill:#afafaf;fill-rule:nonzero;"/></g></svg>