<?xml version="1.0" encoding="UTF-8" standalone="no"?>
<!DOCTYPE svg PUBLIC "-//W3C//DTD SVG 1.1//EN" "http://www.w3.org/Graphics/SVG/1.1/DTD/svg11.dtd">
<svg width="100%" height="100%" viewBox="0 0 35 35" version="1.1" xmlns="http://www.w3.org/2000/svg" xmlns:xlink="http://www.w3.org/1999/xlink" xml:space="preserve" xmlns:serif="http://www.serif.com/" style="fill-rule:evenodd;clip-rule:evenodd;stroke-linejoin:round;stroke-miterlimit:2;">
    <g transform="matrix(1,0,0,1,-6.05966,-8.35552)">
        <g id="microsoft-windows-icon-2015-2021-logo-brandlogos.net_tuvtrctsn.svg" transform="matrix(0.0330415,0,0,0.0330415,13.0022,16.8478)">
            <g transform="matrix(1,0,0,1,-210.115,-210.885)">
                <clipPath id="_clip1">
                    <rect x="0" y="0" width="420.23" height="421.77"/>
                </clipPath>
                <g clip-path="url(#_clip1)">
                    <g id="Layer_1-2">
                        <g id="_26257872464">
                            <path id="path5" d="M192.42,33.87C267.84,21.55 344.81,10.78 420.23,0L420.23,200.11C344.8,200.11 267.84,201.65 192.41,201.65L192.41,33.87L192.42,33.87Z" style="fill:rgb(0,120,214);fill-rule:nonzero;"/>
                            <path id="path7" d="M0,60.03C56.95,50.79 113.91,43.1 172.4,36.94L172.4,201.65C113.91,201.65 56.95,203.19 0,203.19L0,60.03Z" style="fill:rgb(0,120,214);fill-rule:nonzero;"/>
                            <path id="path29" d="M0,220.12C56.95,220.12 113.91,221.66 172.4,220.12L172.4,386.37C113.91,378.67 56.95,370.98 0,363.28L0,220.12Z" style="fill:rgb(0,120,214);fill-rule:nonzero;"/>
                            <path id="path31" d="M192.42,221.66L420.24,221.66L420.24,421.77C344.81,409.46 267.85,400.22 192.42,389.44L192.42,221.65L192.42,221.66Z" style="fill:rgb(0,120,214);fill-rule:nonzero;"/>
                        </g>
                    </g>
                </g>
            </g>
        </g>
        <g id="linux-logo-ukslisau.svg" transform="matrix(0.119398,0,0,0.119398,33.6065,16.4746)">
            <g transform="matrix(1,0,0,1,-56,-68)">
                <clipPath id="_clip2">
                    <rect x="0" y="0" width="112" height="136"/>
                </clipPath>
                <g clip-path="url(#_clip2)">
                    <path d="M107.775,106.801C107.773,106.8 107.772,106.798 107.772,106.796C106.814,105.715 106.358,103.711 105.867,101.576C105.378,99.442 104.83,97.141 103.078,95.65C103.075,95.646 103.07,95.644 103.067,95.64C102.72,95.337 102.363,95.082 102.005,94.868C101.645,94.655 101.281,94.482 100.916,94.344C103.351,87.123 102.397,79.931 99.938,73.434C96.922,65.458 91.655,58.509 87.633,53.756C83.13,48.076 78.727,42.685 78.814,34.721C78.948,22.568 80.15,0.03 58.763,0C57.894,-0.001 56.986,0.035 56.041,0.111C32.141,2.034 38.481,27.285 38.126,35.739C37.688,41.923 36.435,46.796 32.182,52.84C27.187,58.78 20.151,68.396 16.82,78.407C15.248,83.13 14.5,87.945 15.19,92.503C14.974,92.697 14.769,92.901 14.571,93.109C13.105,94.676 12.021,96.573 10.814,97.85C9.685,98.977 8.079,99.404 6.311,100.037C4.544,100.671 2.604,101.606 1.427,103.865C1.427,103.865 1.427,103.867 1.425,103.867C1.423,103.87 1.422,103.875 1.419,103.878C0.865,104.912 0.685,106.028 0.685,107.159C0.685,108.206 0.839,109.266 0.996,110.287C1.321,112.411 1.651,114.42 1.213,115.781C-0.184,119.605 -0.365,122.248 0.62,124.167C1.608,126.09 3.636,126.937 5.929,127.417C10.515,128.373 16.726,128.136 21.619,130.731L22.041,129.937L21.624,130.732C26.864,133.472 32.176,134.445 36.413,133.477C39.487,132.776 41.981,130.946 43.262,128.13C46.577,128.114 50.214,126.71 56.041,126.389C59.994,126.071 64.932,127.794 70.612,127.478C70.76,128.094 70.975,128.687 71.269,129.25C71.272,129.255 71.275,129.261 71.278,129.266C73.48,133.669 77.57,135.683 81.931,135.339C86.296,134.995 90.937,132.421 94.691,127.957L94.002,127.379L94.695,127.95C98.272,123.613 104.207,121.816 108.145,119.442C110.112,118.255 111.708,116.769 111.833,114.61C111.955,112.453 110.688,110.035 107.775,106.801" style="fill:rgb(32,32,32);fill-rule:nonzero;"/>
                    <path d="M110.037,114.508C109.961,115.84 108.997,116.83 107.215,117.903C103.655,120.05 97.344,121.919 93.315,126.8C89.814,130.965 85.547,133.252 81.789,133.549C78.031,133.845 74.79,132.286 72.876,128.45L72.874,128.442L72.87,128.432C71.683,126.175 72.177,122.616 73.176,118.861C74.175,115.106 75.611,111.249 75.803,108.116L75.803,108.107C76.004,104.092 76.231,100.585 76.905,97.879C77.58,95.172 78.641,93.341 80.524,92.311C80.612,92.264 80.699,92.218 80.786,92.175C80.998,95.652 82.721,99.2 85.763,99.966C89.093,100.844 93.891,97.987 95.918,95.657C96.324,95.641 96.719,95.62 97.102,95.611C98.881,95.568 100.37,95.671 101.894,97.003L101.905,97.011C103.076,98.003 103.632,99.878 104.116,101.977C104.599,104.078 104.983,106.364 106.433,107.995L106.434,107.996L106.435,108C109.22,111.088 110.115,113.175 110.037,114.508" style="fill:rgb(255,205,0);fill-rule:nonzero;"/>
                    <path d="M42.372,124.352L42.371,124.361L42.371,124.373C42.049,128.592 39.669,130.89 36.014,131.725C32.362,132.56 27.408,131.728 22.462,129.142C22.46,129.142 22.459,129.14 22.457,129.14C16.984,126.241 10.474,126.53 6.297,125.657C4.209,125.221 2.845,124.565 2.22,123.347C1.596,122.127 1.581,120.001 2.91,116.376L2.916,116.36L2.921,116.344C3.579,114.316 3.092,112.097 2.773,110.014C2.454,107.933 2.298,106.037 3.009,104.718L3.016,104.705C3.926,102.95 5.262,102.322 6.918,101.729C8.577,101.134 10.542,100.667 12.093,99.111L12.103,99.102L12.111,99.095C13.545,97.581 14.623,95.683 15.884,94.337C16.948,93.2 18.013,92.447 19.618,92.436C19.637,92.438 19.654,92.438 19.673,92.436C19.954,92.438 20.252,92.462 20.568,92.511C22.699,92.833 24.556,94.322 26.346,96.749L31.513,106.166L31.515,106.171L31.518,106.174C32.892,109.045 35.796,112.203 38.256,115.424C40.717,118.644 42.62,121.877 42.372,124.352" style="fill:rgb(255,205,0);fill-rule:nonzero;"/>
                    <path d="M68.141,36.565C67.726,35.752 66.878,34.979 65.436,34.387L65.428,34.384C62.428,33.099 61.126,33.008 59.452,31.919C56.726,30.167 54.474,29.553 52.602,29.561C51.622,29.564 50.746,29.738 49.962,30.009C47.682,30.794 46.168,32.43 45.22,33.328L45.218,33.33C45.218,33.331 45.217,33.331 45.217,33.333C45.03,33.51 44.79,33.671 44.209,34.097C43.624,34.524 42.746,35.168 41.484,36.115C40.362,36.956 39.997,38.052 40.386,39.335C40.772,40.618 42.01,42.098 44.273,43.378L44.276,43.381L44.281,43.383C45.685,44.208 46.645,45.321 47.746,46.206C48.297,46.648 48.876,47.043 49.574,47.341C50.271,47.639 51.086,47.841 52.105,47.901C54.497,48.04 56.259,47.322 57.813,46.432C59.371,45.543 60.69,44.456 62.204,43.965L62.207,43.963L62.21,43.962C65.313,42.993 67.526,41.041 68.218,39.186C68.565,38.258 68.555,37.378 68.141,36.565" style="fill:rgb(255,205,0);fill-rule:nonzero;"/>
                    <path d="M60.269,41.145C57.801,42.432 54.917,43.992 51.85,43.992C48.783,43.992 46.361,42.575 44.619,41.194C43.747,40.504 43.04,39.818 42.507,39.319C41.582,38.589 41.692,37.564 42.072,37.594C42.71,37.674 42.806,38.513 43.207,38.888C43.75,39.396 44.431,40.054 45.254,40.708C46.902,42.013 49.099,43.283 51.85,43.283C54.596,43.283 57.801,41.671 59.758,40.574C60.866,39.952 62.277,38.837 63.428,37.992C64.309,37.346 64.277,36.567 65.004,36.652C65.731,36.737 65.193,37.514 64.175,38.403C63.156,39.291 61.563,40.47 60.269,41.145" style="fill:rgb(32,32,32);fill-rule:nonzero;"/>
                    <path d="M98.066,93.818C97.723,93.805 97.386,93.807 97.057,93.815C97.027,93.816 96.998,93.816 96.966,93.816C97.814,91.14 95.939,89.165 90.942,86.905C85.761,84.627 81.632,84.852 80.935,89.476C80.891,89.718 80.855,89.965 80.828,90.215C80.44,90.351 80.051,90.521 79.66,90.734C77.228,92.066 75.899,94.481 75.16,97.445C74.423,100.405 74.21,103.983 74.008,108.006L74.008,108.009C73.883,110.031 73.05,112.767 72.208,115.665C63.72,121.72 51.941,124.343 41.938,117.516C41.261,116.444 40.483,115.382 39.683,114.334C39.172,113.665 38.646,113.001 38.126,112.344C39.151,112.346 40.024,112.177 40.73,111.858C41.607,111.459 42.222,110.821 42.528,110.001C43.138,108.361 42.525,106.047 40.573,103.404C38.621,100.762 35.315,97.781 30.457,94.801L30.457,94.8C26.887,92.579 24.893,89.858 23.958,86.904C23.023,83.948 23.153,80.752 23.875,77.598C25.257,71.542 28.808,65.652 31.074,61.956C31.683,61.508 31.292,62.79 28.779,67.455C26.529,71.719 22.32,81.56 28.082,89.243C28.236,83.776 29.542,78.201 31.734,72.985C34.926,65.749 41.604,53.198 42.134,43.195C42.409,43.394 43.348,44.028 43.766,44.267C43.767,44.268 43.767,44.268 43.769,44.268C44.994,44.989 45.914,46.044 47.105,47.002C48.3,47.961 49.791,48.79 52.045,48.921C52.261,48.933 52.473,48.94 52.679,48.94C55.003,48.94 56.814,48.182 58.323,47.319C59.963,46.381 61.273,45.343 62.515,44.939C62.516,44.937 62.518,44.937 62.519,44.937C65.144,44.117 67.229,42.665 68.415,40.973C70.454,49.009 75.195,60.617 78.243,66.281C79.863,69.285 83.086,75.671 84.478,83.364C85.36,83.337 86.333,83.465 87.372,83.732C91.013,74.293 84.285,64.128 81.208,61.297C79.966,60.091 79.906,59.551 80.523,59.576C83.859,62.529 88.242,68.464 89.836,75.165C90.563,78.221 90.718,81.434 89.939,84.605C90.318,84.762 90.707,84.934 91.1,85.121C96.944,87.966 99.104,90.441 98.066,93.818" style="fill:white;fill-rule:nonzero;"/>
                    <path d="M68.415,27.307C68.428,28.899 68.153,30.255 67.549,31.639C67.205,32.428 66.809,33.091 66.333,33.665C66.172,33.588 66.005,33.514 65.832,33.443C65.23,33.186 64.699,32.974 64.222,32.794C63.745,32.614 63.373,32.492 62.99,32.359C63.268,32.023 63.815,31.627 64.019,31.13C64.328,30.38 64.479,29.648 64.508,28.775C64.508,28.74 64.519,28.71 64.519,28.669C64.537,27.833 64.426,27.118 64.182,26.386C63.926,25.617 63.601,25.065 63.13,24.605C62.659,24.146 62.188,23.938 61.623,23.919C61.596,23.917 61.571,23.917 61.544,23.917C61.014,23.919 60.553,24.102 60.077,24.5C59.576,24.918 59.205,25.453 58.896,26.198C58.588,26.943 58.437,27.681 58.407,28.559C58.402,28.593 58.402,28.623 58.402,28.658C58.391,29.141 58.423,29.583 58.497,30.012C57.411,29.471 56.022,29.076 55.062,28.847C55.007,28.432 54.976,28.005 54.966,27.556L54.966,27.435C54.949,25.847 55.209,24.485 55.82,23.103C56.431,21.719 57.186,20.724 58.25,19.915C59.315,19.107 60.362,18.736 61.601,18.723L61.659,18.723C62.871,18.723 63.908,19.08 64.973,19.852C66.054,20.638 66.834,21.619 67.462,22.992C68.078,24.331 68.374,25.639 68.404,27.19C68.404,27.231 68.404,27.266 68.415,27.307" style="fill:white;fill-rule:nonzero;"/>
                    <path d="M50.096,28.894C49.937,28.94 49.782,28.988 49.629,29.041C48.761,29.34 48.072,29.671 47.406,30.112C47.471,29.651 47.48,29.183 47.429,28.661C47.425,28.633 47.425,28.609 47.425,28.581C47.355,27.888 47.208,27.307 46.964,26.72C46.703,26.11 46.411,25.679 46.028,25.347C45.681,25.047 45.352,24.908 44.99,24.912C44.953,24.912 44.915,24.913 44.878,24.916C44.471,24.951 44.133,25.15 43.812,25.54C43.493,25.927 43.284,26.411 43.132,27.052C42.981,27.691 42.941,28.319 43.004,29.04C43.004,29.069 43.011,29.092 43.011,29.121C43.08,29.82 43.221,30.401 43.47,30.988C43.725,31.592 44.022,32.023 44.406,32.353C44.471,32.41 44.534,32.459 44.596,32.504C44.199,32.812 43.932,33.03 43.603,33.27C43.393,33.423 43.144,33.606 42.854,33.821C42.221,33.227 41.727,32.483 41.295,31.499C40.783,30.337 40.51,29.174 40.428,27.802L40.428,27.791C40.352,26.418 40.487,25.237 40.864,24.016C41.242,22.794 41.747,21.911 42.481,21.185C43.214,20.456 43.952,20.091 44.843,20.045C44.912,20.042 44.98,20.04 45.048,20.04C45.854,20.042 46.574,20.31 47.319,20.905C48.126,21.551 48.737,22.376 49.249,23.539C49.762,24.702 50.034,25.865 50.11,27.238L50.11,27.249C50.147,27.825 50.142,28.368 50.096,28.894" style="fill:white;fill-rule:nonzero;"/>
                    <path d="M54.145,32.178C54.247,32.505 54.775,32.45 55.08,32.609C55.348,32.746 55.563,33.049 55.864,33.057C56.151,33.066 56.599,32.958 56.636,32.673C56.686,32.295 56.136,32.057 55.782,31.919C55.327,31.741 54.743,31.651 54.316,31.889C54.218,31.944 54.111,32.071 54.145,32.178" style="fill:rgb(32,32,32);fill-rule:nonzero;"/>
                    <path d="M51.026,32.178C50.924,32.505 50.396,32.45 50.09,32.609C49.823,32.746 49.608,33.049 49.306,33.057C49.019,33.066 48.572,32.958 48.535,32.673C48.485,32.295 49.035,32.057 49.389,31.919C49.844,31.741 50.427,31.651 50.855,31.889C50.952,31.944 51.059,32.071 51.026,32.178" style="fill:rgb(32,32,32);fill-rule:nonzero;"/>
                </g>
            </g>
        </g>
        <g transform="matrix(1.14977,0,0,1.14977,-21.4041,-4.09452)">
            <g transform="matrix(0.125642,0,0,0.125642,26.9946,26.2756)">
                <path d="M99.3,83.66C85.77,84.19 71.18,81.64 58.88,75.49L61.43,71.45C73.38,77.07 87.09,79.01 99.3,78.48C99.3,78.92 99.83,70.22 100.62,65.47L82.26,65.47C83.93,46.31 89.82,29.27 98.61,14.77L43.69,14.77L43.69,98.43L101.42,98.43C100.1,93.42 99.31,83.49 99.31,83.67L99.3,83.66Z" style="fill:rgb(198,233,250);fill-rule:nonzero;"/>
            </g>
            <g transform="matrix(0.125642,0,0,0.125642,26.9946,26.2756)">
                <path d="M104.84,78.12C114.86,77.15 123.64,74.52 129.01,71.09L132.17,75.13C124.79,79.44 115.21,82.25 104.84,83.3C105.1,88.48 105.89,93.4 107.21,98.41L146.75,98.41L146.75,14.76L104.66,14.76C95.7,28.47 90.6,43.76 88.67,59.93L107.56,59.93C105.98,66.08 105.01,72.14 104.84,78.12Z" style="fill:rgb(0,173,238);fill-rule:nonzero;"/>
            </g>
            <g transform="matrix(0.125642,0,0,0.125642,26.9946,26.2756)">
                <rect x="68.63" y="27.42" width="5.36" height="12.39" style="fill:rgb(0,173,238);fill-rule:nonzero;"/>
            </g>
            <g transform="matrix(0.125642,0,0,0.125642,26.9946,26.2756)">
                <rect x="113.27" y="27.42" width="5.36" height="12.39" style="fill:rgb(35,31,32);fill-rule:nonzero;"/>
            </g>
            <g transform="matrix(0.125642,0,0,0.125642,26.9946,26.2756)">
                <path d="M104.84,78.12C114.86,77.15 123.64,74.52 129.01,71.09L132.17,75.13C124.79,79.44 115.21,82.25 104.84,83.3C105.28,92.61 107.56,101.84 112.13,110.72L107.56,113.18C99.21,100 97.72,82.25 100.62,65.46L82.26,65.46C84.54,39.36 94.56,17.22 109.15,-0.01L113.1,3.42C98.87,19.94 91.04,39.19 88.67,59.92L107.56,59.92C105.98,66.07 105.01,72.13 104.84,78.11L104.84,78.12Z" style="fill:rgb(35,31,32);fill-rule:nonzero;"/>
            </g>
            <g transform="matrix(0.125642,0,0,0.125642,26.9946,26.2756)">
                <path d="M99.3,78.47L99.3,83.65C85.77,84.18 71.18,81.63 58.88,75.48L61.43,71.44C73.38,77.06 87.09,79 99.3,78.47Z" style="fill:rgb(0,173,238);fill-rule:nonzero;"/>
            </g>
        </g>
    </g>
</svg>
