<svg xmlns="http://www.w3.org/2000/svg" xmlns:xlink="http://www.w3.org/1999/xlink" xmlns:serif="http://www.serif.com/" version="1.1" xml:space="preserve" style="fill-rule:evenodd;clip-rule:evenodd;stroke-linecap:round;stroke-miterlimit:10;" viewBox="0 0 4525 3850"><rect id="Page-8" serif:id="Page 8" x="0" y="0" width="4525" height="3850" style="fill:none;"></rect><clipPath id="_clip1"><rect x="0" y="0" width="4525" height="3850"></rect></clipPath><g clip-path="url(#_clip1)"><g id="Layer-1" serif:id="Layer 1"><path d="M1931.77,2486.77c36.613,207.934 -102.271,406.179 -310.204,442.792c-207.937,36.617 -406.183,-102.271 -442.796,-310.204c-36.612,-207.934 102.271,-406.179 310.209,-442.792c207.933,-36.617 406.179,102.271 442.791,310.204" style="fill:#fff;fill-rule:nonzero;"></path><path d="M1943.43,2421.2c29.758,169 -83.121,330.12 -252.121,359.879c-168.996,29.758 -330.121,-83.121 -359.879,-252.121c-29.758,-168.996 83.121,-330.121 252.121,-359.879c169,-29.754 330.121,83.121 359.879,252.121" style="fill:#fff;fill-rule:nonzero;"></path><path d="M1852.08,2298.41c47.566,56.717 66.275,119.346 41.783,139.888c-24.492,20.537 -82.908,-8.788 -130.475,-65.505c-47.567,-56.716 -66.275,-119.345 -41.783,-139.887c24.491,-20.538 82.908,8.787 130.475,65.504" style="fill:#fff;fill-rule:nonzero;"></path><path d="M1852.08,2298.41c47.566,56.717 66.275,119.346 41.783,139.888c-24.492,20.537 -82.908,-8.788 -130.475,-65.505c-47.567,-56.716 -66.275,-119.345 -41.783,-139.887c24.491,-20.538 82.908,8.787 130.475,65.504" style="fill:#fff;fill-rule:nonzero;"></path><path d="M1852.08,2298.41c47.566,56.717 66.275,119.346 41.783,139.888c-24.492,20.537 -82.908,-8.788 -130.475,-65.505c-47.567,-56.716 -66.275,-119.345 -41.783,-139.887c24.491,-20.538 82.908,8.787 130.475,65.504" style="fill:#fff;fill-rule:nonzero;"></path><path d="M2051.91,2471.48c36.375,206.591 233.341,344.579 439.933,308.204c206.592,-36.379 344.579,-233.342 308.204,-439.938c-36.375,-206.591 -233.342,-344.579 -439.933,-308.2c-206.592,36.375 -344.579,233.342 -308.204,439.934" style="fill:#fff;fill-rule:nonzero;"></path><path d="M2767.1,2263.47c29.566,167.909 -82.584,327.992 -250.492,357.559c-167.908,29.562 -327.992,-82.588 -357.558,-250.496c-29.563,-167.904 82.587,-327.988 250.496,-357.554c167.904,-29.567 327.987,82.583 357.554,250.491" style="fill:#fff;fill-rule:nonzero;"></path><path d="M2677.07,2145.65c47.258,56.35 65.846,118.575 41.512,138.984c-24.333,20.408 -82.371,-8.73 -129.629,-65.08c-47.262,-56.35 -65.846,-118.575 -41.517,-138.983c24.334,-20.408 82.375,8.729 129.634,65.079" style="fill:#fff;fill-rule:nonzero;"></path><path d="M2677.07,2145.65c47.258,56.35 65.846,118.575 41.512,138.984c-24.333,20.408 -82.371,-8.73 -129.629,-65.08c-47.262,-56.35 -65.846,-118.575 -41.517,-138.983c24.334,-20.408 82.375,8.729 129.634,65.079" style="fill:#fff;fill-rule:nonzero;"></path><path d="M2677.07,2145.65c47.258,56.35 65.846,118.575 41.512,138.984c-24.333,20.408 -82.371,-8.73 -129.629,-65.08c-47.262,-56.35 -65.846,-118.575 -41.517,-138.983c24.334,-20.408 82.375,8.729 129.634,65.079" style="fill:#fff;fill-rule:nonzero;"></path><path d="M1875.29,2485.57c11.737,-12.655 28.087,-16.571 36.525,-8.746c8.437,7.825 5.762,24.425 -5.975,37.079c-11.738,12.654 -28.088,16.571 -36.525,8.746c-8.438,-7.825 -5.763,-24.425 5.975,-37.079" style="fill:#fff;fill-rule:nonzero;"></path><path d="M2702.03,2326.2c11.738,-12.655 28.088,-16.571 36.525,-8.746c8.438,7.825 5.763,24.425 -5.975,37.079c-11.737,12.654 -28.087,16.571 -36.525,8.746c-8.437,-7.825 -5.762,-24.425 5.975,-37.079" style="fill:#fff;fill-rule:nonzero;"></path><path d="M4072.71,902.244c28.984,316.237 -202.837,596 -517.787,624.866c-314.95,28.863 -593.763,-204.1 -622.746,-520.337c-28.983,-316.238 202.842,-596 517.787,-624.863c314.95,-28.866 593.763,204.096 622.746,520.334" style="fill:#fff;fill-rule:nonzero;"></path><path d="M4245.56,900.884c13.337,145.516 -104.033,275.225 -262.154,289.716c-158.117,14.492 -297.109,-91.72 -310.446,-237.237c-13.338,-145.517 104.033,-275.229 262.15,-289.721c158.121,-14.492 297.112,91.725 310.45,237.242" style="fill:#fff;fill-rule:nonzero;"></path><path d="M4123.77,1226.96c13.338,145.517 -104.033,275.225 -262.154,289.717c-158.116,14.492 -297.108,-91.721 -310.446,-237.237c-13.337,-145.517 104.034,-275.23 262.15,-289.721c158.121,-14.488 297.113,91.725 310.45,237.241" style="fill:#fff;fill-rule:nonzero;"></path><path d="M3811.49,1335.4c13.338,145.516 -104.033,275.225 -262.154,289.716c-158.116,14.492 -297.108,-91.72 -310.446,-237.237c-13.337,-145.517 104.034,-275.229 262.15,-289.721c158.121,-14.492 297.113,91.725 310.45,237.242" style="fill:#fff;fill-rule:nonzero;"></path><path d="M3445.07,1243.74c13.337,145.517 -104.034,275.225 -262.155,289.717c-158.116,14.491 -297.108,-91.721 -310.445,-237.238c-13.338,-145.516 104.033,-275.229 262.15,-289.721c158.12,-14.491 297.112,91.725 310.45,237.242" style="fill:#fff;fill-rule:nonzero;"></path><path d="M3328.58,914.401c13.337,145.517 -104.034,275.225 -262.154,289.717c-158.117,14.492 -297.109,-91.721 -310.446,-237.238c-13.338,-145.516 104.033,-275.229 262.154,-289.72c158.117,-14.492 297.108,91.725 310.446,237.241" style="fill:#fff;fill-rule:nonzero;"></path><path d="M3411.92,597.448c13.338,145.517 -104.033,275.225 -262.154,289.717c-158.117,14.492 -297.108,-91.721 -310.446,-237.238c-13.337,-145.516 104.034,-275.229 262.15,-289.72c158.121,-14.492 297.113,91.725 310.45,237.241" style="fill:#fff;fill-rule:nonzero;"></path><path d="M3757.56,447.229c13.337,145.516 -104.034,275.225 -262.155,289.716c-158.116,14.492 -297.108,-91.72 -310.445,-237.237c-13.338,-145.517 104.033,-275.229 262.15,-289.721c158.12,-14.492 297.112,91.725 310.45,237.242" style="fill:#fff;fill-rule:nonzero;"></path><path d="M4124,588.842c13.337,145.517 -104.034,275.225 -262.154,289.717c-158.117,14.492 -297.109,-91.721 -310.446,-237.237c-13.338,-145.517 104.033,-275.23 262.15,-289.721c158.121,-14.492 297.112,91.725 310.45,237.241" style="fill:#fff;fill-rule:nonzero;"></path><path d="M2871.79,1510.64c0.696,71.2 -85.175,129.766 -191.8,130.812c-106.625,1.042 -193.629,-55.829 -194.325,-127.029c-0.7,-71.2 85.171,-129.767 191.8,-130.813c106.625,-1.041 193.629,55.83 194.325,127.03" style="fill:#fff;fill-rule:nonzero;"></path><path d="M2487.38,1701.79c0.438,44.871 -58.895,81.829 -132.529,82.55c-73.637,0.725 -133.683,-35.066 -134.125,-79.937c-0.437,-44.871 58.896,-81.834 132.529,-82.554c73.638,-0.721 133.684,35.07 134.125,79.941" style="fill:#fff;fill-rule:nonzero;"></path><path d="M3423.49,1257.23c0,0 35.883,5.3 49.971,-59.075c14.087,-64.371 61.967,-155.837 188.771,-192.108c126.804,-36.271 171.404,-113.325 187.3,-220.967c15.896,-107.646 -65.663,-284.675 -299.813,-328.412c-217.529,-32.121 -362.216,125.25 -381.196,207.229c-18.979,81.983 -3.987,166.692 60.055,183.021c64.041,16.333 99.891,-40.246 93.979,-77.784c-5.917,-37.537 -0.65,-135.291 183.396,-140.195c185.291,2.154 201.379,125.979 200.97,144.25c-0.404,18.27 8.85,95.258 -154.979,165.016c-163.829,69.759 -157.266,242.588 -156.425,267.921c0.842,25.329 0.767,41.358 27.971,51.104" style="fill:#fff;fill-rule:nonzero;"></path><path d="M3484.15,1370.83c-0,39.121 -31.713,70.834 -70.834,70.834c-39.12,-0 -70.833,-31.713 -70.833,-70.834c0,-39.12 31.713,-70.833 70.833,-70.833c39.121,0 70.834,31.713 70.834,70.833" style="fill:#fff;fill-rule:nonzero;"></path><path d="M2965.93,2130.16l194.546,8.987l-257.817,35.975l-13.362,18.396l374.896,-22.65l46.904,19.029l-55.5,27.654l-314.159,38.713l273.367,8.212l36.967,21.48l-58.567,22.495l7.971,21.8l-236.983,12.555l75.779,21.879l-96.571,11.708l26.813,19.763l-90.296,7.75l332.341,59.308l-155.912,-0.667l-30.288,14.604l135.163,44.2l-101.296,1.225l-207.9,-26.125l379.221,107.85l-259.679,-43.908l-137.271,-19.45l78.35,39.896l142.879,63.717l-226.487,-55.446l272.591,114.687l-231.904,-65.166l262.783,123.2l-43.35,5.758l99.034,67.137l-217.759,-74.879l138.08,88.521l-158.446,-55.271l28.47,36.988l-211.504,-93.842l317.559,201.329l17.983,37.242l-56.6,-7.858l77.8,77.154l-170.938,-86.021l-40.037,-2.538l142.3,128.596l-256.933,-164.304l204.22,183.133l-72.079,-28.75l-261.191,-191.437l-29.155,-4.129l176.005,180.296l-102.042,-68.134l136.179,157.3l-231.237,-202.129l33.508,58.308l111.746,146.325l42.3,78.317l45.666,86.963l-51.116,-24.267l-143.671,-142.842l152.258,228.988l-127.537,-131.004l23.008,68.175l-147.729,-175.292l76.783,148.604l21.521,73.013l-159.621,-217.809l58.75,134.584l-67.246,-78.175l-64.308,-80.4l155.8,337.108l5.629,63.692l-221.925,-412.813l30.488,106.204l77.575,225.85l-22.904,2.321l-122.509,-255.45l31.996,136.254l18.704,113.113l-109.937,-267.5l16.021,107.5l-14.05,16.866l8.525,102.609l26.962,191.308l-109.604,-369.725l-14.467,12.642l-22.296,-25.859l9.692,149.867l10.792,190.321l-32.484,-70.546l-48.366,-222.075l19.512,351.771l-19.987,39.4l-35.259,-163.975l-22.766,-33.967l-21.925,-46.412l-18.646,61.004l-20.104,-170.667l-21.829,202.204l-21.267,1.238l-27.517,109.575l1,-323.608l-15.383,-22.663l-52.413,316.713l-20.616,-18.33l10.141,-222.395l-63.02,265.854l-22.346,-8.021l-10.375,-66.088l-11.034,-52.766l-26.37,18.333l-11.63,-41.708l0.688,-80.746l11.312,-106.525l13.525,-101.046l-89.383,214.138l-82.212,169.608l45.662,-186.796l65.629,-218.417l-41.446,57.292l-9.775,-20.554l-63,95.692l12.771,-69.9l-48.241,55.875l-4.738,-31.759l-118.862,176.763l75.162,-175.338l-112.1,150.038l160.879,-299.896l-109.212,138.421l75.333,-146.325l-11.737,-11.942l-234.925,295.075l63.091,-121.908l-129.466,131.771l141.5,-212.205l-161.7,161.863l70.02,-115.917l-56.487,30.975l-58.279,29.729l82.9,-118.729l160.516,-188.658l-139.058,110.662l106.008,-124.579l-51.97,24.15l-4.25,-19.5l-171.484,119.759l-67.521,27.012l185.167,-171.054l-64.771,25.9l141.888,-124.979l-267.504,165.271l19.85,-38.717l-138.925,64.083l52.158,-59.304l-9.333,-20.012l272.4,-178.792l-285.338,135.908l-111.171,33.009l347.784,-198.642l0.333,-18.538l-207.821,75.613l-30.083,-9.317l-167.454,45.829l367.92,-168.208l-171.437,45.117l-184.05,42.796l315.975,-127.688l-341.767,87.046l387.534,-135.888l-415.5,94.925l261.383,-89.67l-143.025,13.745l-107.971,1.163l50.679,-33.442l86.492,-37.733l-151.788,3.183l369.488,-75.196l-299.5,19.9l278.85,-51.05l-240.321,3.846l265.908,-39.358l-120.358,-10.25l-212.942,-11.492l188.809,-25.041l36.946,-18.742l69.7,-16.725l-125.475,-21.846l103.466,-13.333l64.571,-12.554l-91.3,-24.784l-206.179,-40.954l192.529,3.129l8.079,-17.2l118.217,1.325l-13.838,-18.825l-283.47,-74.35l224.008,27.734l-347.713,-101.93l150.438,14.363l-129.021,-58.229l411.254,98.121l-385.15,-139.817l70.704,-0.971l310.934,87.704l-25.254,-27.35l-323.163,-147.633l283.983,93.804l-26.783,-31.754l-12.1,-26.425l-100.6,-70.188l-86.033,-67.641l140.608,48.021l-117.821,-88.759l72.325,14.729l0.096,-25.679l98.638,35.271l94.466,36.892l-248.462,-190.159l96.083,37.705l321.933,206.387l-213.937,-181.158l-92.708,-98.838l-13.917,-40.971l4.067,-27.533l47.554,9.738l238.15,184.191l54.946,27.054l-174.934,-193.375l206.975,177.971l-179.766,-211.504l-14.992,-47.887l-16.142,-51.609l78.592,55.754l189.787,194.934l-49.2,-88.15l21.667,-2.109l30.9,11.005l-83.15,-146.65l-72.812,-142.25l169.591,213.179l71.971,78.121l-140.262,-261.305l194.77,287.638l-185.875,-362.025l190.246,303.2l-46.979,-127.346l59.946,77.838l-104.475,-261.984l117.483,205.8l-39.141,-137.541l-46.342,-168.671l35.475,25.287l10.746,-38.321l80.587,159.596l22.467,2.167l98.337,250.275l10.28,-21.175l-97.346,-424.288l70.796,185.405l34.562,59.529l6.9,-59.488l-14.675,-181.087l38.667,85.404l62.012,253.454l3.179,-100.654l-11.758,-251.621l67.317,421.05l-12.496,-327.562l34.579,189.566l3.471,-290.183l33.108,299.367l19.221,86.925l17.442,-348.842l15.596,333.754l22.375,-147.083l17.562,30.691l13.754,67.113l48.663,-333.05l24.6,-7.717l-10.929,269.275l58.945,-268.933l-32.462,340.562l66.237,-260.595l-20.395,213.245l78.133,-265.058l2.783,89.396l5.709,65.858l-49.438,254.763l21.367,-14.346l102.746,-267.346l-14.896,112.092l-3.563,68.716l99.546,-210.054l25.742,-2.983l32.537,-18.029l37.28,-26.196l-138.33,356.5l57.942,-79.621l63.875,-83.696l80.213,-106.683l-49.742,138.271l-58.404,142.987l80.079,-98.516l11.216,20.258l0.021,36.775l132.18,-161.125l-48.713,109.896l-131.529,216.637l141.733,-160.225l-89.233,146.971l-45.475,83.488l108.271,-104.255l97.054,-83.329l-133.675,178.413l302.787,-298.663l-261.05,303.384l58.384,-33.946l-80.767,102.65l137.017,-105.054l31.396,-2.592l195.149,-142.358l-293.05,274.079l342.726,-253.096l-310.23,269.825l132.3,-77.383l-72.683,76.05l-32.729,44.016l2.375,18.513l279.887,-158.688l35.238,4.638l-46.525,53.858l15.591,16.05l-101.02,79.304l111.625,-35.841l-227.771,136.72l34.908,2.05l216.775,-78.712l143.021,-38.054l-414.45,195.171l138.546,-36.667l103.592,-18.392l62.483,-0.212l89.358,-6.771l-289.362,112.804l-73.688,39.254l124.863,-17.087l326.725,-62.904l-375.559,111.379l356.271,-58.234l-159.146,54.775l-143.629,46.109Z" style="fill-rule:nonzero;"></path><path d="M1295.15,2030.89c-139.492,-224.162 -397.563,-328.508 -621.667,-262.846c-244.25,71.571 -336.112,312.275 -346.25,340.2" style="fill:none;fill-rule:nonzero;stroke:#000;stroke-width:112.5px;"></path><path d="M1352.08,2351.09c-158.416,-211.213 -424.566,-292.775 -642.125,-207.917c-237.125,92.496 -307.75,340.263 -315.429,368.959" style="fill:none;fill-rule:nonzero;stroke:#000;stroke-width:112.5px;"></path><path d="M1453.45,2665.72c-179.221,-193.875 -452.329,-247.741 -660.05,-141.041c-226.396,116.3 -271.271,370 -275.971,399.333" style="fill:none;fill-rule:nonzero;stroke:#000;stroke-width:112.5px;"></path><path d="M1658.7,2964.25c-194.558,-178.475 -471.17,-209.7 -669.412,-86.275c-216.067,134.525 -239.921,391.054 -242.192,420.675" style="fill:none;fill-rule:nonzero;stroke:#000;stroke-width:112.5px;"></path><path d="M2531.13,1774.6c54.537,-258.325 261.446,-444.55 494.496,-459.379c254.008,-16.163 422.562,178.691 441.629,201.47" style="fill:none;fill-rule:nonzero;stroke:#000;stroke-width:112.5px;"></path><path d="M2587,2094.98c76.746,-252.62 299.03,-420.187 532.492,-414.741c254.45,5.937 405.463,214.679 422.479,239.029" style="fill:none;fill-rule:nonzero;stroke:#000;stroke-width:112.5px;"></path><path d="M2599.19,2425.32c102.221,-243.429 340.504,-387.341 572.175,-358.008c252.509,31.971 381.338,255.088 395.775,281.05" style="fill:none;fill-rule:nonzero;stroke:#000;stroke-width:112.5px;"></path><path d="M2508.26,2776c223.104,-220.842 511.629,-252.513 665.475,-128.088c90.65,73.313 137.171,202.946 116.667,312.5c-39.563,211.392 -336.538,390.071 -737.5,362.5" style="fill:none;fill-rule:nonzero;stroke:#000;stroke-width:112.5px;"></path><path d="M1931.77,2486.77c36.613,207.934 -102.271,406.179 -310.204,442.792c-207.937,36.617 -406.183,-102.271 -442.796,-310.204c-36.612,-207.934 102.271,-406.179 310.209,-442.792c207.933,-36.617 406.179,102.271 442.791,310.204" style="fill:#fff;fill-rule:nonzero;"></path><path d="M1943.43,2421.2c29.758,169 -83.121,330.12 -252.121,359.879c-168.996,29.758 -330.121,-83.121 -359.879,-252.121c-29.758,-168.996 83.121,-330.121 252.121,-359.879c169,-29.754 330.121,83.121 359.879,252.121" style="fill-rule:nonzero;"></path><path d="M1852.08,2298.41c47.566,56.717 66.275,119.346 41.783,139.888c-24.492,20.537 -82.908,-8.788 -130.475,-65.505c-47.567,-56.716 -66.275,-119.345 -41.783,-139.887c24.491,-20.538 82.908,8.787 130.475,65.504" style="fill:#fff;fill-rule:nonzero;"></path><path d="M1852.08,2298.41c47.566,56.717 66.275,119.346 41.783,139.888c-24.492,20.537 -82.908,-8.788 -130.475,-65.505c-47.567,-56.716 -66.275,-119.345 -41.783,-139.887c24.491,-20.538 82.908,8.787 130.475,65.504" style="fill:#fff;fill-rule:nonzero;"></path><path d="M2051.91,2471.48c36.375,206.591 233.341,344.579 439.933,308.204c206.592,-36.379 344.579,-233.342 308.204,-439.938c-36.375,-206.591 -233.342,-344.579 -439.933,-308.2c-206.592,36.375 -344.579,233.342 -308.204,439.934" style="fill:#fff;fill-rule:nonzero;"></path><path d="M2767.1,2263.47c29.566,167.909 -82.584,327.992 -250.492,357.559c-167.908,29.562 -327.992,-82.588 -357.558,-250.496c-29.563,-167.904 82.587,-327.988 250.496,-357.554c167.904,-29.567 327.987,82.583 357.554,250.491" style="fill-rule:nonzero;"></path><path d="M2677.07,2145.65c47.258,56.35 65.846,118.575 41.512,138.984c-24.333,20.408 -82.371,-8.73 -129.629,-65.08c-47.262,-56.35 -65.846,-118.575 -41.517,-138.983c24.334,-20.408 82.375,8.729 129.634,65.079" style="fill:#fff;fill-rule:nonzero;"></path><path d="M2677.07,2145.65c47.258,56.35 65.846,118.575 41.512,138.984c-24.333,20.408 -82.371,-8.73 -129.629,-65.08c-47.262,-56.35 -65.846,-118.575 -41.517,-138.983c24.334,-20.408 82.375,8.729 129.634,65.079" style="fill:#fff;fill-rule:nonzero;"></path><path d="M1875.29,2485.57c11.737,-12.655 28.087,-16.571 36.525,-8.746c8.437,7.825 5.762,24.425 -5.975,37.079c-11.738,12.654 -28.088,16.571 -36.525,8.746c-8.438,-7.825 -5.763,-24.425 5.975,-37.079" style="fill:#fff;fill-rule:nonzero;"></path><path d="M2702.03,2326.2c11.738,-12.655 28.088,-16.571 36.525,-8.746c8.438,7.825 5.763,24.425 -5.975,37.079c-11.737,12.654 -28.087,16.571 -36.525,8.746c-8.437,-7.825 -5.762,-24.425 5.975,-37.079" style="fill:#fff;fill-rule:nonzero;"></path><path d="M4072.71,902.244c28.984,316.237 -202.837,596 -517.787,624.866c-314.95,28.863 -593.763,-204.1 -622.746,-520.337c-28.983,-316.238 202.842,-596 517.787,-624.863c314.95,-28.866 593.763,204.096 622.746,520.334" style="fill:#fff;fill-rule:nonzero;"></path><path d="M4245.56,900.884c13.337,145.516 -104.033,275.225 -262.154,289.716c-158.117,14.492 -297.109,-91.72 -310.446,-237.237c-13.338,-145.517 104.033,-275.229 262.15,-289.721c158.121,-14.492 297.112,91.725 310.45,237.242" style="fill:#fff;fill-rule:nonzero;"></path><path d="M4123.77,1226.96c13.338,145.517 -104.033,275.225 -262.154,289.717c-158.116,14.492 -297.108,-91.721 -310.446,-237.237c-13.337,-145.517 104.034,-275.23 262.15,-289.721c158.121,-14.488 297.113,91.725 310.45,237.241" style="fill:#fff;fill-rule:nonzero;"></path><path d="M3811.49,1335.4c13.338,145.516 -104.033,275.225 -262.154,289.716c-158.116,14.492 -297.108,-91.72 -310.446,-237.237c-13.337,-145.517 104.034,-275.229 262.15,-289.721c158.121,-14.492 297.113,91.725 310.45,237.242" style="fill:#fff;fill-rule:nonzero;"></path><path d="M3445.07,1243.74c13.337,145.517 -104.034,275.225 -262.155,289.717c-158.116,14.491 -297.108,-91.721 -310.445,-237.238c-13.338,-145.516 104.033,-275.229 262.15,-289.721c158.12,-14.491 297.112,91.725 310.45,237.242" style="fill:#fff;fill-rule:nonzero;"></path><path d="M3328.58,914.401c13.337,145.517 -104.034,275.225 -262.154,289.717c-158.117,14.492 -297.109,-91.721 -310.446,-237.238c-13.338,-145.516 104.033,-275.229 262.154,-289.72c158.117,-14.492 297.108,91.725 310.446,237.241" style="fill:#fff;fill-rule:nonzero;"></path><path d="M3411.92,597.448c13.338,145.517 -104.033,275.225 -262.154,289.717c-158.117,14.492 -297.108,-91.721 -310.446,-237.238c-13.337,-145.516 104.034,-275.229 262.15,-289.72c158.121,-14.492 297.113,91.725 310.45,237.241" style="fill:#fff;fill-rule:nonzero;"></path><path d="M3757.56,447.229c13.337,145.516 -104.034,275.225 -262.155,289.716c-158.116,14.492 -297.108,-91.72 -310.445,-237.237c-13.338,-145.517 104.033,-275.229 262.15,-289.721c158.12,-14.492 297.112,91.725 310.45,237.242" style="fill:#fff;fill-rule:nonzero;"></path><path d="M4124,588.842c13.337,145.517 -104.034,275.225 -262.154,289.717c-158.117,14.492 -297.109,-91.721 -310.446,-237.237c-13.338,-145.517 104.033,-275.23 262.15,-289.721c158.121,-14.492 297.112,91.725 310.45,237.241" style="fill:#fff;fill-rule:nonzero;"></path><path d="M2871.79,1510.64c0.696,71.2 -85.175,129.766 -191.8,130.812c-106.625,1.042 -193.629,-55.829 -194.325,-127.029c-0.7,-71.2 85.171,-129.767 191.8,-130.813c106.625,-1.041 193.629,55.83 194.325,127.03" style="fill:#fff;fill-rule:nonzero;"></path><path d="M2487.38,1701.79c0.438,44.871 -58.895,81.829 -132.529,82.55c-73.637,0.725 -133.683,-35.066 -134.125,-79.937c-0.437,-44.871 58.896,-81.834 132.529,-82.554c73.638,-0.721 133.684,35.07 134.125,79.941" style="fill:#fff;fill-rule:nonzero;"></path></g><g id="Layer-2" serif:id="Layer 2"></g><g id="Layer-4" serif:id="Layer 4"></g><g id="Layer-6" serif:id="Layer 6"></g><g id="Layer-3" serif:id="Layer 3"></g><g id="Layer-5" serif:id="Layer 5"></g><path d="M3487.57,759.61c-132.107,-190.291 -300.373,-165.405 -383.204,-69.262c-62.82,72.916 -31.677,257.651 67.977,398.127c81.661,115.112 180.409,190.056 315.227,286.367c125.548,-102.49 203.987,-176.177 262.699,-255.469c74.884,-101.133 229.185,-411.472 86.516,-530.99c-88.972,-74.535 -241.827,-28.334 -349.215,171.227Z" style="fill:#d00;"></path></g></svg>