<?xml version="1.0" encoding="UTF-8"?><svg id="b" xmlns="http://www.w3.org/2000/svg" viewBox="0 0 1000 1000"><defs><style>.d,.e,.f{stroke-width:0px;}.g{stroke-linecap:round;stroke-width:28.58526px;}.g,.h{fill:none;stroke:#000;stroke-miterlimit:10;}.e{fill:#fff;}.f{fill:#864879;}.h{stroke-width:1.05871px;}</style></defs><g id="c"><rect class="f" width="1000" height="1000" rx="150.30435" ry="150.30435"/><polygon class="d" points="771.57619 500 836.66287 505.61753 752.5414 508.47698 748.12151 512.4988 849.59875 523.36448 861.32287 530.20409 845.23174 534.68946 759.32624 530.53622 832.27678 544.65976 841.2846 551.68034 824.64523 554.74418 825.891 560.57114 761.83666 553.27245 781.28584 562.11473 754.93672 560.80313 761.36209 566.95835 736.86895 564.93226 823.7001 594.51316 781.96052 587.48141 773.32044 589.8341 807.92592 606.93674 780.77749 602.79746 726.07262 587.06547 823.78943 630.98928 755.8672 608.49445 719.84628 597.55847 739.4671 611.10472 775.55136 633.52112 716.90864 609.56172 785.99405 650.59795 726.22993 623.93722 792.46271 666.73157 780.76771 666.33146 805.13311 687.75696 749.45919 659.24684 783.60222 687.83615 743.13431 666.89972 749.66789 677.6076 696.21812 644.52149 774.86278 709.74429 778.64603 720.09836 763.91038 715.70337 782.4796 738.87722 739.58859 709.54342 729.11454 707.23605 763.43038 746.41656 699.84627 693.28502 749.15086 749.16759 730.92052 738.78256 666.87122 678.4465 659.33614 676.21349 701.35123 730.2599 676.19495 708.44501 708.33072 754.93361 652.36994 693.02688 659.86859 709.61756 685.89938 752.31423 695.28863 774.51492 705.38542 799.12877 692.62033 790.85162 658.22788 747.89983 693.15758 813.93695 662.71959 774.72118 667.36066 793.60543 632.55966 741.96433 649.56711 784.08165 653.75582 804.23251 616.69159 740.91907 629.33766 778.73011 613.4802 755.69603 598.41908 732.173 632.35369 827.20776 632.6666 844.43364 583.12717 727.0997 589.06415 756.49297 604.95126 819.39036 599.05679 819.35901 572.20559 747.21971 578.01425 784.77127 580.83028 815.74155 557.42027 740.73002 559.65539 770.13733 555.79069 774.33071 556.19476 802.24898 559.75283 854.59467 538.26086 752.03546 534.37438 755.11388 529.16995 747.60591 529.03439 788.38469 528.45212 840.15171 521.43422 820.35267 513.04433 759.18225 511.83986 854.90507 506.08553 865.19432 500 820.0711 494.81215 810.44621 490.04722 797.4742 484.26336 813.70418 482.07897 767.08651 473.0798 821.5921 467.65905 821.61023 458.81126 850.93407 464.54517 763.19374 461.01143 756.84735 442.3405 842.05137 437.40547 836.84094 443.7224 776.69818 423.2153 848.03733 417.65678 845.64197 416.11459 827.65715 414.1798 813.28449 407.1421 818.02235 404.86434 806.65908 406.37803 784.85227 411.03515 756.16933 416.16824 728.99027 389.74869 786.22725 365.88561 831.5078 380.65563 781.41998 401.0738 722.92262 389.49492 738.17718 387.31718 732.6256 369.55848 758.14423 373.97151 739.42573 360.63888 754.31374 359.91927 745.80538 326.42 792.97876 348.59862 746.15635 317.24438 786.20712 363.54738 706.16014 333.1049 743.12759 354.87242 704.09111 351.99796 700.93389 286.50657 779.76934 304.71108 747.27365 269.04782 782.54736 308.9852 725.92757 264.46284 769.28632 284.36184 738.39803 269.14256 746.80279 253.45987 754.89666 276.74612 723.23888 321.3016 672.80357 283.34366 702.62096 312.7496 669.32384 298.7525 675.96072 297.83994 670.87644 251.19597 703.31615 233.03499 710.83282 283.81738 664.88434 266.37594 672.10662 305.20403 638.48495 232.61791 683.55287 238.21837 673.33471 200.68952 691.11243 215.03901 675.2981 212.68178 670.19623 286.64173 621.52965 209.47955 659.22333 179.52195 668.76705 273.73566 614.28216 273.90204 609.49774 217.78813 630.95599 209.72965 628.84946 164.54426 642.26724 263.99782 595.43059 217.71885 608.71428 168.03038 621.5273 253.39107 585.63253 161.08116 611.36484 265.75561 572.68313 153.49092 601.14762 224.0829 575.59437 185.39583 580.53992 156.15547 581.90328 169.79069 572.85535 193.10961 562.37362 151.96304 564.65456 251.86857 541.92377 170.70158 549.87288 246.11434 534.21075 180.89963 537.48264 252.84754 524.93544 220.09237 523.4731 162.17529 522.58683 213.24941 514.40532 223.11832 509.27704 241.88932 504.33037 207.58787 500 235.53993 495.56584 252.92549 491.70258 227.83558 486.31419 171.34248 478.01704 223.62648 476.81727 225.57194 472.35001 257.64957 471.43779 253.60534 466.78354 175.58753 450.85571 236.72649 455.53485 140.81828 433.27721 181.78148 435.32656 145.80823 421.86273 258.83582 442.46748 152.05191 410.93372 171.11866 409.91645 256.80966 428.95831 249.41881 422.24326 159.16147 387.98819 237.68163 408.89997 229.75524 401.05987 225.88963 394.41898 197.21979 377.51724 172.51297 361.09517 211.3755 371.86309 177.61221 350.34796 197.33358 353.31587 196.69661 346.69197 223.95552 354.65144 250.13052 363.07971 178.79188 316.84894 205.39848 325.45671 296.7248 375.03224 234.79856 330.68236 207.38064 306.1809 202.50607 295.71158 202.77373 288.50021 215.63166 290.41777 284.04175 335.26509 299.35173 341.58267 247.32921 293.49289 307.30923 337.11494 253.42786 284.34404 247.96985 272.02399 242.07842 258.73825 264.45241 272.17794 320.44635 320.43427 304.69096 298.03433 310.27212 297.12397 318.69201 299.50653 292.0911 262.247 268.30558 225.97066 319.65073 279.26964 341.01677 298.60927 295.57614 232.06449 356.0549 304.5368 295.23147 212.18089 355.10504 288.83032 338.43856 255.96469 356.67153 275.39343 320.32204 207.93295 357.97533 260.14676 342.90598 224.37081 324.83655 180.45162 334.84245 186.3643 336.17003 175.86908 362.66305 216.54629 368.47365 216.56101 402.84603 281.03104 404.66617 275.09419 364.07957 163.98186 388.99485 211.77439 399.98938 226.79198 399.52209 210.6321 389.07392 162.41713 402.0579 184.23837 427.14197 250.54204 424.21544 223.38699 411.97122 156.06096 444.48078 267.27661 429.28079 179.51208 444.97179 229.44061 435.20474 151.20151 454.53452 230.71984 462.56845 253.48246 454.17605 158.94727 470.35178 248.2807 470.59466 207.88389 476.14855 215.51445 482.09041 233.07613 482.05854 141.6214 487.94711 138.60961 495.17099 211.4669 500 136.82639 504.53034 229.67144 511.44972 156.94934 514.31629 215.06508 524.00976 140.62001 528.07112 164.48324 531.99255 181.89406 529.17894 252.34589 534.02341 247.5491 549.78224 171.3433 550.28031 202.00666 551.99172 220.53806 569.12542 159.76488 575.51351 157.7469 583.05046 151.37986 591.48127 142.5936 570.08654 244.27486 581.70567 220.23104 594.68321 194.80088 610.93574 162.43747 603.61431 201.64223 594.26423 242.52312 610.81714 212.30473 614.4428 217.07673 615.85889 226.78872 643.29615 177.27875 635.13344 208.84376 609.98079 272.94042 639.92029 223.13612 622.85033 266.59809 614.48 290.98976 638.08338 257.69136 659.6509 230.4865 632.44506 284.59498 698.24291 189.58382 643.33696 283.46421 656.97451 271.29599 640.347 302.61711 671.34937 267.43303 679.33301 264.93696 723.79462 216.67992 659.52179 304.75431 737.48429 219.16622 668.63205 307.15243 699.58883 279.33489 684.02134 303.24965 677.44339 316.52941 678.87401 321.13803 744.58034 263.47154 753.94055 262.49534 744.24821 279.09674 749.031 282.22104 726.33532 308.66572 753.7853 292.60871 700.72891 341.54007 709.94792 339.87901 762.8547 306.32208 798.42463 287.67452 699.44224 363.17012 733.93096 345.14199 760.16792 333.9249 776.54335 329.89016 799.64888 322.48524 729.43389 369.28918 712.09682 383.84151 744.02975 371.5612 826.66186 334.88867 733.73219 386.79677 824.42549 349.42311 785.45833 373.28962 773.63391 383.9789 840.61223 362.21972 820.46184 376.57165 794.27003 392.27712 822.54316 388.00407 795.54415 402.88035 835.62118 395.9042 746.13579 428.11036 781.31138 422.93135 732.71692 440.36497 752.9878 439.6693 755.56319 443.54707 807.9331 437.41557 743.33463 454.69026 758.89272 456.27407 786.11436 456.61735 842.10318 454.0361 790.39165 465.85533 814.30592 468.38874 777.10888 476.75821 844.12456 476.99757 784.3121 485.71506 825.1264 489.13827 745.42007 495.87764 771.57619 500"/><polygon class="h" points="771.57619 500 836.66287 505.61753 752.5414 508.47698 748.12151 512.4988 849.59875 523.36448 861.32287 530.20409 845.23174 534.68946 759.32624 530.53622 832.27678 544.65976 841.2846 551.68034 824.64523 554.74418 825.891 560.57114 761.83666 553.27245 781.28584 562.11473 754.93672 560.80313 761.36209 566.95835 736.86895 564.93226 823.7001 594.51316 781.96052 587.48141 773.32044 589.8341 807.92592 606.93674 780.77749 602.79746 726.07262 587.06547 823.78943 630.98928 755.8672 608.49445 719.84628 597.55847 739.4671 611.10472 775.55136 633.52112 716.90864 609.56172 785.99405 650.59795 726.22993 623.93722 792.46271 666.73157 780.76771 666.33146 805.13311 687.75696 749.45919 659.24684 783.60222 687.83615 743.13431 666.89972 749.66789 677.6076 696.21812 644.52149 774.86278 709.74429 778.64603 720.09836 763.91038 715.70337 782.4796 738.87722 739.58859 709.54342 729.11454 707.23605 763.43038 746.41656 699.84627 693.28502 749.15086 749.16759 730.92052 738.78256 666.87122 678.4465 659.33614 676.21349 701.35123 730.2599 676.19495 708.44501 708.33072 754.93361 652.36994 693.02688 659.86859 709.61756 685.89938 752.31423 695.28863 774.51492 705.38542 799.12877 692.62033 790.85162 658.22788 747.89983 693.15758 813.93695 662.71959 774.72118 667.36066 793.60543 632.55966 741.96433 649.56711 784.08165 653.75582 804.23251 616.69159 740.91907 629.33766 778.73011 613.4802 755.69603 598.41908 732.173 632.35369 827.20776 632.6666 844.43364 583.12717 727.0997 589.06415 756.49297 604.95126 819.39036 599.05679 819.35901 572.20559 747.21971 578.01425 784.77127 580.83028 815.74155 557.42027 740.73002 559.65539 770.13733 555.79069 774.33071 556.19476 802.24898 559.75283 854.59467 538.26086 752.03546 534.37438 755.11388 529.16995 747.60591 529.03439 788.38469 528.45212 840.15171 521.43422 820.35267 513.04433 759.18225 511.83986 854.90507 506.08553 865.19432 500 820.0711 494.81215 810.44621 490.04722 797.4742 484.26336 813.70418 482.07897 767.08651 473.0798 821.5921 467.65905 821.61023 458.81126 850.93407 464.54517 763.19374 461.01143 756.84735 442.3405 842.05137 437.40547 836.84094 443.7224 776.69818 423.2153 848.03733 417.65678 845.64197 416.11459 827.65715 414.1798 813.28449 407.1421 818.02235 404.86434 806.65908 406.37803 784.85227 411.03515 756.16933 416.16824 728.99027 389.74869 786.22725 365.88561 831.5078 380.65563 781.41998 401.0738 722.92262 389.49492 738.17718 387.31718 732.6256 369.55848 758.14423 373.97151 739.42573 360.63888 754.31374 359.91927 745.80538 326.42 792.97876 348.59862 746.15635 317.24438 786.20712 363.54738 706.16014 333.1049 743.12759 354.87242 704.09111 351.99796 700.93389 286.50657 779.76934 304.71108 747.27365 269.04782 782.54736 308.9852 725.92757 264.46284 769.28632 284.36184 738.39803 269.14256 746.80279 253.45987 754.89666 276.74612 723.23888 321.3016 672.80357 283.34366 702.62096 312.7496 669.32384 298.7525 675.96072 297.83994 670.87644 251.19597 703.31615 233.03499 710.83282 283.81738 664.88434 266.37594 672.10662 305.20403 638.48495 232.61791 683.55287 238.21837 673.33471 200.68952 691.11243 215.03901 675.2981 212.68178 670.19623 286.64173 621.52965 209.47955 659.22333 179.52195 668.76705 273.73566 614.28216 273.90204 609.49774 217.78813 630.95599 209.72965 628.84946 164.54426 642.26724 263.99782 595.43059 217.71885 608.71428 168.03038 621.5273 253.39107 585.63253 161.08116 611.36484 265.75561 572.68313 153.49092 601.14762 224.0829 575.59437 185.39583 580.53992 156.15547 581.90328 169.79069 572.85535 193.10961 562.37362 151.96304 564.65456 251.86857 541.92377 170.70158 549.87288 246.11434 534.21075 180.89963 537.48264 252.84754 524.93544 220.09237 523.4731 162.17529 522.58683 213.24941 514.40532 223.11832 509.27704 241.88932 504.33037 207.58787 500 235.53993 495.56584 252.92549 491.70258 227.83558 486.31419 171.34248 478.01704 223.62648 476.81727 225.57194 472.35001 257.64957 471.43779 253.60534 466.78354 175.58753 450.85571 236.72649 455.53485 140.81828 433.27721 181.78148 435.32656 145.80823 421.86273 258.83582 442.46748 152.05191 410.93372 171.11866 409.91645 256.80966 428.95831 249.41881 422.24326 159.16147 387.98819 237.68163 408.89997 229.75524 401.05987 225.88963 394.41898 197.21979 377.51724 172.51297 361.09517 211.3755 371.86309 177.61221 350.34796 197.33358 353.31587 196.69661 346.69197 223.95552 354.65144 250.13052 363.07971 178.79188 316.84894 205.39848 325.45671 296.7248 375.03224 234.79856 330.68236 207.38064 306.1809 202.50607 295.71158 202.77373 288.50021 215.63166 290.41777 284.04175 335.26509 299.35173 341.58267 247.32921 293.49289 307.30923 337.11494 253.42786 284.34404 247.96985 272.02399 242.07842 258.73825 264.45241 272.17794 320.44635 320.43427 304.69096 298.03433 310.27212 297.12397 318.69201 299.50653 292.0911 262.247 268.30558 225.97066 319.65073 279.26964 341.01677 298.60927 295.57614 232.06449 356.0549 304.5368 295.23147 212.18089 355.10504 288.83032 338.43856 255.96469 356.67153 275.39343 320.32204 207.93295 357.97533 260.14676 342.90598 224.37081 324.83655 180.45162 334.84245 186.3643 336.17003 175.86908 362.66305 216.54629 368.47365 216.56101 402.84603 281.03104 404.66617 275.09419 364.07957 163.98186 388.99485 211.77439 399.98938 226.79198 399.52209 210.6321 389.07392 162.41713 402.0579 184.23837 427.14197 250.54204 424.21544 223.38699 411.97122 156.06096 444.48078 267.27661 429.28079 179.51208 444.97179 229.44061 435.20474 151.20151 454.53452 230.71984 462.56845 253.48246 454.17605 158.94727 470.35178 248.2807 470.59466 207.88389 476.14855 215.51445 482.09041 233.07613 482.05854 141.6214 487.94711 138.60961 495.17099 211.4669 500 136.82639 504.53034 229.67144 511.44972 156.94934 514.31629 215.06508 524.00976 140.62001 528.07112 164.48324 531.99255 181.89406 529.17894 252.34589 534.02341 247.5491 549.78224 171.3433 550.28031 202.00666 551.99172 220.53806 569.12542 159.76488 575.51351 157.7469 583.05046 151.37986 591.48127 142.5936 570.08654 244.27486 581.70567 220.23104 594.68321 194.80088 610.93574 162.43747 603.61431 201.64223 594.26423 242.52312 610.81714 212.30473 614.4428 217.07673 615.85889 226.78872 643.29615 177.27875 635.13344 208.84376 609.98079 272.94042 639.92029 223.13612 622.85033 266.59809 614.48 290.98976 638.08338 257.69136 659.6509 230.4865 632.44506 284.59498 698.24291 189.58382 643.33696 283.46421 656.97451 271.29599 640.347 302.61711 671.34937 267.43303 679.33301 264.93696 723.79462 216.67992 659.52179 304.75431 737.48429 219.16622 668.63205 307.15243 699.58883 279.33489 684.02134 303.24965 677.44339 316.52941 678.87401 321.13803 744.58034 263.47154 753.94055 262.49534 744.24821 279.09674 749.031 282.22104 726.33532 308.66572 753.7853 292.60871 700.72891 341.54007 709.94792 339.87901 762.8547 306.32208 798.42463 287.67452 699.44224 363.17012 733.93096 345.14199 760.16792 333.9249 776.54335 329.89016 799.64888 322.48524 729.43389 369.28918 712.09682 383.84151 744.02975 371.5612 826.66186 334.88867 733.73219 386.79677 824.42549 349.42311 785.45833 373.28962 773.63391 383.9789 840.61223 362.21972 820.46184 376.57165 794.27003 392.27712 822.54316 388.00407 795.54415 402.88035 835.62118 395.9042 746.13579 428.11036 781.31138 422.93135 732.71692 440.36497 752.9878 439.6693 755.56319 443.54707 807.9331 437.41557 743.33463 454.69026 758.89272 456.27407 786.11436 456.61735 842.10318 454.0361 790.39165 465.85533 814.30592 468.38874 777.10888 476.75821 844.12456 476.99757 784.3121 485.71506 825.1264 489.13827 745.42007 495.87764 771.57619 500"/><path class="g" d="M328.38059,394.58209c-26.79851-66.63917-91.01949-106.77144-154.15952-99.75028-68.81763,7.65251-104.78452,67.80974-108.81849,74.81271"/><path class="g" d="M328.52563,483.05658c-32.47941-64.06264-99.94029-98.47146-162.23302-85.99841-67.89413,13.59463-98.50583,76.64567-101.91696,83.97224"/><path class="g" d="M340.84351,572.13786c-38.87128-60.39832-109.50218-87.71523-170.1894-68.92637-66.14426,20.47837-90.13578,86.33364-92.77842,93.97111"/><path class="g" d="M381.75133,661.80444c-43.7072-56.99662-116.34554-78.41176-175.28181-54.69518-64.23586,25.84919-82.72967,93.45458-84.73519,101.28352"/><path class="g" d="M671.61941,384.22407c26.79851-66.63917,91.01949-106.77144,154.15952-99.75028,68.81763,7.65251,104.78452,67.80974,108.81849,74.81271"/><path class="g" d="M671.47437,472.69856c32.47941-64.06264,99.94029-98.47146,162.23302-85.99841,67.89413,13.59463,98.50583,76.64567,101.91696,83.97224"/><path class="g" d="M659.15649,561.77984c38.87128-60.39832,109.50218-87.71523,170.1894-68.92637,66.14426,20.47837,90.13578,86.33364,92.77842,93.97111"/><path class="g" d="M618.24866,651.44642c43.7072-56.99662,116.34554-78.41176,175.28181-54.69518,64.23586,25.84919,82.72967,93.45458,84.73519,101.28352"/><circle class="e" cx="373.66167" cy="547.10921" r="103.85439"/><circle class="d" cx="384.36831" cy="548.17987" r="84.58244"/><ellipse class="e" cx="437.36617" cy="518.73662" rx="15.88776" ry="36.65057" transform="translate(-201.9063 291.34366) rotate(-30.28374)"/><ellipse class="e" cx="437.36617" cy="518.73662" rx="15.88776" ry="36.65057" transform="translate(-201.9063 291.34366) rotate(-30.28374)"/><circle class="e" cx="614.0257" cy="548.7152" r="103.31906"/><circle class="d" cx="602.24839" cy="548.7152" r="84.04711"/><ellipse class="e" cx="654.17559" cy="520.34261" rx="15.54572" ry="35.9861" transform="translate(-172.59126 397.22188) rotate(-30.0292)"/><ellipse class="e" cx="654.17559" cy="520.34261" rx="15.54572" ry="35.9861" transform="translate(-172.59126 397.22188) rotate(-30.0292)"/><ellipse class="e" cx="451.82013" cy="566.91649" rx="8.49024" ry="5.7002" transform="translate(-257.10772 415.4007) rotate(-39.38186)"/><ellipse class="e" cx="669.16488" cy="566.91649" rx="8.49024" ry="5.7002" transform="translate(-207.75622 553.30288) rotate(-39.38186)"/></g></svg>