<?xml version="1.0" encoding="utf-8"?>
<!-- Generator: Adobe Illustrator 28.2.0, SVG Export Plug-In . SVG Version: 6.00 Build 0)  -->
<svg version="1.1" id="b" xmlns="http://www.w3.org/2000/svg" xmlns:xlink="http://www.w3.org/1999/xlink" x="0px" y="0px"
	 viewBox="0 0 1000 1000" style="enable-background:new 0 0 1000 1000;" xml:space="preserve">
<style type="text/css">
	.st0{fill:#864879;}
	.st1{fill:none;stroke:#000000;stroke-width:1.0587;stroke-miterlimit:10;}
	.st2{fill:none;stroke:#000000;stroke-width:28.5853;stroke-linecap:round;stroke-miterlimit:10;}
	.st3{fill:#FFFFFF;}
</style>
<g id="c">
	<path class="st0" d="M277.2,0h445.7C875.9,0,1000,124.1,1000,277.2v445.7c0,153.1-124.1,277.2-277.2,277.2H277.2
		C124.1,1000,0,875.9,0,722.8V277.2C0,124.1,124.1,0,277.2,0z"/>
	<polygon points="771.6,500 836.7,505.6 752.5,508.5 748.1,512.5 849.6,523.4 861.3,530.2 845.2,534.7 759.3,530.5 832.3,544.7 
		841.3,551.7 824.6,554.7 825.9,560.6 761.8,553.3 781.3,562.1 754.9,560.8 761.4,567 736.9,564.9 823.7,594.5 782,587.5 
		773.3,589.8 807.9,606.9 780.8,602.8 726.1,587.1 823.8,631 755.9,608.5 719.8,597.6 739.5,611.1 775.6,633.5 716.9,609.6 
		786,650.6 726.2,623.9 792.5,666.7 780.8,666.3 805.1,687.8 749.5,659.2 783.6,687.8 743.1,666.9 749.7,677.6 696.2,644.5 
		774.9,709.7 778.6,720.1 763.9,715.7 782.5,738.9 739.6,709.5 729.1,707.2 763.4,746.4 699.8,693.3 749.2,749.2 730.9,738.8 
		666.9,678.4 659.3,676.2 701.4,730.3 676.2,708.4 708.3,754.9 652.4,693 659.9,709.6 685.9,752.3 695.3,774.5 705.4,799.1 
		692.6,790.9 658.2,747.9 693.2,813.9 662.7,774.7 667.4,793.6 632.6,742 649.6,784.1 653.8,804.2 616.7,740.9 629.3,778.7 
		613.5,755.7 598.4,732.2 632.4,827.2 632.7,844.4 583.1,727.1 589.1,756.5 605,819.4 599.1,819.4 572.2,747.2 578,784.8 
		580.8,815.7 557.4,740.7 559.7,770.1 555.8,774.3 556.2,802.2 559.8,854.6 538.3,752 534.4,755.1 529.2,747.6 529,788.4 
		528.5,840.2 521.4,820.4 513,759.2 511.8,854.9 506.1,865.2 500,820.1 494.8,810.4 490,797.5 484.3,813.7 482.1,767.1 473.1,821.6 
		467.7,821.6 458.8,850.9 464.5,763.2 461,756.8 442.3,842.1 437.4,836.8 443.7,776.7 423.2,848 417.7,845.6 416.1,827.7 
		414.2,813.3 407.1,818 404.9,806.7 406.4,784.9 411,756.2 416.2,729 389.7,786.2 365.9,831.5 380.7,781.4 401.1,722.9 389.5,738.2 
		387.3,732.6 369.6,758.1 374,739.4 360.6,754.3 359.9,745.8 326.4,793 348.6,746.2 317.2,786.2 363.5,706.2 333.1,743.1 
		354.9,704.1 352,700.9 286.5,779.8 304.7,747.3 269,782.5 309,725.9 264.5,769.3 284.4,738.4 269.1,746.8 253.5,754.9 276.7,723.2 
		321.3,672.8 283.3,702.6 312.7,669.3 298.8,676 297.8,670.9 251.2,703.3 233,710.8 283.8,664.9 266.4,672.1 305.2,638.5 
		232.6,683.6 238.2,673.3 200.7,691.1 215,675.3 212.7,670.2 286.6,621.5 209.5,659.2 179.5,668.8 273.7,614.3 273.9,609.5 
		217.8,631 209.7,628.8 164.5,642.3 264,595.4 217.7,608.7 168,621.5 253.4,585.6 161.1,611.4 265.8,572.7 153.5,601.1 224.1,575.6 
		185.4,580.5 156.2,581.9 169.8,572.9 193.1,562.4 152,564.7 251.9,541.9 170.7,549.9 246.1,534.2 180.9,537.5 252.8,524.9 
		220.1,523.5 162.2,522.6 213.2,514.4 223.1,509.3 241.9,504.3 207.6,500 235.5,495.6 252.9,491.7 227.8,486.3 171.3,478 
		223.6,476.8 225.6,472.4 257.6,471.4 253.6,466.8 175.6,450.9 236.7,455.5 140.8,433.3 181.8,435.3 145.8,421.9 258.8,442.5 
		152.1,410.9 171.1,409.9 256.8,429 249.4,422.2 159.2,388 237.7,408.9 229.8,401.1 225.9,394.4 197.2,377.5 172.5,361.1 
		211.4,371.9 177.6,350.3 197.3,353.3 196.7,346.7 224,354.7 250.1,363.1 178.8,316.8 205.4,325.5 296.7,375 234.8,330.7 
		207.4,306.2 202.5,295.7 202.8,288.5 215.6,290.4 284,335.3 299.4,341.6 247.3,293.5 307.3,337.1 253.4,284.3 248,272 242.1,258.7 
		264.5,272.2 320.4,320.4 304.7,298 310.3,297.1 318.7,299.5 292.1,262.2 268.3,226 319.7,279.3 341,298.6 295.6,232.1 356.1,304.5 
		295.2,212.2 355.1,288.8 338.4,256 356.7,275.4 320.3,207.9 358,260.1 342.9,224.4 324.8,180.5 334.8,186.4 336.2,175.9 
		362.7,216.5 368.5,216.6 402.8,281 404.7,275.1 364.1,164 389,211.8 400,226.8 399.5,210.6 389.1,162.4 402.1,184.2 427.1,250.5 
		424.2,223.4 412,156.1 444.5,267.3 429.3,179.5 445,229.4 435.2,151.2 454.5,230.7 462.6,253.5 454.2,158.9 470.4,248.3 
		470.6,207.9 476.1,215.5 482.1,233.1 482.1,141.6 487.9,138.6 495.2,211.5 500,136.8 504.5,229.7 511.4,156.9 514.3,215.1 
		524,140.6 528.1,164.5 532,181.9 529.2,252.3 534,247.5 549.8,171.3 550.3,202 552,220.5 569.1,159.8 575.5,157.7 583.1,151.4 
		591.5,142.6 570.1,244.3 581.7,220.2 594.7,194.8 610.9,162.4 603.6,201.6 594.3,242.5 610.8,212.3 614.4,217.1 615.9,226.8 
		643.3,177.3 635.1,208.8 610,272.9 639.9,223.1 622.9,266.6 614.5,291 638.1,257.7 659.7,230.5 632.4,284.6 698.2,189.6 
		643.3,283.5 657,271.3 640.3,302.6 671.3,267.4 679.3,264.9 723.8,216.7 659.5,304.8 737.5,219.2 668.6,307.2 699.6,279.3 
		684,303.2 677.4,316.5 678.9,321.1 744.6,263.5 753.9,262.5 744.2,279.1 749,282.2 726.3,308.7 753.8,292.6 700.7,341.5 
		709.9,339.9 762.9,306.3 798.4,287.7 699.4,363.2 733.9,345.1 760.2,333.9 776.5,329.9 799.6,322.5 729.4,369.3 712.1,383.8 
		744,371.6 826.7,334.9 733.7,386.8 824.4,349.4 785.5,373.3 773.6,384 840.6,362.2 820.5,376.6 794.3,392.3 822.5,388 795.5,402.9 
		835.6,395.9 746.1,428.1 781.3,422.9 732.7,440.4 753,439.7 755.6,443.5 807.9,437.4 743.3,454.7 758.9,456.3 786.1,456.6 
		842.1,454 790.4,465.9 814.3,468.4 777.1,476.8 844.1,477 784.3,485.7 825.1,489.1 745.4,495.9 	"/>
	<polygon class="st1" points="771.6,500 836.7,505.6 752.5,508.5 748.1,512.5 849.6,523.4 861.3,530.2 845.2,534.7 759.3,530.5 
		832.3,544.7 841.3,551.7 824.6,554.7 825.9,560.6 761.8,553.3 781.3,562.1 754.9,560.8 761.4,567 736.9,564.9 823.7,594.5 
		782,587.5 773.3,589.8 807.9,606.9 780.8,602.8 726.1,587.1 823.8,631 755.9,608.5 719.8,597.6 739.5,611.1 775.6,633.5 
		716.9,609.6 786,650.6 726.2,623.9 792.5,666.7 780.8,666.3 805.1,687.8 749.5,659.2 783.6,687.8 743.1,666.9 749.7,677.6 
		696.2,644.5 774.9,709.7 778.6,720.1 763.9,715.7 782.5,738.9 739.6,709.5 729.1,707.2 763.4,746.4 699.8,693.3 749.2,749.2 
		730.9,738.8 666.9,678.4 659.3,676.2 701.4,730.3 676.2,708.4 708.3,754.9 652.4,693 659.9,709.6 685.9,752.3 695.3,774.5 
		705.4,799.1 692.6,790.9 658.2,747.9 693.2,813.9 662.7,774.7 667.4,793.6 632.6,742 649.6,784.1 653.8,804.2 616.7,740.9 
		629.3,778.7 613.5,755.7 598.4,732.2 632.4,827.2 632.7,844.4 583.1,727.1 589.1,756.5 605,819.4 599.1,819.4 572.2,747.2 
		578,784.8 580.8,815.7 557.4,740.7 559.7,770.1 555.8,774.3 556.2,802.2 559.8,854.6 538.3,752 534.4,755.1 529.2,747.6 529,788.4 
		528.5,840.2 521.4,820.4 513,759.2 511.8,854.9 506.1,865.2 500,820.1 494.8,810.4 490,797.5 484.3,813.7 482.1,767.1 473.1,821.6 
		467.7,821.6 458.8,850.9 464.5,763.2 461,756.8 442.3,842.1 437.4,836.8 443.7,776.7 423.2,848 417.7,845.6 416.1,827.7 
		414.2,813.3 407.1,818 404.9,806.7 406.4,784.9 411,756.2 416.2,729 389.7,786.2 365.9,831.5 380.7,781.4 401.1,722.9 389.5,738.2 
		387.3,732.6 369.6,758.1 374,739.4 360.6,754.3 359.9,745.8 326.4,793 348.6,746.2 317.2,786.2 363.5,706.2 333.1,743.1 
		354.9,704.1 352,700.9 286.5,779.8 304.7,747.3 269,782.5 309,725.9 264.5,769.3 284.4,738.4 269.1,746.8 253.5,754.9 276.7,723.2 
		321.3,672.8 283.3,702.6 312.7,669.3 298.8,676 297.8,670.9 251.2,703.3 233,710.8 283.8,664.9 266.4,672.1 305.2,638.5 
		232.6,683.6 238.2,673.3 200.7,691.1 215,675.3 212.7,670.2 286.6,621.5 209.5,659.2 179.5,668.8 273.7,614.3 273.9,609.5 
		217.8,631 209.7,628.8 164.5,642.3 264,595.4 217.7,608.7 168,621.5 253.4,585.6 161.1,611.4 265.8,572.7 153.5,601.1 224.1,575.6 
		185.4,580.5 156.2,581.9 169.8,572.9 193.1,562.4 152,564.7 251.9,541.9 170.7,549.9 246.1,534.2 180.9,537.5 252.8,524.9 
		220.1,523.5 162.2,522.6 213.2,514.4 223.1,509.3 241.9,504.3 207.6,500 235.5,495.6 252.9,491.7 227.8,486.3 171.3,478 
		223.6,476.8 225.6,472.4 257.6,471.4 253.6,466.8 175.6,450.9 236.7,455.5 140.8,433.3 181.8,435.3 145.8,421.9 258.8,442.5 
		152.1,410.9 171.1,409.9 256.8,429 249.4,422.2 159.2,388 237.7,408.9 229.8,401.1 225.9,394.4 197.2,377.5 172.5,361.1 
		211.4,371.9 177.6,350.3 197.3,353.3 196.7,346.7 224,354.7 250.1,363.1 178.8,316.8 205.4,325.5 296.7,375 234.8,330.7 
		207.4,306.2 202.5,295.7 202.8,288.5 215.6,290.4 284,335.3 299.4,341.6 247.3,293.5 307.3,337.1 253.4,284.3 248,272 242.1,258.7 
		264.5,272.2 320.4,320.4 304.7,298 310.3,297.1 318.7,299.5 292.1,262.2 268.3,226 319.7,279.3 341,298.6 295.6,232.1 356.1,304.5 
		295.2,212.2 355.1,288.8 338.4,256 356.7,275.4 320.3,207.9 358,260.1 342.9,224.4 324.8,180.5 334.8,186.4 336.2,175.9 
		362.7,216.5 368.5,216.6 402.8,281 404.7,275.1 364.1,164 389,211.8 400,226.8 399.5,210.6 389.1,162.4 402.1,184.2 427.1,250.5 
		424.2,223.4 412,156.1 444.5,267.3 429.3,179.5 445,229.4 435.2,151.2 454.5,230.7 462.6,253.5 454.2,158.9 470.4,248.3 
		470.6,207.9 476.1,215.5 482.1,233.1 482.1,141.6 487.9,138.6 495.2,211.5 500,136.8 504.5,229.7 511.4,156.9 514.3,215.1 
		524,140.6 528.1,164.5 532,181.9 529.2,252.3 534,247.5 549.8,171.3 550.3,202 552,220.5 569.1,159.8 575.5,157.7 583.1,151.4 
		591.5,142.6 570.1,244.3 581.7,220.2 594.7,194.8 610.9,162.4 603.6,201.6 594.3,242.5 610.8,212.3 614.4,217.1 615.9,226.8 
		643.3,177.3 635.1,208.8 610,272.9 639.9,223.1 622.9,266.6 614.5,291 638.1,257.7 659.7,230.5 632.4,284.6 698.2,189.6 
		643.3,283.5 657,271.3 640.3,302.6 671.3,267.4 679.3,264.9 723.8,216.7 659.5,304.8 737.5,219.2 668.6,307.2 699.6,279.3 
		684,303.2 677.4,316.5 678.9,321.1 744.6,263.5 753.9,262.5 744.2,279.1 749,282.2 726.3,308.7 753.8,292.6 700.7,341.5 
		709.9,339.9 762.9,306.3 798.4,287.7 699.4,363.2 733.9,345.1 760.2,333.9 776.5,329.9 799.6,322.5 729.4,369.3 712.1,383.8 
		744,371.6 826.7,334.9 733.7,386.8 824.4,349.4 785.5,373.3 773.6,384 840.6,362.2 820.5,376.6 794.3,392.3 822.5,388 795.5,402.9 
		835.6,395.9 746.1,428.1 781.3,422.9 732.7,440.4 753,439.7 755.6,443.5 807.9,437.4 743.3,454.7 758.9,456.3 786.1,456.6 
		842.1,454 790.4,465.9 814.3,468.4 777.1,476.8 844.1,477 784.3,485.7 825.1,489.1 745.4,495.9 	"/>
	<path class="st2" d="M328.4,394.6c-26.8-66.6-91-106.8-154.2-99.8c-68.8,7.7-104.8,67.8-108.8,74.8"/>
	<path class="st2" d="M328.5,483.1c-32.5-64.1-99.9-98.5-162.2-86c-67.9,13.6-98.5,76.6-101.9,84"/>
	<path class="st2" d="M340.8,572.1c-38.9-60.4-109.5-87.7-170.2-68.9c-66.1,20.5-90.1,86.3-92.8,94"/>
	<path class="st2" d="M381.8,661.8c-43.7-57-116.3-78.4-175.3-54.7c-64.2,25.8-82.7,93.5-84.7,101.3"/>
	<path class="st2" d="M671.6,384.2c26.8-66.6,91-106.8,154.2-99.8c68.8,7.7,104.8,67.8,108.8,74.8"/>
	<path class="st2" d="M671.5,472.7c32.5-64.1,99.9-98.5,162.2-86c67.9,13.6,98.5,76.6,101.9,84"/>
	<path class="st2" d="M659.2,561.8c38.9-60.4,109.5-87.7,170.2-68.9c66.1,20.5,90.1,86.3,92.8,94"/>
	<path class="st2" d="M618.2,651.4c43.7-57,116.3-78.4,175.3-54.7c64.2,25.8,82.7,93.5,84.7,101.3"/>
	<circle class="st3" cx="373.7" cy="547.1" r="103.9"/>
	<circle cx="384.4" cy="548.2" r="84.6"/>
	
		<ellipse transform="matrix(0.8635 -0.5043 0.5043 0.8635 -201.9063 291.3436)" class="st3" cx="437.4" cy="518.7" rx="15.9" ry="36.7"/>
	
		<ellipse transform="matrix(0.8635 -0.5043 0.5043 0.8635 -201.9063 291.3436)" class="st3" cx="437.4" cy="518.7" rx="15.9" ry="36.7"/>
	<circle class="st3" cx="614" cy="548.7" r="103.3"/>
	<circle cx="602.2" cy="548.7" r="84"/>
	
		<ellipse transform="matrix(0.8658 -0.5004 0.5004 0.8658 -172.5913 397.2218)" class="st3" cx="654.2" cy="520.3" rx="15.5" ry="36"/>
	
		<ellipse transform="matrix(0.8658 -0.5004 0.5004 0.8658 -172.5913 397.2218)" class="st3" cx="654.2" cy="520.3" rx="15.5" ry="36"/>
	
		<ellipse transform="matrix(0.7729 -0.6345 0.6345 0.7729 -257.1078 415.4007)" class="st3" cx="451.8" cy="566.9" rx="8.5" ry="5.7"/>
	
		<ellipse transform="matrix(0.7729 -0.6345 0.6345 0.7729 -207.7563 553.3029)" class="st3" cx="669.2" cy="566.9" rx="8.5" ry="5.7"/>
</g>
</svg>
