<?xml version="1.0" encoding="UTF-8" standalone="no"?><!DOCTYPE svg PUBLIC "-//W3C//DTD SVG 1.1//EN" "http://www.w3.org/Graphics/SVG/1.1/DTD/svg11.dtd"><svg width="100%" height="100%" viewBox="0 0 280 417" version="1.1" xmlns="http://www.w3.org/2000/svg" xmlns:xlink="http://www.w3.org/1999/xlink" xml:space="preserve" xmlns:serif="http://www.serif.com/" style="fill-rule:evenodd;clip-rule:evenodd;stroke-linejoin:round;stroke-miterlimit:2;"><path d="M251.963,123.596c16.633,-19.846 25.816,-44.742 25.816,-70.071l0,-40.379c0,-7.259 -5.887,-13.146 -13.146,-13.146l-251.487,-0c-7.258,-0 -13.146,5.887 -13.146,13.146l0,40.379c0,25.329 9.167,50.208 25.817,70.05l53.575,63.892c9.846,11.75 9.912,28.208 0.158,40.033l-54.342,65.867c-16.25,19.725 -25.208,44.358 -25.208,69.358l0,40.796c0,7.258 5.888,13.146 13.146,13.146l251.487,-0c7.259,-0 13.146,-5.888 13.146,-13.146l0,-40.796c0,-25 -8.975,-49.617 -25.229,-69.342l-54.338,-65.866c-9.758,-11.821 -9.687,-28.279 0.155,-40.034l53.595,-63.891l0,0.004Zm-80.537,125.991l54.337,65.867c9.588,11.646 15.338,25.058 16.875,40.533c0.2,2.188 -0.533,4.355 -2.012,5.98c-1.479,1.62 -3.575,2.545 -5.771,2.545c-4.917,0.075 -10.221,0.075 -10.221,0.075c-13.766,-35.016 -85.746,-86.804 -85.746,-86.804c0,0 -71.995,51.788 -85.762,86.804l-9.342,0c-2.458,0.005 -4.8,-1.037 -6.45,-2.862c-1.65,-1.825 -2.446,-4.262 -2.196,-6.708c1.775,-15.063 7.475,-28.171 16.875,-39.546l54.325,-65.85c20.259,-24.546 20.121,-60.05 -0.329,-84.442l-53.579,-63.908c-8.225,-9.788 -13.771,-21.059 -16.242,-33.696c-0.7,-3.767 0.313,-7.65 2.763,-10.6c2.446,-2.946 6.079,-4.65 9.912,-4.65c38.005,-0.254 142.038,-0.254 180.051,-0.254c3.908,-0.004 7.616,1.737 10.116,4.741c2.5,3.009 3.529,6.975 2.813,10.817c-2.738,12.604 -8.3,23.863 -16.496,33.642l-53.592,63.887c-20.433,24.396 -20.575,59.917 -0.329,84.429Z" style="fill:#fff;fill-rule:nonzero;"/></svg>