<?xml version="1.0" encoding="UTF-8" standalone="no"?><!DOCTYPE svg PUBLIC "-//W3C//DTD SVG 1.1//EN" "http://www.w3.org/Graphics/SVG/1.1/DTD/svg11.dtd"><svg width="100%" height="100%" viewBox="0 0 100 84" version="1.1" xmlns="http://www.w3.org/2000/svg" xmlns:xlink="http://www.w3.org/1999/xlink" xml:space="preserve" xmlns:serif="http://www.serif.com/" style="fill-rule:evenodd;clip-rule:evenodd;stroke-linejoin:round;stroke-miterlimit:2;"><path d="M58.269,80.7c-0,0.699 -0.278,1.369 -0.772,1.863c-0.494,0.494 -1.164,0.772 -1.863,0.771c-9.692,0 -43.308,-0 -53,-0.001c-1.455,0 -2.634,-1.179 -2.634,-2.634c-0,-12.482 -0,-65.583 -0,-78.065c-0,-0.698 0.278,-1.368 0.772,-1.862c0.494,-0.494 1.164,-0.772 1.863,-0.772c9.7,-0 43.364,-0 53.064,-0c1.455,-0 2.634,1.179 2.634,2.634c0,5.24 0,16.914 0,22.154c0,1.455 -1.179,2.634 -2.634,2.634c-2.11,0 -5.056,0 -7.167,0c-1.455,0 -2.634,-1.179 -2.634,-2.634c-0,-2.719 -0,-6.935 -0,-9.654c-0,-1.455 -1.18,-2.634 -2.635,-2.634c-6.243,0 -21.885,0 -28.129,0c-0.698,0 -1.368,0.278 -1.862,0.772c-0.494,0.494 -0.772,1.164 -0.772,1.863c0,9.7 0,43.364 0,53.064c-0,0.699 0.278,1.369 0.772,1.863c0.494,0.494 1.164,0.771 1.862,0.771c6.234,0 21.831,0 28.065,0c0.699,0 1.369,-0.277 1.863,-0.771c0.494,-0.494 0.771,-1.164 0.771,-1.863c0,-1.669 0,-3.818 0,-5.487c0,-0.699 0.278,-1.369 0.772,-1.863c0.494,-0.494 1.164,-0.771 1.863,-0.771c2.11,-0 5.056,-0 7.166,-0c1.455,-0 2.635,1.179 2.635,2.634c-0,4.284 -0,15.546 -0,17.988Z" style="fill:#fff;"/><path d="M64.032,33.333c1.455,0 2.635,-1.179 2.635,-2.634c-0,-3.098 -0,-8.331 -0,-12.393c-0,-1.034 0.604,-1.972 1.545,-2.399c0.942,-0.427 2.046,-0.265 2.824,0.416c7.179,6.282 21.219,18.567 26.698,23.361c0.572,0.5 0.9,1.223 0.9,1.983c-0,0.759 -0.328,1.482 -0.9,1.982c-5.479,4.794 -19.519,17.08 -26.698,23.361c-0.778,0.681 -1.882,0.844 -2.824,0.417c-0.941,-0.428 -1.545,-1.366 -1.545,-2.4c-0,-4.061 -0,-9.295 -0,-12.393c-0,-1.455 -1.18,-2.634 -2.635,-2.634c-6.233,0 -21.831,0 -28.064,0c-1.455,-0 -2.635,-1.18 -2.635,-2.634c0,-3.119 0,-8.28 0,-11.398c0,-1.455 1.18,-2.635 2.635,-2.635c6.233,0 21.831,0 28.064,0Z" style="fill:#fff;"/></svg>