<?xml version="1.0" encoding="UTF-8" standalone="no"?><!DOCTYPE svg PUBLIC "-//W3C//DTD SVG 1.1//EN" "http://www.w3.org/Graphics/SVG/1.1/DTD/svg11.dtd"><svg width="100%" height="100%" viewBox="0 0 84 59" version="1.1" xmlns="http://www.w3.org/2000/svg" xmlns:xlink="http://www.w3.org/1999/xlink" xml:space="preserve" xmlns:serif="http://www.serif.com/" style="fill-rule:evenodd;clip-rule:evenodd;stroke-linejoin:round;stroke-miterlimit:2;"><path d="M41.658,0c-16.991,0 -32.258,12.888 -41.054,27.013c-0.4,0.662 -0.604,1.408 -0.604,2.154c0,0.745 0.2,1.491 0.6,2.154c8.8,14.125 24.067,27.012 41.058,27.012c17.263,0 32.484,-12.875 41.1,-27.054c0.384,-0.65 0.575,-1.383 0.575,-2.112c0,-0.729 -0.191,-1.463 -0.575,-2.113c-8.616,-14.179 -23.837,-27.054 -41.1,-27.054Zm0.009,12.5c9.2,0 16.666,7.467 16.666,16.667c0,9.2 -7.466,16.666 -16.666,16.666c-9.2,0 -16.667,-7.466 -16.667,-16.666c-0,-9.2 7.467,-16.667 16.667,-16.667Zm-0,6.25c5.75,0 10.416,4.667 10.416,10.417c0,5.75 -4.666,10.416 -10.416,10.416c-5.75,0 -10.417,-4.666 -10.417,-10.416c-0,-5.75 4.667,-10.417 10.417,-10.417Z" style="fill:#fff;fill-rule:nonzero;"/></svg>