<?xml version="1.0" encoding="UTF-8" standalone="no"?><!DOCTYPE svg PUBLIC "-//W3C//DTD SVG 1.1//EN" "http://www.w3.org/Graphics/SVG/1.1/DTD/svg11.dtd"><svg width="100%" height="100%" viewBox="0 0 84 67" version="1.1" xmlns="http://www.w3.org/2000/svg" xmlns:xlink="http://www.w3.org/1999/xlink" xml:space="preserve" xmlns:serif="http://www.serif.com/" style="fill-rule:evenodd;clip-rule:evenodd;stroke-linejoin:round;stroke-miterlimit:2;"><path d="M62.788,10.608l11.183,-9.829c0.596,-0.521 1.333,-0.779 2.071,-0.779c1.741,0 3.125,1.417 3.125,3.125c-0,0.863 -0.359,1.725 -1.059,2.342l-68.75,60.421c-0.591,0.524 -1.329,0.779 -2.066,0.779c-1.73,-0 -3.125,-1.392 -3.125,-3.125c-0,-0.863 0.358,-1.725 1.054,-2.342l10.158,-8.929c-5.892,-4.717 -10.946,-10.633 -14.779,-16.784c-0.4,-0.662 -0.6,-1.408 -0.6,-2.154c-0,-0.745 0.204,-1.491 0.604,-2.154c8.796,-14.125 24.063,-27.012 41.054,-27.012c7.563,-0 14.734,2.471 21.129,6.441Zm9.659,7.625c4.029,3.93 7.516,8.388 10.312,12.988c0.384,0.65 0.575,1.383 0.575,2.112c0,0.73 -0.191,1.463 -0.575,2.113c-8.616,14.179 -23.837,27.054 -41.1,27.054c-5.408,0 -10.637,-1.304 -15.541,-3.537l10.933,-9.613c1.467,0.425 3.017,0.65 4.617,0.65c9.2,0 16.666,-7.467 16.666,-16.667c0,-0.858 -0.066,-1.7 -0.191,-2.525l14.304,-12.575Zm-20.55,1.946c-2.825,-2.2 -6.375,-3.512 -10.229,-3.512c-9.2,-0 -16.667,7.466 -16.667,16.666c-0,3.088 0.842,5.98 2.304,8.459l4.833,-4.246c-0.57,-1.292 -0.887,-2.713 -0.887,-4.213c0,-5.75 4.667,-10.416 10.417,-10.416c1.975,-0 3.825,0.55 5.4,1.508l4.829,-4.246Z" style="fill:#fff;fill-rule:nonzero;"/></svg>