<?xml version="1.0" encoding="UTF-8" standalone="no"?><!DOCTYPE svg PUBLIC "-//W3C//DTD SVG 1.1//EN" "http://www.w3.org/Graphics/SVG/1.1/DTD/svg11.dtd"><svg width="100%" height="100%" viewBox="0 0 92 100" version="1.1" xmlns="http://www.w3.org/2000/svg" xmlns:xlink="http://www.w3.org/1999/xlink" xml:space="preserve" xmlns:serif="http://www.serif.com/" style="fill-rule:evenodd;clip-rule:evenodd;stroke-linejoin:round;stroke-miterlimit:2;"><path d="M25,97.917c0,0.552 -0.219,1.082 -0.61,1.473c-0.391,0.391 -0.921,0.61 -1.473,0.61c-4.709,0 -16.125,0 -20.834,0c-0.552,0 -1.082,-0.219 -1.473,-0.61c-0.391,-0.391 -0.61,-0.921 -0.61,-1.473c-0,-4.709 -0,-16.125 -0,-20.834c-0,-0.552 0.219,-1.082 0.61,-1.473c0.391,-0.391 0.921,-0.61 1.473,-0.61c4.709,0 16.125,0 20.834,0c0.552,-0 1.082,0.219 1.473,0.61c0.391,0.391 0.61,0.921 0.61,1.473l-0,20.834Zm33.333,-33.334c0,-1.15 -0.932,-2.083 -2.083,-2.083c-4.708,0 -16.125,0 -20.833,-0c-1.151,-0 -2.084,0.933 -2.084,2.083c0,6.564 0,26.77 0,33.334c0,1.15 0.933,2.083 2.084,2.083c4.708,0 16.125,0 20.833,0c1.151,0 2.083,-0.933 2.083,-2.083c0,-6.564 0,-26.77 0,-33.334Zm33.334,-16.666c-0,-0.553 -0.22,-1.083 -0.611,-1.473c-0.39,-0.391 -0.92,-0.611 -1.473,-0.611c-4.708,0 -16.125,0 -20.833,0c-0.553,0 -1.082,0.22 -1.473,0.611c-0.391,0.39 -0.61,0.92 -0.61,1.473c-0,8.612 -0,41.387 -0,50c-0,0.552 0.219,1.082 0.61,1.473c0.391,0.391 0.92,0.61 1.473,0.61c4.708,0 16.125,0 20.833,0c0.553,0 1.083,-0.219 1.473,-0.61c0.391,-0.391 0.611,-0.921 0.611,-1.473c-0,-8.613 -0,-41.388 -0,-50Zm-0.616,-44.841c0.137,-0.684 -0.078,-1.392 -0.572,-1.884c-0.494,-0.493 -1.202,-0.706 -1.886,-0.566c-4.571,0.93 -13.153,2.676 -18.116,3.686c-0.753,0.153 -1.36,0.708 -1.581,1.444c-0.22,0.735 -0.018,1.533 0.526,2.074c0.987,0.983 2.062,2.053 2.902,2.888c0.394,0.393 0.615,0.927 0.613,1.483c-0.001,0.557 -0.226,1.09 -0.622,1.48c-4.944,4.858 -20.666,20.312 -25.567,25.129c-0.815,0.802 -2.125,0.796 -2.934,-0.013c-2.403,-2.404 -7.165,-7.168 -9.574,-9.578c-0.812,-0.812 -2.128,-0.814 -2.943,-0.004c-5.429,5.399 -24.284,24.148 -29.72,29.554c-0.816,0.811 -0.819,2.13 -0.008,2.946c0.897,0.902 2.04,2.052 2.937,2.954c0.811,0.815 2.13,0.819 2.946,0.008c4.682,-4.654 19.152,-19.042 23.829,-23.691c0.814,-0.81 2.13,-0.808 2.942,0.005c2.401,2.402 7.138,7.142 9.533,9.539c0.809,0.809 2.118,0.815 2.934,0.014c5.652,-5.555 25.911,-25.464 31.557,-31.012c0.814,-0.8 2.121,-0.796 2.93,0.01c0.793,0.79 1.8,1.792 2.734,2.723c0.544,0.541 1.342,0.74 2.076,0.517c0.735,-0.223 1.287,-0.832 1.437,-1.585c0.994,-4.963 2.712,-13.548 3.627,-18.121Z" style="fill:#fff;fill-rule:nonzero;"/></svg>