<?xml version="1.0" encoding="UTF-8" standalone="no"?>
<!DOCTYPE svg PUBLIC "-//W3C//DTD SVG 1.1//EN" "http://www.w3.org/Graphics/SVG/1.1/DTD/svg11.dtd">
<svg width="100%" height="100%" viewBox="0 0 24 24" version="1.1" xmlns="http://www.w3.org/2000/svg" xmlns:xlink="http://www.w3.org/1999/xlink" xml:space="preserve" xmlns:serif="http://www.serif.com/" style="fill-rule:evenodd;clip-rule:evenodd;stroke-linejoin:round;stroke-miterlimit:2;">
    <path d="M19,24L5,24C3.896,24 3,23.104 3,22L3,5.6C3,5.441 2.937,5.288 2.824,5.176C2.712,5.063 2.559,5 2.4,5C2.399,5 2.398,5 2.397,5C2.238,5 2.085,4.937 1.973,4.824C1.86,4.712 1.797,4.559 1.797,4.4C1.797,4.147 1.797,3.853 1.797,3.6C1.797,3.269 2.065,3 2.397,3C3.583,3 6.214,3 7.4,3C7.559,3 7.712,2.937 7.824,2.824C7.937,2.712 8,2.559 8,2.4C8,1.982 8,1.5 8,1.5C8,0.673 8.673,0 9.5,0L14.5,0C15.325,0 16,0.671 16,1.5L16,2.4C16,2.731 16.269,3 16.6,3C17.786,3 20.418,3 21.603,3C21.935,3 22.203,3.269 22.203,3.6C22.203,3.853 22.203,4.147 22.203,4.4C22.203,4.731 21.935,5 21.603,5C21.602,5 21.601,5 21.6,5C21.441,5 21.288,5.063 21.176,5.176C21.063,5.288 21,5.441 21,5.6C21,8.619 21,22 21,22C21,23.104 20.104,24 19,24ZM19,5.6C19,5.441 18.937,5.288 18.824,5.176C18.712,5.063 18.559,5 18.4,5C16.105,5 7.895,5 5.6,5C5.441,5 5.288,5.063 5.176,5.176C5.063,5.288 5,5.441 5,5.6C5,8.564 5,21.5 5,21.5C5,21.776 5.224,22 5.5,22L18.5,22C18.776,22 19,21.776 19,21.5L19,5.6ZM12,12.586C12,12.586 13.979,10.607 14.869,9.717C14.981,9.605 15.134,9.542 15.293,9.542C15.452,9.542 15.605,9.605 15.717,9.717C15.896,9.896 16.104,10.104 16.283,10.283C16.395,10.395 16.458,10.548 16.458,10.707C16.458,10.866 16.395,11.019 16.283,11.131C15.393,12.021 13.414,14 13.414,14C13.414,14 15.393,15.979 16.283,16.869C16.395,16.981 16.458,17.134 16.458,17.293C16.458,17.452 16.395,17.605 16.283,17.717C16.104,17.896 15.896,18.104 15.717,18.283C15.605,18.395 15.452,18.458 15.293,18.458C15.134,18.458 14.981,18.395 14.869,18.283C13.979,17.393 12,15.414 12,15.414C12,15.414 10.021,17.393 9.131,18.283C9.019,18.395 8.866,18.458 8.707,18.458C8.548,18.458 8.395,18.395 8.283,18.283C8.104,18.104 7.896,17.896 7.717,17.717C7.605,17.605 7.542,17.452 7.542,17.293C7.542,17.134 7.605,16.981 7.717,16.869C8.607,15.979 10.586,14 10.586,14C10.586,14 8.607,12.021 7.717,11.131C7.605,11.019 7.542,10.866 7.542,10.707C7.542,10.548 7.605,10.395 7.717,10.283C7.896,10.104 8.104,9.896 8.283,9.717C8.395,9.605 8.548,9.542 8.707,9.542C8.866,9.542 9.019,9.605 9.131,9.717C10.021,10.607 12,12.586 12,12.586ZM14,2.4C14,2.294 13.958,2.192 13.883,2.117C13.808,2.042 13.706,2 13.6,2C12.834,2 11.166,2 10.4,2C10.294,2 10.192,2.042 10.117,2.117C10.042,2.192 10,2.294 10,2.4C10,2.466 10,2.534 10,2.6C10,2.706 10.042,2.808 10.117,2.883C10.192,2.958 10.294,3 10.4,3C11.166,3 12.834,3 13.6,3C13.706,3 13.808,2.958 13.883,2.883C13.958,2.808 14,2.706 14,2.6C14,2.534 14,2.466 14,2.4Z" style="fill:white;"/>
</svg>
