<?xml version="1.0" encoding="utf-8"?>
<!-- Generator: Adobe Illustrator 27.9.0, SVG Export Plug-In . SVG Version: 6.00 Build 0)  -->
<svg version="1.1" id="Layer_1" xmlns="http://www.w3.org/2000/svg" xmlns:xlink="http://www.w3.org/1999/xlink" x="0px" y="0px"
	 viewBox="0 0 24 24" style="enable-background:new 0 0 24 24;" xml:space="preserve">
<style type="text/css">
	.st0{fill:#FFFFFF;}
</style>
<path class="st0" d="M17,9.8V5c0-2.8-2.2-5-5-5C9.2,0,7,2.2,7,5v4.8c-1.8,1.5-3,3.7-3,6.2c0,4.4,3.6,8,8,8s8-3.6,8-8
	C20,13.5,18.8,11.2,17,9.8z M9,5c0-1.7,1.3-3,3-3s3,1.3,3,3v3.6C14.1,8.2,13.1,8,12,8S9.9,8.2,9,8.6C9,8.6,9,5,9,5z M12,22
	c-3.3,0-6-2.7-6-6s2.7-6,6-6s6,2.7,6,6S15.3,22,12,22z M14,16c0,1.1-0.9,2-2,2s-2-0.9-2-2s0.9-2,2-2S14,14.9,14,16z"/>
</svg>
