<?xml version="1.0" encoding="utf-8"?>
<!-- Generator: Adobe Illustrator 27.9.0, SVG Export Plug-In . SVG Version: 6.00 Build 0)  -->
<svg version="1.1" id="Layer_1" xmlns="http://www.w3.org/2000/svg" xmlns:xlink="http://www.w3.org/1999/xlink" x="0px" y="0px"
	 viewBox="0 0 24 24" style="enable-background:new 0 0 24 24;" xml:space="preserve">
<style type="text/css">
	.st0{fill:#FFFFFF;}
</style>
<g>
	<circle class="st0" cx="12" cy="16" r="2"/>
	<path class="st0" d="M12,8c-1.1,0-2.1,0.2-3,0.6V5c0-1.7,1.3-3,3-3s3,1.3,3,3v0.6c0,0.6,0.4,1,1,1s1-0.4,1-1V5c0-2.8-2.2-5-5-5
		C9.2,0,7,2.2,7,5v4.8c-1.8,1.5-3,3.7-3,6.2c0,4.4,3.6,8,8,8s8-3.6,8-8C20,11.6,16.4,8,12,8z M12,22c-3.3,0-6-2.7-6-6s2.7-6,6-6
		s6,2.7,6,6S15.3,22,12,22z"/>
</g>
</svg>
